STARTFONT 2.1
COMMENT
COMMENT Converted from OpenType font "BAHNSCHRIFT.TTF" by "otf2bdf 3.0".
COMMENT
FONT -FreeType-Bahnschrift-Medium-R-Normal--31-450-50-50-P-147-ISO10646-1
SIZE 45 50 50
FONTBOUNDINGBOX 67 37 -33 -7
STARTPROPERTIES 19
FOUNDRY "FreeType"
FAMILY_NAME "Bahnschrift"
WEIGHT_NAME "Medium"
SLANT "R"
SETWIDTH_NAME "Normal"
ADD_STYLE_NAME ""
PIXEL_SIZE 31
POINT_SIZE 450
RESOLUTION_X 50
RESOLUTION_Y 50
SPACING "P"
AVERAGE_WIDTH 147
CHARSET_REGISTRY "ISO10646"
CHARSET_ENCODING "1"
FONT_ASCENT 30
FONT_DESCENT 6
COPYRIGHT "© 2018 Microsoft Corporation. All rights reserved."
_OTF_FONTFILE "BAHNSCHRIFT.TTF"
_OTF_PSNAME "Bahnschrift"
ENDPROPERTIES
CHARS 803
STARTCHAR 0020
ENCODING 32
SWIDTH 160 0
DWIDTH 5 0
BBX 0 0 0 0
BITMAP
ENDCHAR
STARTCHAR 0021
ENCODING 33
SWIDTH 224 0
DWIDTH 7 0
BBX 3 22 2 0
BITMAP
E0
E0
E0
E0
E0
E0
E0
E0
E0
E0
E0
E0
E0
E0
E0
E0
00
00
00
E0
E0
E0
ENDCHAR
STARTCHAR 0022
ENCODING 34
SWIDTH 384 0
DWIDTH 12 0
BBX 8 8 2 14
BITMAP
E7
E7
E7
E7
E7
E7
E7
E7
ENDCHAR
STARTCHAR 0023
ENCODING 35
SWIDTH 608 0
DWIDTH 19 0
BBX 17 22 1 0
BITMAP
038E00
030E00
030E00
070C00
070C00
7FFF80
7FFF80
7FFF80
061C00
0E1800
0E1800
0E1800
0C3800
0C3800
FFFF00
FFFF00
FFFF00
1C3000
187000
187000
187000
386000
ENDCHAR
STARTCHAR 0024
ENCODING 36
SWIDTH 576 0
DWIDTH 18 0
BBX 15 26 1 -2
BITMAP
03C0
03C0
07E0
1FFC
3FFC
3FDC
7BC8
7BC0
73C0
7BC0
7FC0
3FC0
1FF0
0FFC
03FC
03DE
03CE
03CE
23CE
73CE
FBFE
7FFC
3FF8
07E0
03C0
03C0
ENDCHAR
STARTCHAR 0025
ENCODING 37
SWIDTH 672 0
DWIDTH 21 0
BBX 18 22 2 0
BITMAP
780700
FC0E00
FE0E00
CE1C00
CE1800
CE3800
CE3000
FE7000
FC6000
78E000
01C000
01C000
038F00
039F80
071FC0
0639C0
0E39C0
0C39C0
1C39C0
181FC0
381F80
700F00
ENDCHAR
STARTCHAR 0026
ENCODING 38
SWIDTH 640 0
DWIDTH 20 0
BBX 17 22 2 0
BITMAP
07E000
0FF000
1FF800
3C3C00
381C00
381C00
380000
380000
3C0000
1C0000
1E0000
3F0700
7F8700
F3C700
E1E700
E0FF00
E07E00
E07E00
F03C00
7FFE00
3FFF00
1FC780
ENDCHAR
STARTCHAR 0027
ENCODING 39
SWIDTH 192 0
DWIDTH 6 0
BBX 3 8 1 14
BITMAP
E0
E0
E0
E0
E0
E0
E0
E0
ENDCHAR
STARTCHAR 0028
ENCODING 40
SWIDTH 352 0
DWIDTH 11 0
BBX 7 29 3 -5
BITMAP
04
0E
1E
3C
38
78
70
70
F0
E0
E0
E0
E0
E0
E0
E0
E0
E0
E0
E0
E0
70
70
78
38
3C
1E
0E
04
ENDCHAR
STARTCHAR 0029
ENCODING 41
SWIDTH 352 0
DWIDTH 11 0
BBX 7 29 1 -5
BITMAP
40
E0
E0
70
78
38
38
1C
1C
1C
1C
0E
0E
0E
0E
0E
0E
0E
1C
1C
1C
1C
38
38
78
70
E0
E0
40
ENDCHAR
STARTCHAR 002A
ENCODING 42
SWIDTH 416 0
DWIDTH 13 0
BBX 11 11 1 13
BITMAP
0E00
0E00
0E00
EE60
FFE0
7FC0
0F00
1F00
3B80
71C0
1080
ENDCHAR
STARTCHAR 002B
ENCODING 43
SWIDTH 512 0
DWIDTH 16 0
BBX 12 13 2 4
BITMAP
0700
0700
0700
0700
0700
FFF0
FFF0
FFF0
0700
0700
0700
0700
0700
ENDCHAR
STARTCHAR 002C
ENCODING 44
SWIDTH 224 0
DWIDTH 7 0
BBX 3 6 2 -3
BITMAP
E0
E0
E0
E0
C0
80
ENDCHAR
STARTCHAR 002D
ENCODING 45
SWIDTH 480 0
DWIDTH 15 0
BBX 11 3 2 6
BITMAP
FFE0
FFE0
FFE0
ENDCHAR
STARTCHAR 002E
ENCODING 46
SWIDTH 224 0
DWIDTH 7 0
BBX 3 3 2 0
BITMAP
E0
E0
E0
ENDCHAR
STARTCHAR 002F
ENCODING 47
SWIDTH 384 0
DWIDTH 12 0
BBX 13 29 0 -4
BITMAP
0038
0038
0070
0070
00E0
00E0
00E0
01C0
01C0
01C0
0380
0380
0380
0700
0700
0700
0E00
0E00
0E00
1C00
1C00
3800
3800
3800
7000
7000
7000
E000
E000
ENDCHAR
STARTCHAR 0030
ENCODING 48
SWIDTH 544 0
DWIDTH 17 0
BBX 13 22 2 0
BITMAP
0F80
3FE0
7FF0
7870
F078
E038
E038
E038
E038
E038
E038
E038
E038
E038
E038
E038
E038
F078
7870
7FF0
3FE0
0F80
ENDCHAR
STARTCHAR 0031
ENCODING 49
SWIDTH 320 0
DWIDTH 10 0
BBX 7 22 1 0
BITMAP
1E
7E
FE
FE
DE
1E
1E
1E
1E
1E
1E
1E
1E
1E
1E
1E
1E
1E
1E
1E
1E
1E
ENDCHAR
STARTCHAR 0032
ENCODING 50
SWIDTH 512 0
DWIDTH 16 0
BBX 12 22 2 0
BITMAP
1F80
3FE0
7FE0
F0F0
E070
E070
0070
0070
00F0
01E0
01C0
03C0
0780
0F00
0E00
1E00
3C00
7800
7000
FFF0
FFF0
FFF0
ENDCHAR
STARTCHAR 0033
ENCODING 51
SWIDTH 512 0
DWIDTH 16 0
BBX 13 22 1 0
BITMAP
0FC0
1FE0
3FF0
7878
7038
7038
0038
0038
0070
03E0
03C0
03F0
0070
0038
0038
0038
F038
7038
7878
3FF0
1FF0
0FC0
ENDCHAR
STARTCHAR 0034
ENCODING 52
SWIDTH 576 0
DWIDTH 18 0
BBX 14 22 2 0
BITMAP
01C0
01C0
0380
0380
0780
0700
0F00
0E00
1E00
1C00
1C70
3870
3870
7870
7070
F070
FFFC
FFFC
FFFC
0070
0070
0070
ENDCHAR
STARTCHAR 0035
ENCODING 53
SWIDTH 544 0
DWIDTH 17 0
BBX 13 22 2 0
BITMAP
7FF0
7FF0
7FF0
7000
7000
7000
7000
7780
7FE0
7FF0
78F0
7070
0078
0038
0038
0078
E078
7070
78F0
7FF0
3FE0
0F80
ENDCHAR
STARTCHAR 0036
ENCODING 54
SWIDTH 512 0
DWIDTH 16 0
BBX 12 22 2 0
BITMAP
0380
0780
0700
0F00
0E00
1E00
1C00
3C00
3800
7F80
7FC0
FFE0
F0F0
E070
E070
E070
E070
E070
F0F0
7FE0
3FC0
1F80
ENDCHAR
STARTCHAR 0037
ENCODING 55
SWIDTH 512 0
DWIDTH 16 0
BBX 12 22 2 0
BITMAP
FFF0
FFF0
FFF0
E0E0
E0E0
E0E0
01E0
01C0
01C0
03C0
0380
0380
0780
0700
0700
0700
0F00
0E00
0E00
1E00
1C00
1C00
ENDCHAR
STARTCHAR 0038
ENCODING 56
SWIDTH 544 0
DWIDTH 17 0
BBX 13 22 2 0
BITMAP
0FC0
3FE0
7FF0
7878
7038
F038
7038
7078
7870
3FE0
3FE0
7FF0
7878
F038
E038
E038
E038
F038
7878
7FF0
3FE0
0FC0
ENDCHAR
STARTCHAR 0039
ENCODING 57
SWIDTH 512 0
DWIDTH 16 0
BBX 12 22 2 0
BITMAP
1F80
3FC0
7FE0
F0F0
E070
E070
E070
E070
E070
F0F0
7FE0
7FE0
1FE0
01C0
03C0
0380
0780
0700
0F00
0E00
1E00
1C00
ENDCHAR
STARTCHAR 003A
ENCODING 58
SWIDTH 224 0
DWIDTH 7 0
BBX 3 16 2 0
BITMAP
E0
E0
E0
00
00
00
00
00
00
00
00
00
00
E0
E0
E0
ENDCHAR
STARTCHAR 003B
ENCODING 59
SWIDTH 224 0
DWIDTH 7 0
BBX 3 19 2 -3
BITMAP
E0
E0
E0
00
00
00
00
00
00
00
00
00
00
E0
E0
E0
E0
C0
80
ENDCHAR
STARTCHAR 003C
ENCODING 60
SWIDTH 416 0
DWIDTH 13 0
BBX 9 12 2 4
BITMAP
0080
0180
0780
1F80
3E00
F800
F800
3E00
1F80
0780
0180
0080
ENDCHAR
STARTCHAR 003D
ENCODING 61
SWIDTH 448 0
DWIDTH 14 0
BBX 10 8 2 6
BITMAP
FFC0
FFC0
FFC0
0000
0000
FFC0
FFC0
FFC0
ENDCHAR
STARTCHAR 003E
ENCODING 62
SWIDTH 416 0
DWIDTH 13 0
BBX 9 12 2 4
BITMAP
8000
E000
F000
FC00
3F00
0F80
0F80
3F00
FC00
F000
E000
8000
ENDCHAR
STARTCHAR 003F
ENCODING 63
SWIDTH 416 0
DWIDTH 13 0
BBX 11 22 1 0
BITMAP
1F00
7FC0
FFC0
F1E0
E0E0
E0E0
00E0
01E0
01C0
03C0
0780
0700
0E00
0E00
0E00
0E00
0000
0000
0000
0E00
0E00
0E00
ENDCHAR
STARTCHAR 0040
ENCODING 64
SWIDTH 896 0
DWIDTH 28 0
BBX 23 28 2 -6
BITMAP
00FF00
07FFC0
0FFFF0
1F00F8
3C003C
38001C
707E1C
71FF0E
71FF8E
E3C38E
E381CE
E381C6
E381C6
E381C6
E381C6
E381C6
E381C6
E381CE
E3C3CE
E1FFFE
71FEFC
707C78
780000
3C0000
1F0000
0FFF00
07FF00
007F00
ENDCHAR
STARTCHAR 0041
ENCODING 65
SWIDTH 640 0
DWIDTH 20 0
BBX 18 22 1 0
BITMAP
00E000
01E000
01E000
03F000
03F000
03F000
073800
073800
073800
0E1C00
0E1C00
1E0E00
1C0E00
1C0E00
3FFF00
3FFF00
3FFF00
780380
700380
7003C0
E001C0
E001C0
ENDCHAR
STARTCHAR 0042
ENCODING 66
SWIDTH 640 0
DWIDTH 20 0
BBX 15 22 3 0
BITMAP
FFE0
FFF8
FFFC
E01C
E01E
E00E
E00E
E01E
E01C
FFF8
FFE0
FFF8
E03C
E01E
E00E
E00E
E00E
E00E
E01E
FFFC
FFF8
FFE0
ENDCHAR
STARTCHAR 0043
ENCODING 67
SWIDTH 608 0
DWIDTH 19 0
BBX 15 22 2 0
BITMAP
07E0
1FF0
3FF8
7C3C
781E
700E
F00E
E000
E000
E000
E000
E000
E000
E000
E000
F00E
700E
781E
7C3C
3FF8
1FF0
07E0
ENDCHAR
STARTCHAR 0044
ENCODING 68
SWIDTH 640 0
DWIDTH 20 0
BBX 15 22 3 0
BITMAP
FFC0
FFF0
FFF8
E07C
E01C
E01E
E00E
E00E
E00E
E00E
E00E
E00E
E00E
E00E
E00E
E00E
E01E
E01E
E07C
FFF8
FFF0
FFC0
ENDCHAR
STARTCHAR 0045
ENCODING 69
SWIDTH 608 0
DWIDTH 19 0
BBX 14 22 3 0
BITMAP
FFFC
FFFC
FFFC
E000
E000
E000
E000
E000
E000
E000
FFF0
FFF0
FFF0
E000
E000
E000
E000
E000
E000
FFFC
FFFC
FFFC
ENDCHAR
STARTCHAR 0046
ENCODING 70
SWIDTH 544 0
DWIDTH 17 0
BBX 14 22 3 0
BITMAP
FFFC
FFFC
FFFC
E000
E000
E000
E000
E000
E000
E000
FFF0
FFF0
FFF0
E000
E000
E000
E000
E000
E000
E000
E000
E000
ENDCHAR
STARTCHAR 0047
ENCODING 71
SWIDTH 640 0
DWIDTH 20 0
BBX 16 22 2 0
BITMAP
07E0
1FF0
3FF8
7C3C
781E
700E
F00E
E000
E000
E000
E0FF
E0FF
E0FF
E007
E007
F00F
F00E
701E
7C3E
3FFC
1FF8
07E0
ENDCHAR
STARTCHAR 0048
ENCODING 72
SWIDTH 672 0
DWIDTH 21 0
BBX 15 22 3 0
BITMAP
E00E
E00E
E00E
E00E
E00E
E00E
E00E
E00E
E00E
E00E
FFFE
FFFE
FFFE
E00E
E00E
E00E
E00E
E00E
E00E
E00E
E00E
E00E
ENDCHAR
STARTCHAR 0049
ENCODING 73
SWIDTH 288 0
DWIDTH 9 0
BBX 3 22 3 0
BITMAP
E0
E0
E0
E0
E0
E0
E0
E0
E0
E0
E0
E0
E0
E0
E0
E0
E0
E0
E0
E0
E0
E0
ENDCHAR
STARTCHAR 004A
ENCODING 74
SWIDTH 512 0
DWIDTH 16 0
BBX 12 22 1 0
BITMAP
0070
0070
0070
0070
0070
0070
0070
0070
0070
0070
0070
0070
0070
0070
0070
0070
0070
00F0
61E0
FFE0
7FC0
3F00
ENDCHAR
STARTCHAR 004B
ENCODING 75
SWIDTH 640 0
DWIDTH 20 0
BBX 16 22 3 0
BITMAP
E01E
E01C
E03C
E078
E0F0
E0E0
E1C0
E3C0
E780
EF80
EFC0
FDC0
F9E0
F8F0
F0F0
E078
E038
E03C
E01E
E01E
E00F
E00F
ENDCHAR
STARTCHAR 004C
ENCODING 76
SWIDTH 576 0
DWIDTH 18 0
BBX 14 22 3 0
BITMAP
E000
E000
E000
E000
E000
E000
E000
E000
E000
E000
E000
E000
E000
E000
E000
E000
E000
E000
E000
FFFC
FFFC
FFFC
ENDCHAR
STARTCHAR 004D
ENCODING 77
SWIDTH 768 0
DWIDTH 24 0
BBX 18 22 3 0
BITMAP
E001C0
E001C0
F003C0
F003C0
F803C0
F807C0
F807C0
FC0FC0
FC0FC0
EE1DC0
EE1DC0
E739C0
E739C0
E3B9C0
E3F1C0
E3F1C0
E1E1C0
E1E1C0
E0C1C0
E001C0
E001C0
E001C0
ENDCHAR
STARTCHAR 004E
ENCODING 78
SWIDTH 704 0
DWIDTH 22 0
BBX 16 22 3 0
BITMAP
E007
E007
F007
F807
F807
FC07
FE07
EE07
E707
E787
E387
E3C7
E1C7
E0E7
E0F7
E077
E03F
E03F
E01F
E00F
E00F
E007
ENDCHAR
STARTCHAR 004F
ENCODING 79
SWIDTH 640 0
DWIDTH 20 0
BBX 16 22 2 0
BITMAP
07E0
1FF8
3FFC
7C3E
781E
700E
F00F
E007
E007
E007
E007
E007
E007
E007
E007
F00F
700E
781E
7C3E
3FFC
1FF8
07E0
ENDCHAR
STARTCHAR 0050
ENCODING 80
SWIDTH 608 0
DWIDTH 19 0
BBX 15 22 3 0
BITMAP
FFE0
FFF8
FFFC
E03C
E01E
E00E
E00E
E00E
E01E
E03C
FFFC
FFF8
FFE0
E000
E000
E000
E000
E000
E000
E000
E000
E000
ENDCHAR
STARTCHAR 0051
ENCODING 81
SWIDTH 640 0
DWIDTH 20 0
BBX 18 22 2 0
BITMAP
07E000
1FF800
3FFC00
7C3E00
781E00
700E00
F00F00
E00700
E00700
E00700
E00700
E00700
E00700
E00700
E04700
F0FF00
707E00
783E00
7C3F00
3FFF80
1FFBC0
07E180
ENDCHAR
STARTCHAR 0052
ENCODING 82
SWIDTH 640 0
DWIDTH 20 0
BBX 15 22 3 0
BITMAP
FFE0
FFF8
FFFC
E03C
E01E
E01E
E00E
E01E
E01E
E03C
FFFC
FFF8
FFE0
E0E0
E0F0
E070
E078
E038
E03C
E01C
E01E
E00E
ENDCHAR
STARTCHAR 0053
ENCODING 83
SWIDTH 608 0
DWIDTH 19 0
BBX 15 22 2 0
BITMAP
07E0
1FFC
3FFE
781C
7004
F000
E000
F000
7800
7F00
3FF0
0FFC
00FE
001E
000E
000E
000E
400E
F03E
FFFC
7FF8
0FE0
ENDCHAR
STARTCHAR 0054
ENCODING 84
SWIDTH 480 0
DWIDTH 15 0
BBX 15 22 0 0
BITMAP
FFFE
FFFE
FFFE
0380
0380
0380
0380
0380
0380
0380
0380
0380
0380
0380
0380
0380
0380
0380
0380
0380
0380
0380
ENDCHAR
STARTCHAR 0055
ENCODING 85
SWIDTH 640 0
DWIDTH 20 0
BBX 16 22 2 0
BITMAP
F007
F007
F007
F007
F007
F007
F007
F007
F007
F007
F007
F007
F007
F007
F007
7007
700F
780E
7C3E
3FFC
1FF8
07E0
ENDCHAR
STARTCHAR 0056
ENCODING 86
SWIDTH 576 0
DWIDTH 18 0
BBX 17 22 1 0
BITMAP
E00780
E00700
F00700
700F00
700E00
700E00
381E00
381C00
381C00
1C3C00
1C3800
1C3800
0E3800
0E7000
0E7000
077000
07E000
07E000
07E000
03C000
03C000
03C000
ENDCHAR
STARTCHAR 0057
ENCODING 87
SWIDTH 832 0
DWIDTH 26 0
BBX 25 22 1 0
BITMAP
E0180780
E01C0700
E03C0700
E03C0700
703C0700
703E0E00
707E0E00
707E0E00
38760E00
38671C00
38E71C00
38E31C00
18E31C00
1CC39C00
1DC3B800
1DC1B800
1DC1B800
0F81F800
0F81F000
0F80F000
0F00F000
0700F000
ENDCHAR
STARTCHAR 0058
ENCODING 88
SWIDTH 576 0
DWIDTH 18 0
BBX 16 22 1 0
BITMAP
E00F
F00E
701C
383C
3C38
1C78
1E70
0EE0
07E0
07C0
03C0
03C0
07C0
0FE0
0EF0
1E70
1C38
383C
781C
701E
F00E
E007
ENDCHAR
STARTCHAR 0059
ENCODING 89
SWIDTH 512 0
DWIDTH 16 0
BBX 16 22 0 0
BITMAP
E00F
F00E
701E
781C
383C
3C38
1C78
1E70
0EF0
0FE0
07E0
07C0
03C0
0380
0380
0380
0380
0380
0380
0380
0380
0380
ENDCHAR
STARTCHAR 005A
ENCODING 90
SWIDTH 544 0
DWIDTH 17 0
BBX 14 22 2 0
BITMAP
FFF8
FFF8
FFF8
0078
0070
00F0
01E0
01C0
03C0
0380
0780
0F00
0E00
1E00
1C00
3C00
7800
7800
F000
FFFC
FFFC
FFFC
ENDCHAR
STARTCHAR 005B
ENCODING 91
SWIDTH 288 0
DWIDTH 9 0
BBX 6 30 3 -5
BITMAP
FC
FC
FC
E0
E0
E0
E0
E0
E0
E0
E0
E0
E0
E0
E0
E0
E0
E0
E0
E0
E0
E0
E0
E0
E0
E0
E0
FC
FC
FC
ENDCHAR
STARTCHAR 005C
ENCODING 92
SWIDTH 384 0
DWIDTH 12 0
BBX 13 29 -1 -4
BITMAP
E000
E000
7000
7000
7000
3800
3800
3800
1C00
1C00
1C00
0E00
0E00
0E00
0700
0700
0300
0380
0380
01C0
01C0
01C0
00E0
00E0
00E0
0070
0070
0070
0038
ENDCHAR
STARTCHAR 005D
ENCODING 93
SWIDTH 288 0
DWIDTH 9 0
BBX 6 30 0 -5
BITMAP
FC
FC
FC
1C
1C
1C
1C
1C
1C
1C
1C
1C
1C
1C
1C
1C
1C
1C
1C
1C
1C
1C
1C
1C
1C
1C
1C
FC
FC
FC
ENDCHAR
STARTCHAR 005E
ENCODING 94
SWIDTH 512 0
DWIDTH 16 0
BBX 12 8 2 15
BITMAP
0400
0600
0F00
1F80
3F80
39C0
71E0
F0F0
ENDCHAR
STARTCHAR 005F
ENCODING 95
SWIDTH 448 0
DWIDTH 14 0
BBX 13 3 0 -3
BITMAP
FFF8
FFF8
FFF8
ENDCHAR
STARTCHAR 0060
ENCODING 96
SWIDTH 288 0
DWIDTH 9 0
BBX 6 7 2 19
BITMAP
40
E0
F0
70
38
1C
18
ENDCHAR
STARTCHAR 0061
ENCODING 97
SWIDTH 544 0
DWIDTH 17 0
BBX 12 16 2 0
BITMAP
1F80
7FE0
7FE0
20F0
0070
0070
07F0
7FF0
FFF0
E070
E070
E070
E070
FFF0
7FF0
3F70
ENDCHAR
STARTCHAR 0062
ENCODING 98
SWIDTH 544 0
DWIDTH 17 0
BBX 13 22 2 0
BITMAP
F000
F000
F000
F000
F000
F000
F7C0
FFE0
FFF0
F070
F078
F038
F038
F038
F038
F038
F038
F078
F070
FFF0
FFE0
F7C0
ENDCHAR
STARTCHAR 0063
ENCODING 99
SWIDTH 480 0
DWIDTH 15 0
BBX 12 16 2 0
BITMAP
0F80
3FE0
7FF0
7870
F020
E000
E000
E000
E000
E000
E000
F020
7870
7FF0
3FE0
0FC0
ENDCHAR
STARTCHAR 0064
ENCODING 100
SWIDTH 544 0
DWIDTH 17 0
BBX 12 22 2 0
BITMAP
0070
0070
0070
0070
0070
0070
1E70
7FF0
7FF0
F0F0
E070
E070
E070
E070
E070
E070
E070
E070
F0F0
7FF0
7FF0
1F70
ENDCHAR
STARTCHAR 0065
ENCODING 101
SWIDTH 544 0
DWIDTH 17 0
BBX 13 16 2 0
BITMAP
0F80
3FE0
7FE0
7070
E070
E038
E038
FFF8
FFF8
E000
E000
F000
7860
7FF0
3FF0
0FC0
ENDCHAR
STARTCHAR 0066
ENCODING 102
SWIDTH 320 0
DWIDTH 10 0
BBX 8 22 1 0
BITMAP
0F
3F
3F
38
38
38
FF
FF
FF
38
38
38
38
38
38
38
38
38
38
38
38
38
ENDCHAR
STARTCHAR 0067
ENCODING 103
SWIDTH 544 0
DWIDTH 17 0
BBX 12 22 2 -6
BITMAP
1E70
7FF0
7FF0
F0F0
E070
E070
E070
E070
E070
E070
E070
E070
F0F0
7FF0
7FF0
1F70
0070
0070
2070
79E0
7FE0
3F80
ENDCHAR
STARTCHAR 0068
ENCODING 104
SWIDTH 544 0
DWIDTH 17 0
BBX 13 22 2 0
BITMAP
F000
F000
F000
F000
F000
F000
F3C0
FFE0
FFF0
F878
F078
F038
F038
F038
F038
F038
F038
F038
F038
F038
F038
F038
ENDCHAR
STARTCHAR 0069
ENCODING 105
SWIDTH 256 0
DWIDTH 8 0
BBX 4 22 2 0
BITMAP
F0
F0
F0
00
00
00
F0
F0
F0
F0
F0
F0
F0
F0
F0
F0
F0
F0
F0
F0
F0
F0
ENDCHAR
STARTCHAR 006A
ENCODING 106
SWIDTH 256 0
DWIDTH 8 0
BBX 6 28 0 -6
BITMAP
1C
1C
1C
00
00
00
1C
1C
1C
1C
1C
1C
1C
1C
1C
1C
1C
1C
1C
1C
1C
1C
1C
1C
1C
FC
FC
F8
ENDCHAR
STARTCHAR 006B
ENCODING 107
SWIDTH 512 0
DWIDTH 16 0
BBX 14 22 2 0
BITMAP
F000
F000
F000
F000
F000
F000
F078
F070
F0E0
F1C0
F3C0
F780
F700
FF80
FFC0
F9C0
F0E0
F0F0
F070
F078
F038
F01C
ENDCHAR
STARTCHAR 006C
ENCODING 108
SWIDTH 288 0
DWIDTH 9 0
BBX 6 22 2 0
BITMAP
F0
F0
F0
F0
F0
F0
F0
F0
F0
F0
F0
F0
F0
F0
F0
F0
F0
F0
F0
7C
7C
3C
ENDCHAR
STARTCHAR 006D
ENCODING 109
SWIDTH 864 0
DWIDTH 27 0
BBX 22 16 2 0
BITMAP
F3C1E0
FFE7F8
FFF7F8
F87C3C
F0781C
F0381C
F0381C
F0381C
F0381C
F0381C
F0381C
F0381C
F0381C
F0381C
F0381C
F0381C
ENDCHAR
STARTCHAR 006E
ENCODING 110
SWIDTH 544 0
DWIDTH 17 0
BBX 13 16 2 0
BITMAP
F3C0
FFE0
FFF0
F878
F078
F038
F038
F038
F038
F038
F038
F038
F038
F038
F038
F038
ENDCHAR
STARTCHAR 006F
ENCODING 111
SWIDTH 544 0
DWIDTH 17 0
BBX 13 16 2 0
BITMAP
0F80
3FE0
7FF0
78F0
F078
E038
E038
E038
E038
E038
E038
F078
78F0
7FF0
3FE0
0F80
ENDCHAR
STARTCHAR 0070
ENCODING 112
SWIDTH 544 0
DWIDTH 17 0
BBX 13 22 2 -6
BITMAP
F7C0
FFE0
FFF0
F070
F078
F038
F038
F038
F038
F038
F038
F078
F070
FFF0
FFE0
F7C0
F000
F000
F000
F000
F000
F000
ENDCHAR
STARTCHAR 0071
ENCODING 113
SWIDTH 544 0
DWIDTH 17 0
BBX 12 22 2 -6
BITMAP
1E70
7FF0
7FF0
F0F0
E070
E070
E070
E070
E070
E070
E070
E070
F0F0
7FF0
7FF0
1F70
0070
0070
0070
0070
0070
0070
ENDCHAR
STARTCHAR 0072
ENCODING 114
SWIDTH 416 0
DWIDTH 13 0
BBX 11 16 2 0
BITMAP
F3C0
FFE0
FFC0
F880
F000
F000
F000
F000
F000
F000
F000
F000
F000
F000
F000
F000
ENDCHAR
STARTCHAR 0073
ENCODING 115
SWIDTH 512 0
DWIDTH 16 0
BBX 14 16 1 0
BITMAP
0FE0
3FF8
7FF8
7010
7000
7000
7F00
3FF0
1FF8
0078
001C
201C
7038
FFF8
7FF0
0FC0
ENDCHAR
STARTCHAR 0074
ENCODING 116
SWIDTH 320 0
DWIDTH 10 0
BBX 7 20 1 0
BITMAP
38
38
38
38
FE
FE
FE
38
38
38
38
38
38
38
38
38
38
3E
3E
1E
ENDCHAR
STARTCHAR 0075
ENCODING 117
SWIDTH 544 0
DWIDTH 17 0
BBX 13 16 2 0
BITMAP
F038
F038
F038
F038
F038
F038
F038
F038
F038
F038
F038
7038
7878
7FF8
3FB8
1F38
ENDCHAR
STARTCHAR 0076
ENCODING 118
SWIDTH 512 0
DWIDTH 16 0
BBX 14 16 1 0
BITMAP
E03C
E038
7038
7078
7870
3870
38F0
1CE0
1CE0
1DC0
0FC0
0FC0
0F80
0780
0780
0700
ENDCHAR
STARTCHAR 0077
ENCODING 119
SWIDTH 768 0
DWIDTH 24 0
BBX 22 16 1 0
BITMAP
E0301C
70783C
707838
707838
70FC38
38FC70
38EC70
39CE70
19CE60
1DC660
1F87E0
0F87E0
0F03C0
0F03C0
0F03C0
060180
ENDCHAR
STARTCHAR 0078
ENCODING 120
SWIDTH 512 0
DWIDTH 16 0
BBX 14 16 1 0
BITMAP
F038
7878
3870
3CF0
1CE0
0FC0
0FC0
0780
0780
0FC0
0FC0
1CE0
3CF0
3870
7038
F03C
ENDCHAR
STARTCHAR 0079
ENCODING 121
SWIDTH 480 0
DWIDTH 15 0
BBX 14 22 1 -6
BITMAP
E03C
E038
7038
7070
7070
3870
38E0
1CE0
1CE0
1DC0
0FC0
0FC0
0F80
0780
0780
0700
0700
0700
0E00
3E00
3E00
3C00
ENDCHAR
STARTCHAR 007A
ENCODING 122
SWIDTH 480 0
DWIDTH 15 0
BBX 12 16 2 0
BITMAP
FFE0
FFE0
FFE0
01E0
03C0
0380
0780
0F00
1E00
1C00
3C00
7800
7000
FFF0
FFF0
FFF0
ENDCHAR
STARTCHAR 007B
ENCODING 123
SWIDTH 352 0
DWIDTH 11 0
BBX 9 32 2 -6
BITMAP
0380
0F80
1F80
1E00
1C00
1C00
1C00
1C00
1C00
1C00
1C00
1C00
1C00
3C00
F800
F000
F800
3800
1C00
1C00
1C00
1C00
1C00
1C00
1C00
1C00
1C00
1C00
1E00
1F80
0F80
0380
ENDCHAR
STARTCHAR 007C
ENCODING 124
SWIDTH 288 0
DWIDTH 9 0
BBX 3 28 3 -3
BITMAP
E0
E0
E0
E0
E0
E0
E0
E0
E0
E0
E0
E0
E0
E0
E0
E0
E0
E0
E0
E0
E0
E0
E0
E0
E0
E0
E0
E0
ENDCHAR
STARTCHAR 007D
ENCODING 125
SWIDTH 352 0
DWIDTH 11 0
BBX 8 32 1 -6
BITMAP
C0
F0
F8
78
38
38
38
38
38
38
38
38
3C
1C
1F
0F
1F
1E
3C
38
38
38
38
38
38
38
38
38
78
F8
F0
C0
ENDCHAR
STARTCHAR 007E
ENCODING 126
SWIDTH 512 0
DWIDTH 16 0
BBX 12 5 2 8
BITMAP
3870
7E70
FFF0
E7E0
E1E0
ENDCHAR
STARTCHAR 00A0
ENCODING 160
SWIDTH 160 0
DWIDTH 5 0
BBX 0 0 0 0
BITMAP
ENDCHAR
STARTCHAR 00A1
ENCODING 161
SWIDTH 224 0
DWIDTH 7 0
BBX 3 22 2 -6
BITMAP
E0
E0
E0
00
00
00
E0
E0
E0
E0
E0
E0
E0
E0
E0
E0
E0
E0
E0
E0
E0
E0
ENDCHAR
STARTCHAR 00A2
ENCODING 162
SWIDTH 480 0
DWIDTH 15 0
BBX 12 20 2 -2
BITMAP
0700
0700
0F80
3FE0
7FF0
7FE0
F740
E700
E700
E700
E700
E700
E700
E700
7740
7FF0
3FE0
0F80
0700
0700
ENDCHAR
STARTCHAR 00A3
ENCODING 163
SWIDTH 576 0
DWIDTH 18 0
BBX 16 22 1 0
BITMAP
03F0
07FC
0FFE
1E1F
1C0F
1C07
1C07
1C00
1C00
1C00
1C00
1C00
7FF0
7FF0
1C00
1C00
1C00
1C00
3800
FFFF
FFFF
FFFF
ENDCHAR
STARTCHAR 00A4
ENCODING 164
SWIDTH 576 0
DWIDTH 18 0
BBX 14 15 2 3
BITMAP
4018
EFFC
FFFC
7FF8
7878
7038
7038
7038
7038
7038
7878
7FF8
FFFC
EFFC
4018
ENDCHAR
STARTCHAR 00A5
ENCODING 165
SWIDTH 512 0
DWIDTH 16 0
BBX 16 22 0 0
BITMAP
E00F
F00E
701E
781C
383C
3C38
1C38
1E70
0E70
0FE0
07E0
07C0
03C0
0380
1FF8
1FF8
0380
0380
1FF8
1FF8
0380
0380
ENDCHAR
STARTCHAR 00A6
ENCODING 166
SWIDTH 288 0
DWIDTH 9 0
BBX 3 28 3 -3
BITMAP
E0
E0
E0
E0
E0
E0
E0
E0
E0
E0
E0
00
00
00
00
00
00
00
E0
E0
E0
E0
E0
E0
E0
E0
E0
E0
ENDCHAR
STARTCHAR 00A7
ENCODING 167
SWIDTH 576 0
DWIDTH 18 0
BBX 14 25 2 -3
BITMAP
0FC0
3FF8
7FF8
7830
7000
7000
7800
7F00
3FF0
7FF8
F1FC
E01C
E01C
E01C
F01C
FFFC
3FF8
07F8
0078
0038
4038
7078
FFF8
7FF0
1FC0
ENDCHAR
STARTCHAR 00A8
ENCODING 168
SWIDTH 384 0
DWIDTH 12 0
BBX 10 3 1 19
BITMAP
E1C0
E1C0
E1C0
ENDCHAR
STARTCHAR 00A9
ENCODING 169
SWIDTH 704 0
DWIDTH 22 0
BBX 18 19 2 5
BITMAP
07F000
1FFC00
3E1F00
780700
71E380
E3F980
E7F1C0
C601C0
C601C0
C601C0
C601C0
C711C0
E7F1C0
E3F980
71E380
780700
3FFF00
1FFC00
07F000
ENDCHAR
STARTCHAR 00AA
ENCODING 170
SWIDTH 352 0
DWIDTH 11 0
BBX 7 10 2 12
BITMAP
7C
FE
46
06
7E
FE
C6
C6
FE
7E
ENDCHAR
STARTCHAR 00AB
ENCODING 171
SWIDTH 512 0
DWIDTH 16 0
BBX 14 11 1 2
BITMAP
0F3C
1E78
3CF0
79E0
F1C0
E380
F1C0
79E0
3CF0
1E78
0F3C
ENDCHAR
STARTCHAR 00AC
ENCODING 172
SWIDTH 512 0
DWIDTH 16 0
BBX 12 7 2 6
BITMAP
FFF0
FFF0
FFF0
0070
0070
0070
0070
ENDCHAR
STARTCHAR 00AD
ENCODING 173
SWIDTH 480 0
DWIDTH 15 0
BBX 11 3 2 6
BITMAP
FFE0
FFE0
FFE0
ENDCHAR
STARTCHAR 00AE
ENCODING 174
SWIDTH 704 0
DWIDTH 22 0
BBX 18 19 2 5
BITMAP
07F000
1FFC00
3E1F00
780700
700380
E7E180
E7F1C0
C639C0
C639C0
C7F9C0
C7F1C0
C671C0
E631C0
E63980
700380
780700
3FFF00
1FFC00
07F000
ENDCHAR
STARTCHAR 00AF
ENCODING 175
SWIDTH 416 0
DWIDTH 13 0
BBX 11 3 1 19
BITMAP
FFE0
FFE0
FFE0
ENDCHAR
STARTCHAR 00B0
ENCODING 176
SWIDTH 352 0
DWIDTH 11 0
BBX 9 9 1 13
BITMAP
3E00
7F00
7F80
E380
E380
E380
7F80
7F00
3E00
ENDCHAR
STARTCHAR 00B1
ENCODING 177
SWIDTH 512 0
DWIDTH 16 0
BBX 12 13 2 4
BITMAP
0700
0700
0700
0700
FFF0
FFF0
FFF0
0700
0700
0700
FFF0
FFF0
FFF0
ENDCHAR
STARTCHAR 00B2
ENCODING 178
SWIDTH 320 0
DWIDTH 10 0
BBX 6 9 2 13
BITMAP
78
FC
CC
0C
1C
38
60
FC
FC
ENDCHAR
STARTCHAR 00B3
ENCODING 179
SWIDTH 320 0
DWIDTH 10 0
BBX 7 10 2 12
BITMAP
7C
FE
CE
0E
3C
3C
0E
CE
FE
7C
ENDCHAR
STARTCHAR 00B4
ENCODING 180
SWIDTH 288 0
DWIDTH 9 0
BBX 6 7 1 19
BITMAP
08
1C
1C
38
70
F0
20
ENDCHAR
STARTCHAR 00B5
ENCODING 181
SWIDTH 576 0
DWIDTH 18 0
BBX 15 20 2 -4
BITMAP
F038
F038
F038
F038
F038
F038
F038
F038
F038
F038
F038
F038
F878
FFFE
EFDE
E78E
E000
E000
E000
F000
ENDCHAR
STARTCHAR 00B6
ENCODING 182
SWIDTH 672 0
DWIDTH 21 0
BBX 19 26 1 -4
BITMAP
0FFFE0
1FFFE0
3FFFE0
7FF380
7FF380
FFF380
FFF380
FFF380
FFF380
FFF380
7FF380
7FF380
3FF380
1FF380
07F380
007380
007380
007380
007380
007380
007380
007380
007380
007380
007380
007380
ENDCHAR
STARTCHAR 00B7
ENCODING 183
SWIDTH 192 0
DWIDTH 6 0
BBX 3 3 2 6
BITMAP
E0
E0
E0
ENDCHAR
STARTCHAR 00B8
ENCODING 184
SWIDTH 288 0
DWIDTH 9 0
BBX 7 8 1 -7
BITMAP
70
70
78
7C
0E
1E
7C
F8
ENDCHAR
STARTCHAR 00B9
ENCODING 185
SWIDTH 256 0
DWIDTH 8 0
BBX 4 9 2 13
BITMAP
70
F0
F0
30
30
30
30
30
30
ENDCHAR
STARTCHAR 00BA
ENCODING 186
SWIDTH 352 0
DWIDTH 11 0
BBX 7 10 2 12
BITMAP
78
FE
EE
C6
C6
C6
C6
EE
FE
78
ENDCHAR
STARTCHAR 00BB
ENCODING 187
SWIDTH 512 0
DWIDTH 16 0
BBX 14 11 1 2
BITMAP
E3C0
71C0
38E0
1C70
1E38
0F3C
1E38
1C70
38E0
71C0
E3C0
ENDCHAR
STARTCHAR 00BC
ENCODING 188
SWIDTH 672 0
DWIDTH 21 0
BBX 18 22 2 0
BITMAP
700E00
F00C00
F01C00
301800
303800
303000
307000
30E000
30E000
01C000
01C000
038000
030000
070600
060E00
0E0C00
0C1C00
1C1D80
381980
383FC0
703FC0
700180
ENDCHAR
STARTCHAR 00BD
ENCODING 189
SWIDTH 672 0
DWIDTH 21 0
BBX 18 22 2 0
BITMAP
700E00
F00C00
F01C00
301800
303800
303000
307000
30E000
30E000
01C000
01C000
038000
030F00
071F80
061D80
0E01C0
0C0380
1C0300
380F00
381E00
701FC0
701FC0
ENDCHAR
STARTCHAR 00BE
ENCODING 190
SWIDTH 704 0
DWIDTH 22 0
BBX 18 22 2 0
BITMAP
7C0380
FE0700
CE0600
1E0E00
380C00
0E1C00
CE1800
FE3800
7C7000
007000
00E000
00E000
01C000
018700
038600
030E00
070E00
060DC0
0E1DC0
1C1FC0
1C1FC0
3801C0
ENDCHAR
STARTCHAR 00BF
ENCODING 191
SWIDTH 416 0
DWIDTH 13 0
BBX 12 22 1 -6
BITMAP
0700
0700
0700
0000
0000
0000
0700
0700
0F00
0E00
1E00
1C00
3800
7800
7000
F000
F070
F0F0
70E0
7FE0
3FC0
1F80
ENDCHAR
STARTCHAR 00C0
ENCODING 192
SWIDTH 640 0
DWIDTH 20 0
BBX 18 29 1 0
BITMAP
020000
070000
078000
03C000
01C000
008000
000000
00E000
01E000
01E000
03F000
03F000
03F000
073800
073800
073800
0E1C00
0E1C00
1E0E00
1C0E00
1C0E00
3FFF00
3FFF00
3FFF00
780380
700380
7003C0
E001C0
E001C0
ENDCHAR
STARTCHAR 00C1
ENCODING 193
SWIDTH 640 0
DWIDTH 20 0
BBX 18 29 1 1
BITMAP
001800
003C00
007800
00F000
00E000
000000
000000
00E000
01E000
01E000
03F000
03F000
03F000
073800
073800
073800
0E1C00
0E1C00
1E0E00
1C0E00
1C0E00
3FFF00
3FFF00
3FFF00
780380
700380
7003C0
E001C0
E001C0
ENDCHAR
STARTCHAR 00C2
ENCODING 194
SWIDTH 640 0
DWIDTH 20 0
BBX 18 28 1 1
BITMAP
00C000
03F000
07F800
073800
000000
000000
00E000
01E000
01E000
03F000
03F000
03F000
073800
073800
073800
0E1C00
0E1C00
1E0E00
1C0E00
1C0E00
3FFF00
3FFF00
3FFF00
780380
700380
7003C0
E001C0
E001C0
ENDCHAR
STARTCHAR 00C3
ENCODING 195
SWIDTH 640 0
DWIDTH 20 0
BBX 18 28 1 0
BITMAP
000E00
0FCE00
1FFE00
1CFC00
1C0000
000000
00E000
01E000
01E000
03F000
03F000
03F000
073800
073800
073800
0E1C00
0E1C00
1E0E00
1C0E00
1C0E00
3FFF00
3FFF00
3FFF00
780380
700380
7003C0
E001C0
E001C0
ENDCHAR
STARTCHAR 00C4
ENCODING 196
SWIDTH 640 0
DWIDTH 20 0
BBX 18 27 1 0
BITMAP
0E1C00
0E1C00
0E1C00
000000
000000
00E000
01E000
01E000
03F000
03F000
03F000
073800
073800
073800
0E1C00
0E1C00
1E0E00
1C0E00
1C0E00
3FFF00
3FFF00
3FFF00
780380
700380
7003C0
E001C0
E001C0
ENDCHAR
STARTCHAR 00C5
ENCODING 197
SWIDTH 640 0
DWIDTH 20 0
BBX 18 29 1 0
BITMAP
01E000
03F000
073800
071800
073800
03F000
01F000
01E000
01E000
01E000
03F000
03F000
03B000
073800
073800
071C00
0E1C00
0E1C00
1E0E00
1C0E00
1C0E00
3FFF00
3FFF00
3FFF00
700380
700380
7003C0
E001C0
E001C0
ENDCHAR
STARTCHAR 00C6
ENCODING 198
SWIDTH 960 0
DWIDTH 30 0
BBX 29 22 0 0
BITMAP
000FFFF8
001FFFF8
001FFFF8
003FC000
003BC000
007BC000
0073C000
00E3C000
01E3C000
01C3C000
03C3FFE0
0383FFE0
0783FFE0
0703C000
0FFFC000
0FFFC000
1FFFC000
3C03C000
3803C000
7803FFF8
7003FFF8
F003FFF8
ENDCHAR
STARTCHAR 00C7
ENCODING 199
SWIDTH 608 0
DWIDTH 19 0
BBX 15 29 2 -7
BITMAP
07E0
1FF0
3FF8
7C3C
781E
700E
F00E
E000
E000
E000
E000
E000
E000
E000
E000
F00E
700E
781E
7C3C
3FF8
1FF0
07E0
0380
0380
03E0
01E0
0070
03E0
07C0
ENDCHAR
STARTCHAR 00C8
ENCODING 200
SWIDTH 608 0
DWIDTH 19 0
BBX 14 29 3 0
BITMAP
0800
1C00
1E00
0F00
0700
0200
0000
FFFC
FFFC
FFFC
E000
E000
E000
E000
E000
E000
E000
FFF0
FFF0
FFF0
E000
E000
E000
E000
E000
E000
FFFC
FFFC
FFFC
ENDCHAR
STARTCHAR 00C9
ENCODING 201
SWIDTH 608 0
DWIDTH 19 0
BBX 14 29 3 1
BITMAP
0060
00F0
01E0
03C0
0380
0000
0000
FFFC
FFFC
FFFC
E000
E000
E000
E000
E000
E000
E000
FFF0
FFF0
FFF0
E000
E000
E000
E000
E000
E000
FFFC
FFFC
FFFC
ENDCHAR
STARTCHAR 00CA
ENCODING 202
SWIDTH 608 0
DWIDTH 19 0
BBX 14 28 3 1
BITMAP
0300
0FC0
1FE0
1CE0
0000
0000
FFFC
FFFC
FFFC
E000
E000
E000
E000
E000
E000
E000
FFF0
FFF0
FFF0
E000
E000
E000
E000
E000
E000
FFFC
FFFC
FFFC
ENDCHAR
STARTCHAR 00CB
ENCODING 203
SWIDTH 608 0
DWIDTH 19 0
BBX 14 27 3 0
BITMAP
3C70
3C70
3C70
0000
0000
FFFC
FFFC
FFFC
E000
E000
E000
E000
E000
E000
E000
FFF0
FFF0
FFF0
E000
E000
E000
E000
E000
E000
FFFC
FFFC
FFFC
ENDCHAR
STARTCHAR 00CC
ENCODING 204
SWIDTH 288 0
DWIDTH 9 0
BBX 6 29 0 0
BITMAP
40
E0
F0
78
38
00
00
1C
1C
1C
1C
1C
1C
1C
1C
1C
1C
1C
1C
1C
1C
1C
1C
1C
1C
1C
1C
1C
1C
ENDCHAR
STARTCHAR 00CD
ENCODING 205
SWIDTH 288 0
DWIDTH 9 0
BBX 6 29 3 1
BITMAP
18
3C
78
F0
60
00
00
E0
E0
E0
E0
E0
E0
E0
E0
E0
E0
E0
E0
E0
E0
E0
E0
E0
E0
E0
E0
E0
E0
ENDCHAR
STARTCHAR 00CE
ENCODING 206
SWIDTH 288 0
DWIDTH 9 0
BBX 8 28 0 1
BITMAP
1C
7E
FF
E3
00
00
1C
1C
1C
1C
1C
1C
1C
1C
1C
1C
1C
1C
1C
1C
1C
1C
1C
1C
1C
1C
1C
1C
ENDCHAR
STARTCHAR 00CF
ENCODING 207
SWIDTH 288 0
DWIDTH 9 0
BBX 9 27 0 0
BITMAP
E380
E380
E380
0000
0000
1C00
1C00
1C00
1C00
1C00
1C00
1C00
1C00
1C00
1C00
1C00
1C00
1C00
1C00
1C00
1C00
1C00
1C00
1C00
1C00
1C00
1C00
ENDCHAR
STARTCHAR 00D0
ENCODING 208
SWIDTH 672 0
DWIDTH 21 0
BBX 18 22 1 0
BITMAP
3FF800
3FFE00
3FFF00
3C0F80
3C0780
3C03C0
3C03C0
3C01C0
3C01C0
FFC1C0
FFC1C0
FFC1C0
3C01C0
3C01C0
3C01C0
3C03C0
3C03C0
3C0780
3C0F80
3FFF00
3FFE00
3FF800
ENDCHAR
STARTCHAR 00D1
ENCODING 209
SWIDTH 704 0
DWIDTH 22 0
BBX 16 28 3 0
BITMAP
000C
1F9C
3FFC
39F8
3800
0000
E007
E007
F007
F807
F807
FC07
FE07
EE07
E707
E787
E387
E3C7
E1C7
E0E7
E0F7
E077
E03F
E03F
E01F
E00F
E00F
E007
ENDCHAR
STARTCHAR 00D2
ENCODING 210
SWIDTH 640 0
DWIDTH 20 0
BBX 16 29 2 0
BITMAP
0400
0E00
0F00
0780
0380
0100
0000
07E0
1FF8
3FFC
7C3E
781E
700E
F00F
E007
E007
E007
E007
E007
E007
E007
E007
F00F
700E
781E
7C3E
3FFC
1FF8
07E0
ENDCHAR
STARTCHAR 00D3
ENCODING 211
SWIDTH 640 0
DWIDTH 20 0
BBX 16 29 2 0
BITMAP
0020
0070
00F0
01E0
01C0
0080
0000
07E0
1FF8
3FFC
7C3E
781E
700E
F00F
E007
E007
E007
E007
E007
E007
E007
E007
F00F
700E
781E
7C3E
3FFC
1FF8
07E0
ENDCHAR
STARTCHAR 00D4
ENCODING 212
SWIDTH 640 0
DWIDTH 20 0
BBX 16 28 2 0
BITMAP
0180
03C0
0FF0
0E70
0000
0000
07E0
1FF8
3FFC
7C3E
781E
700E
F00F
E007
E007
E007
E007
E007
E007
E007
E007
F00F
700E
781E
7C3E
3FFC
1FF8
07E0
ENDCHAR
STARTCHAR 00D5
ENCODING 213
SWIDTH 640 0
DWIDTH 20 0
BBX 16 27 2 0
BITMAP
1F9C
3FFC
3FF8
3870
0000
07E0
1FF8
3FFC
7C3E
781E
700E
F00F
E007
E007
E007
E007
E007
E007
E007
E007
F00F
700E
781E
7C3E
3FFC
1FF8
07E0
ENDCHAR
STARTCHAR 00D6
ENCODING 214
SWIDTH 640 0
DWIDTH 20 0
BBX 16 27 2 0
BITMAP
1C38
1C38
1C38
1C38
0000
07E0
1FF8
3FFC
7C3E
781E
700E
F00F
E007
E007
E007
E007
E007
E007
E007
E007
F00F
700E
781E
7C3E
3FFC
1FF8
07E0
ENDCHAR
STARTCHAR 00D7
ENCODING 215
SWIDTH 512 0
DWIDTH 16 0
BBX 11 12 2 4
BITMAP
2040
70E0
71E0
3BC0
3F80
1F00
1F00
3F80
7FC0
F9E0
70E0
2040
ENDCHAR
STARTCHAR 00D8
ENCODING 216
SWIDTH 640 0
DWIDTH 20 0
BBX 16 26 2 -2
BITMAP
0006
000E
07EC
1FFC
3FFC
7C3E
783E
703E
F06F
E067
E0C7
E0C7
E1C7
E187
E387
E307
E707
F60F
7E0E
7C1E
7C3E
3FFC
3FF8
37E0
7000
6000
ENDCHAR
STARTCHAR 00D9
ENCODING 217
SWIDTH 640 0
DWIDTH 20 0
BBX 16 29 2 0
BITMAP
0400
0E00
0F00
0780
0380
0100
0000
F007
F007
F007
F007
F007
F007
F007
F007
F007
F007
F007
F007
F007
F007
F007
7007
700F
780E
7C3E
3FFC
1FF8
07E0
ENDCHAR
STARTCHAR 00DA
ENCODING 218
SWIDTH 640 0
DWIDTH 20 0
BBX 16 29 2 1
BITMAP
0030
0078
00F0
01E0
00C0
0000
0000
F007
F007
F007
F007
F007
F007
F007
F007
F007
F007
F007
F007
F007
F007
F007
7007
700F
780E
7C3E
3FFC
1FF8
07E0
ENDCHAR
STARTCHAR 00DB
ENCODING 219
SWIDTH 640 0
DWIDTH 20 0
BBX 16 28 2 1
BITMAP
0180
07E0
0FF0
0E30
0000
0000
F007
F007
F007
F007
F007
F007
F007
F007
F007
F007
F007
F007
F007
F007
F007
7007
700F
780E
7C3E
3FFC
1FF8
07E0
ENDCHAR
STARTCHAR 00DC
ENCODING 220
SWIDTH 640 0
DWIDTH 20 0
BBX 16 27 2 0
BITMAP
0E38
0E38
0E38
0000
0000
F007
F007
F007
F007
F007
F007
F007
F007
F007
F007
F007
F007
F007
F007
F007
7007
700F
780E
7C3E
3FFC
1FF8
07E0
ENDCHAR
STARTCHAR 00DD
ENCODING 221
SWIDTH 512 0
DWIDTH 16 0
BBX 16 29 0 1
BITMAP
0060
00F0
01F0
03C0
0180
0000
0000
E00F
F00E
701E
781C
383C
3C38
1C78
1E70
0EF0
0FE0
07E0
07C0
03C0
0380
0380
0380
0380
0380
0380
0380
0380
0380
ENDCHAR
STARTCHAR 00DE
ENCODING 222
SWIDTH 608 0
DWIDTH 19 0
BBX 15 22 3 0
BITMAP
E000
E000
E000
E000
FFE0
FFF8
FFFC
E03C
E01E
E00E
E00E
E00E
E01E
E03C
FFFC
FFF8
FFE0
E000
E000
E000
E000
E000
ENDCHAR
STARTCHAR 00DF
ENCODING 223
SWIDTH 544 0
DWIDTH 17 0
BBX 13 22 2 0
BITMAP
0FC0
3FF0
7FF0
7878
7038
F038
F078
F1F0
F1C0
F1F0
F038
F038
F038
F038
F038
F038
F038
F038
F038
F1F8
F1F0
F1E0
ENDCHAR
STARTCHAR 00E0
ENCODING 224
SWIDTH 544 0
DWIDTH 17 0
BBX 12 26 2 0
BITMAP
1000
3000
3800
3C00
1E00
0F00
0600
0000
0000
0000
1F80
7FE0
7FE0
20F0
0070
0070
07F0
7FF0
FFF0
E070
E070
E070
E070
FFF0
7FF0
3F70
ENDCHAR
STARTCHAR 00E1
ENCODING 225
SWIDTH 544 0
DWIDTH 17 0
BBX 12 25 2 1
BITMAP
00C0
01E0
03C0
0780
0700
0200
0000
0000
0000
1F80
7FE0
7FE0
20F0
0070
0070
07F0
7FF0
FFF0
E070
E070
E070
E070
FFF0
7FF0
3F70
ENDCHAR
STARTCHAR 00E2
ENCODING 226
SWIDTH 544 0
DWIDTH 17 0
BBX 12 24 2 1
BITMAP
0700
0F80
1FC0
39E0
30C0
0000
0000
0000
1F80
7FE0
7FE0
20F0
0070
0070
07F0
7FF0
FFF0
E070
E070
E070
E070
FFF0
7FF0
3F70
ENDCHAR
STARTCHAR 00E3
ENCODING 227
SWIDTH 544 0
DWIDTH 17 0
BBX 12 23 2 0
BITMAP
3C60
7FE0
7FE0
63C0
0000
0000
0000
1F80
7FE0
7FE0
20F0
0070
0070
07F0
7FF0
FFF0
E070
E070
E070
E070
FFF0
7FF0
3F70
ENDCHAR
STARTCHAR 00E4
ENCODING 228
SWIDTH 544 0
DWIDTH 17 0
BBX 12 22 2 0
BITMAP
78E0
78E0
78E0
0000
0000
0000
1F80
7FE0
7FE0
20F0
0070
0070
07F0
7FF0
FFF0
E070
E070
E070
E070
FFF0
7FF0
3F70
ENDCHAR
STARTCHAR 00E5
ENCODING 229
SWIDTH 544 0
DWIDTH 17 0
BBX 12 26 2 0
BITMAP
0700
1F80
19C0
38C0
38C0
1FC0
0F80
0000
0000
0000
1F80
7FE0
7FE0
20F0
0070
0070
07F0
7FF0
FFF0
E070
E070
E070
E070
FFF0
7FF0
3F70
ENDCHAR
STARTCHAR 00E6
ENCODING 230
SWIDTH 832 0
DWIDTH 26 0
BBX 22 16 2 0
BITMAP
1F07C0
7FCFF0
7FDFF8
20F838
00781C
00701C
07F01C
7FFFFC
FFFFFC
E07000
E07000
E07800
E0F818
FFDFFC
7FCFF8
3F03E0
ENDCHAR
STARTCHAR 00E7
ENCODING 231
SWIDTH 480 0
DWIDTH 15 0
BBX 12 22 2 -6
BITMAP
0F80
3FE0
7FF0
7870
F020
E000
E000
E000
E000
E000
E000
F020
7870
7FF0
3FE0
0FC0
0600
0780
07C0
01C0
0FC0
0F80
ENDCHAR
STARTCHAR 00E8
ENCODING 232
SWIDTH 544 0
DWIDTH 17 0
BBX 13 26 2 0
BITMAP
1000
3800
3800
1C00
0E00
0F00
0600
0000
0000
0000
0F80
3FE0
7FE0
7070
E070
E038
E038
FFF8
FFF8
E000
E000
F000
7860
7FF0
3FF0
0FC0
ENDCHAR
STARTCHAR 00E9
ENCODING 233
SWIDTH 544 0
DWIDTH 17 0
BBX 13 25 2 1
BITMAP
00E0
01E0
03C0
0380
0700
0200
0000
0000
0000
0F80
3FE0
7FE0
7070
E070
E038
E038
FFF8
FFF8
E000
E000
F000
7860
7FF0
3FF0
0FC0
ENDCHAR
STARTCHAR 00EA
ENCODING 234
SWIDTH 544 0
DWIDTH 17 0
BBX 13 25 2 0
BITMAP
0200
0700
0F80
1FC0
38E0
1040
0000
0000
0000
0F80
3FE0
7FE0
7070
E070
E038
E038
FFF8
FFF8
E000
E000
F000
7860
7FF0
3FF0
0FC0
ENDCHAR
STARTCHAR 00EB
ENCODING 235
SWIDTH 544 0
DWIDTH 17 0
BBX 13 22 2 0
BITMAP
38E0
38E0
38E0
0000
0000
0000
0F80
3FE0
7FE0
7070
E070
E038
E038
FFF8
FFF8
E000
E000
F000
7860
7FF0
3FF0
0FC0
ENDCHAR
STARTCHAR 00EC
ENCODING 236
SWIDTH 256 0
DWIDTH 8 0
BBX 7 26 -1 0
BITMAP
20
E0
70
78
3C
1C
08
00
00
00
1E
1E
1E
1E
1E
1E
1E
1E
1E
1E
1E
1E
1E
1E
1E
1E
ENDCHAR
STARTCHAR 00ED
ENCODING 237
SWIDTH 256 0
DWIDTH 8 0
BBX 6 26 2 0
BITMAP
08
1C
1C
38
70
F0
20
00
00
00
F0
F0
F0
F0
F0
F0
F0
F0
F0
F0
F0
F0
F0
F0
F0
F0
ENDCHAR
STARTCHAR 00EE
ENCODING 238
SWIDTH 256 0
DWIDTH 8 0
BBX 10 25 -1 0
BITMAP
0C00
1E00
3F00
7F80
F3C0
4180
0000
0000
0000
1E00
1E00
1E00
1E00
1E00
1E00
1E00
1E00
1E00
1E00
1E00
1E00
1E00
1E00
1E00
1E00
ENDCHAR
STARTCHAR 00EF
ENCODING 239
SWIDTH 256 0
DWIDTH 8 0
BBX 10 22 -1 0
BITMAP
E1C0
E1C0
E1C0
0000
0000
0000
1E00
1E00
1E00
1E00
1E00
1E00
1E00
1E00
1E00
1E00
1E00
1E00
1E00
1E00
1E00
1E00
ENDCHAR
STARTCHAR 00F0
ENCODING 240
SWIDTH 544 0
DWIDTH 17 0
BBX 12 22 2 0
BITMAP
0F70
0FF0
3FE0
3DC0
01C0
00E0
1E60
3FF0
7FF0
F0F0
E070
E070
E070
E070
E070
E070
E070
E070
F0F0
7FE0
3FE0
1F80
ENDCHAR
STARTCHAR 00F1
ENCODING 241
SWIDTH 544 0
DWIDTH 17 0
BBX 13 23 2 0
BITMAP
3E70
3FF0
7FE0
70C0
0000
0000
0000
F3C0
FFE0
FFF0
F878
F078
F038
F038
F038
F038
F038
F038
F038
F038
F038
F038
F038
ENDCHAR
STARTCHAR 00F2
ENCODING 242
SWIDTH 544 0
DWIDTH 17 0
BBX 13 26 2 0
BITMAP
1000
3800
3C00
1C00
0E00
0700
0600
0000
0000
0000
0F80
3FE0
7FF0
78F0
F078
E038
E038
E038
E038
E038
E038
F078
78F0
7FF0
3FE0
0F80
ENDCHAR
STARTCHAR 00F3
ENCODING 243
SWIDTH 544 0
DWIDTH 17 0
BBX 13 25 2 1
BITMAP
00E0
01E0
01C0
0380
0700
0200
0000
0000
0000
0F80
3FE0
7FF0
78F0
F078
E038
E038
E038
E038
E038
E038
F078
78F0
7FF0
3FE0
0F80
ENDCHAR
STARTCHAR 00F4
ENCODING 244
SWIDTH 544 0
DWIDTH 17 0
BBX 13 25 2 0
BITMAP
0200
0700
0F80
1FC0
38E0
1040
0000
0000
0000
0F80
3FE0
7FF0
78F0
F078
E038
E038
E038
E038
E038
E038
F078
78F0
7FF0
3FE0
0F80
ENDCHAR
STARTCHAR 00F5
ENCODING 245
SWIDTH 544 0
DWIDTH 17 0
BBX 13 23 2 0
BITMAP
3C70
3FF0
7FE0
71E0
0000
0000
0000
0F80
3FE0
7FF0
78F0
F078
E038
E038
E038
E038
E038
E038
F078
78F0
7FF0
3FE0
0F80
ENDCHAR
STARTCHAR 00F6
ENCODING 246
SWIDTH 544 0
DWIDTH 17 0
BBX 13 22 2 0
BITMAP
38E0
38E0
38E0
0000
0000
0000
0F80
3FE0
7FF0
78F0
F078
E038
E038
E038
E038
E038
E038
F078
78F0
7FF0
3FE0
0F80
ENDCHAR
STARTCHAR 00F7
ENCODING 247
SWIDTH 480 0
DWIDTH 15 0
BBX 11 11 2 5
BITMAP
0E00
0E00
0E00
0000
FFE0
FFE0
FFE0
0000
0E00
0E00
0E00
ENDCHAR
STARTCHAR 00F8
ENCODING 248
SWIDTH 544 0
DWIDTH 17 0
BBX 13 20 2 -2
BITMAP
0030
0060
0FE0
3FE0
7FF0
79F0
F1F8
E1B8
E338
E338
E638
E638
EE38
FC78
7CF0
7FF0
3FE0
3F80
3000
7000
ENDCHAR
STARTCHAR 00F9
ENCODING 249
SWIDTH 544 0
DWIDTH 17 0
BBX 13 26 2 0
BITMAP
1000
3800
3C00
1E00
0E00
0700
0200
0000
0000
0000
F038
F038
F038
F038
F038
F038
F038
F038
F038
F038
F038
7038
7878
7FF8
3FB8
1F38
ENDCHAR
STARTCHAR 00FA
ENCODING 250
SWIDTH 544 0
DWIDTH 17 0
BBX 13 26 2 0
BITMAP
0040
00E0
01E0
03C0
0380
0700
0200
0000
0000
0000
F038
F038
F038
F038
F038
F038
F038
F038
F038
F038
F038
7038
7878
7FF8
3FB8
1F38
ENDCHAR
STARTCHAR 00FB
ENCODING 251
SWIDTH 544 0
DWIDTH 17 0
BBX 13 25 2 0
BITMAP
0200
0700
0F80
1DC0
38E0
1040
0000
0000
0000
F038
F038
F038
F038
F038
F038
F038
F038
F038
F038
F038
7038
7878
7FF8
3FB8
1F38
ENDCHAR
STARTCHAR 00FC
ENCODING 252
SWIDTH 544 0
DWIDTH 17 0
BBX 13 22 2 0
BITMAP
38E0
38E0
38E0
0000
0000
0000
F038
F038
F038
F038
F038
F038
F038
F038
F038
F038
F038
7038
7878
7FF8
3FB8
1F38
ENDCHAR
STARTCHAR 00FD
ENCODING 253
SWIDTH 480 0
DWIDTH 15 0
BBX 14 32 1 -6
BITMAP
0040
00E0
00E0
01C0
0380
0700
0100
0000
0000
0000
E03C
E038
7038
7070
7070
3870
38E0
1CE0
1CE0
1DC0
0FC0
0FC0
0F80
0780
0780
0700
0700
0700
0E00
3E00
3E00
3C00
ENDCHAR
STARTCHAR 00FE
ENCODING 254
SWIDTH 544 0
DWIDTH 17 0
BBX 13 28 2 -6
BITMAP
F000
F000
F000
F000
F000
F000
F7C0
FFE0
FFF0
F070
F078
F038
F038
F038
F038
F038
F038
F078
F070
FFF0
FFE0
F7C0
F000
F000
F000
F000
F000
F000
ENDCHAR
STARTCHAR 00FF
ENCODING 255
SWIDTH 480 0
DWIDTH 15 0
BBX 14 28 1 -6
BITMAP
3870
3870
3870
0000
0000
0000
E03C
E038
7038
7070
7070
3870
38E0
1CE0
1CE0
1DC0
0FC0
0FC0
0F80
0780
0780
0700
0700
0700
0E00
3E00
3E00
3C00
ENDCHAR
STARTCHAR 0100
ENCODING 256
SWIDTH 640 0
DWIDTH 20 0
BBX 18 27 1 0
BITMAP
1FFE00
1FFE00
1FFE00
000000
000000
00E000
01E000
01E000
03F000
03F000
03F000
073800
073800
073800
0E1C00
0E1C00
1E0E00
1C0E00
1C0E00
3FFF00
3FFF00
3FFF00
780380
700380
7003C0
E001C0
E001C0
ENDCHAR
STARTCHAR 0101
ENCODING 257
SWIDTH 544 0
DWIDTH 17 0
BBX 12 22 2 0
BITMAP
7FF0
7FF0
7FF0
0000
0000
0000
1F80
7FE0
7FE0
20F0
0070
0070
07F0
7FF0
FFF0
E070
E070
E070
E070
FFF0
7FF0
3F70
ENDCHAR
STARTCHAR 0102
ENCODING 258
SWIDTH 640 0
DWIDTH 20 0
BBX 18 28 1 1
BITMAP
0E0C00
0E1C00
07F800
03F000
000000
000000
00E000
01E000
01E000
03F000
03F000
03F000
073800
073800
073800
0E1C00
0E1C00
1E0E00
1C0E00
1C0E00
3FFF00
3FFF00
3FFF00
780380
700380
7003C0
E001C0
E001C0
ENDCHAR
STARTCHAR 0103
ENCODING 259
SWIDTH 544 0
DWIDTH 17 0
BBX 12 24 2 0
BITMAP
30E0
30E0
39E0
3FC0
1F80
0000
0000
0000
1F80
7FE0
7FE0
20F0
0070
0070
07F0
7FF0
FFF0
E070
E070
E070
E070
FFF0
7FF0
3F70
ENDCHAR
STARTCHAR 0104
ENCODING 260
SWIDTH 640 0
DWIDTH 20 0
BBX 18 28 1 -6
BITMAP
00E000
01E000
01E000
03F000
03F000
03F000
073800
073800
073800
0E1C00
0E1C00
1E0E00
1C0E00
1C0E00
3FFF00
3FFF00
3FFF00
780380
700380
7003C0
E001C0
E007C0
000700
000600
000E00
000700
0007C0
0003C0
ENDCHAR
STARTCHAR 0105
ENCODING 261
SWIDTH 544 0
DWIDTH 17 0
BBX 12 23 2 -7
BITMAP
1F80
7FE0
7FE0
20F0
0070
0070
07F0
7FF0
FFF0
E070
E070
E070
E070
FFF0
7FF0
3F70
0030
00E0
00C0
00C0
00F0
00F0
0030
ENDCHAR
STARTCHAR 0106
ENCODING 262
SWIDTH 608 0
DWIDTH 19 0
BBX 15 29 2 0
BITMAP
0020
0070
00F0
01E0
01C0
0080
0000
07E0
1FF0
3FF8
7C3C
781E
700E
F00E
E000
E000
E000
E000
E000
E000
E000
E000
F00E
700E
781E
7C3C
3FF8
1FF0
07E0
ENDCHAR
STARTCHAR 0107
ENCODING 263
SWIDTH 480 0
DWIDTH 15 0
BBX 12 25 2 1
BITMAP
00C0
01E0
03C0
0380
0700
0200
0000
0000
0000
0F80
3FE0
7FF0
7870
F020
E000
E000
E000
E000
E000
E000
F020
7870
7FF0
3FE0
0FC0
ENDCHAR
STARTCHAR 010A
ENCODING 266
SWIDTH 608 0
DWIDTH 19 0
BBX 15 27 2 0
BITMAP
03C0
03C0
03C0
03C0
0000
07E0
1FF0
3FF8
7C3C
781E
700E
F00E
E000
E000
E000
E000
E000
E000
E000
E000
F00E
700E
781E
7C3C
3FF8
1FF0
07E0
ENDCHAR
STARTCHAR 010B
ENCODING 267
SWIDTH 480 0
DWIDTH 15 0
BBX 12 22 2 0
BITMAP
0700
0700
0700
0000
0000
0000
0F80
3FE0
7FF0
7870
F020
E000
E000
E000
E000
E000
E000
F020
7870
7FF0
3FE0
0FC0
ENDCHAR
STARTCHAR 010C
ENCODING 268
SWIDTH 608 0
DWIDTH 19 0
BBX 15 28 2 1
BITMAP
0C70
0FF0
07E0
0180
0000
0000
07E0
1FF0
3FF8
7C3C
781E
700E
F00E
E000
E000
E000
E000
E000
E000
E000
E000
F00E
700E
781E
7C3C
3FF8
1FF0
07E0
ENDCHAR
STARTCHAR 010D
ENCODING 269
SWIDTH 480 0
DWIDTH 15 0
BBX 12 25 2 0
BITMAP
1040
38E0
3DC0
1F80
0F00
0200
0000
0000
0000
0F80
3FE0
7FF0
7870
F020
E000
E000
E000
E000
E000
E000
F020
7870
7FF0
3FE0
0FC0
ENDCHAR
STARTCHAR 010E
ENCODING 270
SWIDTH 640 0
DWIDTH 20 0
BBX 15 28 3 1
BITMAP
1CE0
1FE0
0F80
0300
0000
0000
FFC0
FFF0
FFF8
E07C
E01C
E01E
E00E
E00E
E00E
E00E
E00E
E00E
E00E
E00E
E00E
E00E
E01E
E01E
E07C
FFF8
FFF0
FFC0
ENDCHAR
STARTCHAR 010F
ENCODING 271
SWIDTH 640 0
DWIDTH 20 0
BBX 17 22 2 0
BITMAP
007180
007180
007180
007180
007100
007100
1E7000
7FF000
7FF000
F0F000
E07000
E07000
E07000
E07000
E07000
E07000
E07000
E07000
F0F000
7FF000
7FF000
1F7000
ENDCHAR
STARTCHAR 0110
ENCODING 272
SWIDTH 672 0
DWIDTH 21 0
BBX 18 22 1 0
BITMAP
3FF800
3FFE00
3FFF00
3C0F80
3C0780
3C03C0
3C03C0
3C01C0
3C01C0
FFC1C0
FFC1C0
FFC1C0
3C01C0
3C01C0
3C01C0
3C03C0
3C03C0
3C0780
3C0F80
3FFF00
3FFE00
3FF800
ENDCHAR
STARTCHAR 0111
ENCODING 273
SWIDTH 544 0
DWIDTH 17 0
BBX 14 22 2 0
BITMAP
0070
0070
0FFC
0FFC
0FFC
0070
1E70
7FF0
7FF0
F0F0
E070
E070
E070
E070
E070
E070
E070
E070
F0F0
7FF0
7FF0
1F70
ENDCHAR
STARTCHAR 0112
ENCODING 274
SWIDTH 608 0
DWIDTH 19 0
BBX 14 27 3 0
BITMAP
3FF8
3FF8
3FF8
0000
0000
FFFC
FFFC
FFFC
E000
E000
E000
E000
E000
E000
E000
FFF0
FFF0
FFF0
E000
E000
E000
E000
E000
E000
FFFC
FFFC
FFFC
ENDCHAR
STARTCHAR 0113
ENCODING 275
SWIDTH 544 0
DWIDTH 17 0
BBX 13 22 2 0
BITMAP
7FF0
7FF0
7FF0
0000
0000
0000
0F80
3FE0
7FE0
7070
E070
E038
E038
FFF8
FFF8
E000
E000
F000
7860
7FF0
3FF0
0FC0
ENDCHAR
STARTCHAR 0116
ENCODING 278
SWIDTH 608 0
DWIDTH 19 0
BBX 14 27 3 0
BITMAP
0380
0380
0380
0000
0000
FFFC
FFFC
FFFC
E000
E000
E000
E000
E000
E000
E000
FFF0
FFF0
FFF0
E000
E000
E000
E000
E000
E000
FFFC
FFFC
FFFC
ENDCHAR
STARTCHAR 0117
ENCODING 279
SWIDTH 544 0
DWIDTH 17 0
BBX 13 22 2 0
BITMAP
0700
0700
0700
0000
0000
0000
0F80
3FE0
7FE0
7070
E070
E038
E038
FFF8
FFF8
E000
E000
F000
7860
7FF0
3FF0
0FC0
ENDCHAR
STARTCHAR 0118
ENCODING 280
SWIDTH 608 0
DWIDTH 19 0
BBX 14 29 3 -7
BITMAP
FFFC
FFFC
FFFC
E000
E000
E000
E000
E000
E000
E000
FFF0
FFF0
FFF0
E000
E000
E000
E000
E000
E000
FFFC
FFFC
FFFC
00E0
00E0
00E0
00E0
00FC
007C
001C
ENDCHAR
STARTCHAR 0119
ENCODING 281
SWIDTH 544 0
DWIDTH 17 0
BBX 13 22 2 -6
BITMAP
0F80
3FE0
7FE0
70F0
E070
E038
E038
FFF8
FFF8
E000
E000
F000
7860
7FF0
3FF0
0FE0
00C0
01C0
01C0
01E0
00F0
00F0
ENDCHAR
STARTCHAR 011A
ENCODING 282
SWIDTH 608 0
DWIDTH 19 0
BBX 14 28 3 1
BITMAP
1CE0
1FE0
07C0
0300
0000
0000
FFFC
FFFC
FFFC
E000
E000
E000
E000
E000
E000
E000
FFF0
FFF0
FFF0
E000
E000
E000
E000
E000
E000
FFFC
FFFC
FFFC
ENDCHAR
STARTCHAR 011B
ENCODING 283
SWIDTH 544 0
DWIDTH 17 0
BBX 13 25 2 0
BITMAP
1040
38E0
3DC0
1F80
0700
0200
0000
0000
0000
0F80
3FE0
7FE0
7070
E070
E038
E038
FFF8
FFF8
E000
E000
F000
7860
7FF0
3FF0
0FC0
ENDCHAR
STARTCHAR 011E
ENCODING 286
SWIDTH 640 0
DWIDTH 20 0
BBX 16 28 2 0
BITMAP
1C18
1C38
0FF8
0FF0
03C0
0000
07E0
1FF0
3FF8
7C3C
781E
700E
F00E
E000
E000
E000
E0FF
E0FF
E0FF
E007
E007
F00F
F00E
701E
7C3E
3FFC
1FF8
07E0
ENDCHAR
STARTCHAR 011F
ENCODING 287
SWIDTH 544 0
DWIDTH 17 0
BBX 12 30 2 -6
BITMAP
3060
30E0
39E0
3FC0
1F80
0000
0000
0000
1E70
7FF0
7FF0
F0F0
E070
E070
E070
E070
E070
E070
E070
E070
F0F0
7FF0
7FF0
1F70
0070
0070
2070
79E0
7FE0
3F80
ENDCHAR
STARTCHAR 0120
ENCODING 288
SWIDTH 640 0
DWIDTH 20 0
BBX 16 27 2 0
BITMAP
01C0
01C0
01C0
01C0
0000
07E0
1FF0
3FF8
7C3C
781E
700E
F00E
E000
E000
E000
E0FF
E0FF
E0FF
E007
E007
F00F
F00E
701E
7C3E
3FFC
1FF8
07E0
ENDCHAR
STARTCHAR 0121
ENCODING 289
SWIDTH 544 0
DWIDTH 17 0
BBX 12 28 2 -6
BITMAP
0700
0700
0700
0000
0000
0000
1E70
7FF0
7FF0
F0F0
E070
E070
E070
E070
E070
E070
E070
E070
F0F0
7FF0
7FF0
1F70
0070
0070
2070
79E0
7FE0
3F80
ENDCHAR
STARTCHAR 0122
ENCODING 290
SWIDTH 640 0
DWIDTH 20 0
BBX 16 29 2 -7
BITMAP
07E0
1FF0
3FF8
7C3C
781E
700E
F00E
E000
E000
E000
E0FF
E0FF
E0FF
E007
E007
F00F
F00E
701E
7C3E
3FFC
1FF8
07E0
0000
0000
01C0
01C0
0180
0100
0200
ENDCHAR
STARTCHAR 0123
ENCODING 291
SWIDTH 544 0
DWIDTH 17 0
BBX 12 30 2 -6
BITMAP
0100
0300
0700
0700
0700
0000
0000
0000
1E70
7FF0
7FF0
F0F0
E070
E070
E070
E070
E070
E070
E070
E070
F0F0
7FF0
7FF0
1F70
0070
0070
60F0
FFE0
7FC0
1F80
ENDCHAR
STARTCHAR 0126
ENCODING 294
SWIDTH 736 0
DWIDTH 23 0
BBX 20 22 2 0
BITMAP
3803C0
3803C0
3803C0
3803C0
FFFFF0
FFFFF0
FFFFF0
3803C0
3803C0
3803C0
3FFFC0
3FFFC0
3FFFC0
3803C0
3803C0
3803C0
3803C0
3803C0
3803C0
3803C0
3803C0
3803C0
ENDCHAR
STARTCHAR 0127
ENCODING 295
SWIDTH 576 0
DWIDTH 18 0
BBX 14 22 1 0
BITMAP
3800
FFC0
FFC0
FFC0
3800
3800
39E0
3BF8
3FFC
3C3C
381C
381C
381C
381C
381C
381C
381C
381C
381C
381C
381C
381C
ENDCHAR
STARTCHAR 012A
ENCODING 298
SWIDTH 288 0
DWIDTH 9 0
BBX 11 27 -1 0
BITMAP
FFE0
FFE0
FFE0
0000
0000
0E00
0E00
0E00
0E00
0E00
0E00
0E00
0E00
0E00
0E00
0E00
0E00
0E00
0E00
0E00
0E00
0E00
0E00
0E00
0E00
0E00
0E00
ENDCHAR
STARTCHAR 012B
ENCODING 299
SWIDTH 256 0
DWIDTH 8 0
BBX 12 22 -2 0
BITMAP
FFF0
FFF0
FFF0
0000
0000
0000
0F00
0F00
0F00
0F00
0F00
0F00
0F00
0F00
0F00
0F00
0F00
0F00
0F00
0F00
0F00
0F00
ENDCHAR
STARTCHAR 012E
ENCODING 302
SWIDTH 288 0
DWIDTH 9 0
BBX 6 28 1 -6
BITMAP
38
38
38
38
38
38
38
38
38
38
38
38
38
38
38
38
38
38
38
38
38
78
E0
E0
E0
FC
FC
3C
ENDCHAR
STARTCHAR 012F
ENCODING 303
SWIDTH 256 0
DWIDTH 8 0
BBX 5 28 1 -6
BITMAP
78
78
78
00
00
00
78
78
78
78
78
78
78
78
78
78
78
78
78
78
78
78
30
60
C0
E0
F8
78
ENDCHAR
STARTCHAR 0130
ENCODING 304
SWIDTH 288 0
DWIDTH 9 0
BBX 3 27 3 0
BITMAP
E0
E0
E0
00
00
E0
E0
E0
E0
E0
E0
E0
E0
E0
E0
E0
E0
E0
E0
E0
E0
E0
E0
E0
E0
E0
E0
ENDCHAR
STARTCHAR 0131
ENCODING 305
SWIDTH 256 0
DWIDTH 8 0
BBX 4 16 2 0
BITMAP
F0
F0
F0
F0
F0
F0
F0
F0
F0
F0
F0
F0
F0
F0
F0
F0
ENDCHAR
STARTCHAR 0136
ENCODING 310
SWIDTH 640 0
DWIDTH 20 0
BBX 16 29 3 -7
BITMAP
E01E
E01C
E03C
E078
E0F0
E0E0
E1C0
E3C0
E780
EF80
EFC0
FDC0
F9E0
F8F0
F0F0
E078
E038
E03C
E01E
E01E
E00F
E00F
0000
0000
0380
0380
0380
0300
0200
ENDCHAR
STARTCHAR 0137
ENCODING 311
SWIDTH 512 0
DWIDTH 16 0
BBX 14 29 2 -7
BITMAP
F000
F000
F000
F000
F000
F000
F078
F070
F0E0
F1C0
F3C0
F780
F700
FF80
FFC0
F9C0
F0E0
F0F0
F070
F078
F038
F01C
0000
0000
0700
0700
0700
0600
0400
ENDCHAR
STARTCHAR 0139
ENCODING 313
SWIDTH 576 0
DWIDTH 18 0
BBX 14 29 3 1
BITMAP
1800
3C00
7800
F000
6000
0000
0000
E000
E000
E000
E000
E000
E000
E000
E000
E000
E000
E000
E000
E000
E000
E000
E000
E000
E000
E000
FFFC
FFFC
FFFC
ENDCHAR
STARTCHAR 013A
ENCODING 314
SWIDTH 288 0
DWIDTH 9 0
BBX 6 29 2 1
BITMAP
0C
1C
3C
78
60
00
00
F0
F0
F0
F0
F0
F0
F0
F0
F0
F0
F0
F0
F0
F0
F0
F0
F0
F0
F0
7C
7C
3C
ENDCHAR
STARTCHAR 013B
ENCODING 315
SWIDTH 576 0
DWIDTH 18 0
BBX 14 29 3 -7
BITMAP
E000
E000
E000
E000
E000
E000
E000
E000
E000
E000
E000
E000
E000
E000
E000
E000
E000
E000
E000
FFFC
FFFC
FFFC
0000
0000
0700
0700
0700
0600
0400
ENDCHAR
STARTCHAR 013C
ENCODING 316
SWIDTH 288 0
DWIDTH 9 0
BBX 6 29 2 -7
BITMAP
F0
F0
F0
F0
F0
F0
F0
F0
F0
F0
F0
F0
F0
F0
F0
F0
F0
F0
F0
7C
7C
3C
00
00
70
70
70
60
40
ENDCHAR
STARTCHAR 013D
ENCODING 317
SWIDTH 576 0
DWIDTH 18 0
BBX 14 22 3 0
BITMAP
E018
E018
E018
E018
E010
E010
E000
E000
E000
E000
E000
E000
E000
E000
E000
E000
E000
E000
E000
FFFC
FFFC
FFFC
ENDCHAR
STARTCHAR 013E
ENCODING 318
SWIDTH 352 0
DWIDTH 11 0
BBX 9 22 2 0
BITMAP
F380
F380
F380
F300
F200
F200
F000
F000
F000
F000
F000
F000
F000
F000
F000
F000
F000
F000
F000
7C00
7C00
3C00
ENDCHAR
STARTCHAR 0141
ENCODING 321
SWIDTH 608 0
DWIDTH 19 0
BBX 16 22 2 0
BITMAP
3800
3800
3800
3800
3800
3800
3800
38E0
3BE0
3FE0
7F80
FC00
F800
B800
3800
3800
3800
3800
3800
3FFF
3FFF
3FFF
ENDCHAR
STARTCHAR 0142
ENCODING 322
SWIDTH 288 0
DWIDTH 9 0
BBX 8 22 0 0
BITMAP
3C
3C
3C
3C
3C
3C
3C
3C
3F
3F
7E
FC
FC
BC
3C
3C
3C
3C
3C
1F
1F
0F
ENDCHAR
STARTCHAR 0143
ENCODING 323
SWIDTH 704 0
DWIDTH 22 0
BBX 16 29 3 1
BITMAP
0030
0078
00F0
01E0
01C0
0000
0000
E007
E007
F007
F807
F807
FC07
FE07
EE07
E707
E787
E387
E3C7
E1C7
E0E7
E0F7
E077
E03F
E03F
E01F
E00F
E00F
E007
ENDCHAR
STARTCHAR 0144
ENCODING 324
SWIDTH 544 0
DWIDTH 17 0
BBX 13 26 2 0
BITMAP
0040
00E0
01E0
01C0
0380
0700
0200
0000
0000
0000
F3C0
FFE0
FFF0
F878
F078
F038
F038
F038
F038
F038
F038
F038
F038
F038
F038
F038
ENDCHAR
STARTCHAR 0145
ENCODING 325
SWIDTH 704 0
DWIDTH 22 0
BBX 16 29 3 -7
BITMAP
E007
E007
F007
F807
F807
FC07
FE07
EE07
E707
E787
E387
E3C7
E1C7
E0E7
E0F7
E077
E03F
E03F
E01F
E00F
E00F
E007
0000
0000
01C0
01C0
01C0
0100
0200
ENDCHAR
STARTCHAR 0146
ENCODING 326
SWIDTH 544 0
DWIDTH 17 0
BBX 13 23 2 -7
BITMAP
F3C0
FFE0
FFF0
F878
F078
F038
F038
F038
F038
F038
F038
F038
F038
F038
F038
F038
0000
0000
0700
0700
0700
0600
0400
ENDCHAR
STARTCHAR 0147
ENCODING 327
SWIDTH 704 0
DWIDTH 22 0
BBX 16 28 3 1
BITMAP
0E70
0FF0
03E0
0180
0000
0000
E007
E007
F007
F807
F807
FC07
FE07
EE07
E707
E787
E387
E3C7
E1C7
E0E7
E0F7
E077
E03F
E03F
E01F
E00F
E00F
E007
ENDCHAR
STARTCHAR 0148
ENCODING 328
SWIDTH 544 0
DWIDTH 17 0
BBX 13 25 2 0
BITMAP
1040
38E0
1DC0
0F80
0700
0200
0000
0000
0000
F3C0
FFE0
FFF0
F878
F078
F038
F038
F038
F038
F038
F038
F038
F038
F038
F038
F038
ENDCHAR
STARTCHAR 014A
ENCODING 330
SWIDTH 704 0
DWIDTH 22 0
BBX 16 28 3 -6
BITMAP
E007
E007
F007
F807
F807
FC07
FE07
EE07
EF07
E787
E387
E3C7
E1C7
E0E7
E0F7
E077
E03F
E03F
E01F
E00F
E00F
E007
0007
0007
0007
003F
003E
003C
ENDCHAR
STARTCHAR 014B
ENCODING 331
SWIDTH 544 0
DWIDTH 17 0
BBX 13 22 2 -6
BITMAP
F3C0
FFE0
FFF0
F878
F078
F038
F038
F038
F038
F038
F038
F038
F038
F038
F038
F038
0038
0038
0038
01F8
01F0
01E0
ENDCHAR
STARTCHAR 014C
ENCODING 332
SWIDTH 640 0
DWIDTH 20 0
BBX 16 27 2 0
BITMAP
3FFC
3FFC
3FFC
3FFC
0000
07E0
1FF8
3FFC
7C3E
781E
700E
F00F
E007
E007
E007
E007
E007
E007
E007
E007
F00F
700E
781E
7C3E
3FFC
1FF8
07E0
ENDCHAR
STARTCHAR 014D
ENCODING 333
SWIDTH 544 0
DWIDTH 17 0
BBX 13 22 2 0
BITMAP
7FF0
7FF0
7FF0
0000
0000
0000
0F80
3FE0
7FF0
78F0
F078
E038
E038
E038
E038
E038
E038
F078
78F0
7FF0
3FE0
0F80
ENDCHAR
STARTCHAR 0150
ENCODING 336
SWIDTH 640 0
DWIDTH 20 0
BBX 16 29 2 0
BITMAP
0208
071C
0F3C
1E78
0C30
0000
0000
07E0
1FF8
3FFC
7C3E
781E
700E
F00F
E007
E007
E007
E007
E007
E007
E007
E007
F00F
700E
781E
7C3E
3FFC
1FF8
07E0
ENDCHAR
STARTCHAR 0151
ENCODING 337
SWIDTH 544 0
DWIDTH 17 0
BBX 13 26 2 0
BITMAP
0820
0C30
1E78
1C70
3CF0
38E0
1040
0000
0000
0000
0F80
3FE0
7FF0
78F0
F078
E038
E038
E038
E038
E038
E038
F078
78F0
7FF0
3FE0
0F80
ENDCHAR
STARTCHAR 0152
ENCODING 338
SWIDTH 992 0
DWIDTH 31 0
BBX 27 22 2 0
BITMAP
07E7FFE0
1FFFFFE0
3FFFFFE0
7C1F0000
780F0000
70070000
F0070000
E0070000
E0070000
E0070000
E007FFC0
E007FFC0
E007FFC0
E0070000
E0070000
F0070000
70070000
780F0000
7C1F0000
3FFFFFE0
1FFFFFE0
07E7FFE0
ENDCHAR
STARTCHAR 0153
ENCODING 339
SWIDTH 832 0
DWIDTH 26 0
BBX 23 16 2 0
BITMAP
0F83E0
3FEFF0
7FFFF8
707C3C
E0781C
E0380C
E0380C
E03FFE
E03FFE
E03000
E03800
E07800
707C18
7FFFFC
3FEFF8
0F83E0
ENDCHAR
STARTCHAR 0154
ENCODING 340
SWIDTH 640 0
DWIDTH 20 0
BBX 15 29 3 1
BITMAP
0040
01E0
03E0
07C0
0300
0000
0000
FFE0
FFF8
FFFC
E03C
E01E
E01E
E00E
E01E
E01E
E03C
FFFC
FFF8
FFE0
E0E0
E0F0
E070
E078
E038
E03C
E01C
E01E
E00E
ENDCHAR
STARTCHAR 0155
ENCODING 341
SWIDTH 416 0
DWIDTH 13 0
BBX 11 26 2 0
BITMAP
0080
01C0
03C0
0780
0700
0E00
0400
0000
0000
0000
F3C0
FFE0
FFC0
F880
F000
F000
F000
F000
F000
F000
F000
F000
F000
F000
F000
F000
ENDCHAR
STARTCHAR 0156
ENCODING 342
SWIDTH 640 0
DWIDTH 20 0
BBX 15 29 3 -7
BITMAP
FFE0
FFF8
FFFC
E03C
E01E
E01E
E00E
E01E
E01E
E03C
FFFC
FFF8
FFE0
E0E0
E0F0
E070
E078
E038
E03C
E01C
E01E
E00E
0000
0000
0700
0700
0700
0600
0400
ENDCHAR
STARTCHAR 0157
ENCODING 343
SWIDTH 416 0
DWIDTH 13 0
BBX 11 23 2 -7
BITMAP
F3C0
FFE0
FFC0
F880
F000
F000
F000
F000
F000
F000
F000
F000
F000
F000
F000
F000
0000
0000
F000
F000
E000
C000
8000
ENDCHAR
STARTCHAR 0158
ENCODING 344
SWIDTH 640 0
DWIDTH 20 0
BBX 15 29 3 0
BITMAP
0040
1CE0
1FE0
0F80
0300
0000
0000
FFE0
FFF8
FFFC
E03C
E01E
E01E
E00E
E01E
E01E
E03C
FFFC
FFF8
FFE0
E0E0
E0F0
E070
E078
E038
E03C
E01C
E01E
E00E
ENDCHAR
STARTCHAR 0159
ENCODING 345
SWIDTH 416 0
DWIDTH 13 0
BBX 11 25 2 0
BITMAP
2080
71C0
3B80
1F00
0E00
0400
0000
0000
0000
F3C0
FFE0
FFC0
F880
F000
F000
F000
F000
F000
F000
F000
F000
F000
F000
F000
F000
ENDCHAR
STARTCHAR 015A
ENCODING 346
SWIDTH 608 0
DWIDTH 19 0
BBX 15 29 2 0
BITMAP
0020
0070
00F0
01E0
0180
0000
0000
07E0
1FFC
3FFE
781C
7004
F000
E000
F000
7800
7F00
3FF0
0FFC
00FE
001E
000E
000E
000E
400E
F03E
FFFC
7FF8
0FE0
ENDCHAR
STARTCHAR 015B
ENCODING 347
SWIDTH 512 0
DWIDTH 16 0
BBX 14 25 1 1
BITMAP
0060
00F0
01E0
03C0
0380
0300
0000
0000
0000
0FE0
3FF8
7FF8
7010
7000
7000
7F00
3FF0
1FF8
0078
001C
201C
7038
FFF8
7FF0
0FC0
ENDCHAR
STARTCHAR 015E
ENCODING 350
SWIDTH 608 0
DWIDTH 19 0
BBX 15 28 2 -6
BITMAP
07E0
1FFC
3FFE
781C
7004
F000
E000
F000
7800
7F00
3FF0
0FFC
00FE
001E
000E
000E
000E
400E
F03E
FFFC
7FF8
0FE0
0380
03E0
01E0
0070
03E0
07C0
ENDCHAR
STARTCHAR 015F
ENCODING 351
SWIDTH 512 0
DWIDTH 16 0
BBX 14 22 1 -6
BITMAP
0FE0
3FF8
7FF8
7010
7000
7000
7F00
3FF0
1FF8
0078
001C
201C
7038
FFF8
7FF0
0FC0
0300
03C0
03E0
00E0
07E0
07C0
ENDCHAR
STARTCHAR 0160
ENCODING 352
SWIDTH 608 0
DWIDTH 19 0
BBX 15 28 2 1
BITMAP
0C70
1FF0
07E0
0380
0000
0000
07E0
1FFC
3FFE
781C
7004
F000
E000
F000
7800
7F00
3FF0
0FFC
00FE
001E
000E
000E
000E
400E
F03E
FFFC
7FF8
0FE0
ENDCHAR
STARTCHAR 0161
ENCODING 353
SWIDTH 512 0
DWIDTH 16 0
BBX 14 24 1 1
BITMAP
1870
1EE0
0FC0
0780
0300
0000
0000
0000
0FE0
3FF8
7FF8
7010
7000
7000
7F00
3FF0
1FF8
0078
001C
201C
7038
FFF8
7FF0
0FC0
ENDCHAR
STARTCHAR 0162
ENCODING 354
SWIDTH 480 0
DWIDTH 15 0
BBX 15 28 0 -6
BITMAP
FFFE
FFFE
FFFE
0380
0380
0380
0380
0380
0380
0380
0380
0380
0380
0380
0380
0380
0380
0380
0380
0380
0380
0380
0380
03C0
03E0
0060
07E0
07C0
ENDCHAR
STARTCHAR 0163
ENCODING 355
SWIDTH 320 0
DWIDTH 10 0
BBX 8 27 1 -7
BITMAP
38
38
38
38
FE
FE
FE
38
38
38
38
38
38
38
38
38
38
3E
3E
1E
18
1E
1F
07
3F
3E
3C
ENDCHAR
STARTCHAR 0164
ENCODING 356
SWIDTH 480 0
DWIDTH 15 0
BBX 15 29 0 0
BITMAP
0820
1C70
1FE0
07C0
0380
0000
0000
FFFE
FFFE
FFFE
0380
0380
0380
0380
0380
0380
0380
0380
0380
0380
0380
0380
0380
0380
0380
0380
0380
0380
0380
ENDCHAR
STARTCHAR 0165
ENCODING 357
SWIDTH 384 0
DWIDTH 12 0
BBX 11 24 1 0
BITMAP
00E0
00E0
00E0
00E0
38C0
3880
3800
3800
FE00
FE00
FE00
3800
3800
3800
3800
3800
3800
3800
3800
3800
3800
3E00
3E00
1E00
ENDCHAR
STARTCHAR 016A
ENCODING 362
SWIDTH 640 0
DWIDTH 20 0
BBX 16 27 2 0
BITMAP
1FFC
1FFC
1FFC
0000
0000
F007
F007
F007
F007
F007
F007
F007
F007
F007
F007
F007
F007
F007
F007
F007
7007
700F
780E
7C3E
3FFC
1FF8
07E0
ENDCHAR
STARTCHAR 016B
ENCODING 363
SWIDTH 544 0
DWIDTH 17 0
BBX 13 22 2 0
BITMAP
7FF0
7FF0
7FF0
0000
0000
0000
F038
F038
F038
F038
F038
F038
F038
F038
F038
F038
F038
7038
7878
7FF8
3FB8
1F38
ENDCHAR
STARTCHAR 016C
ENCODING 364
SWIDTH 640 0
DWIDTH 20 0
BBX 16 28 2 1
BITMAP
1C18
1C38
0FF8
07F0
0000
0000
F007
F007
F007
F007
F007
F007
F007
F007
F007
F007
F007
F007
F007
F007
F007
7007
700F
780E
7C3E
3FFC
1FF8
07E0
ENDCHAR
STARTCHAR 016D
ENCODING 365
SWIDTH 544 0
DWIDTH 17 0
BBX 13 24 2 0
BITMAP
3060
38E0
3FE0
1FC0
0F80
0000
0000
0000
F038
F038
F038
F038
F038
F038
F038
F038
F038
F038
F038
7038
7878
7FF8
3FB8
1F38
ENDCHAR
STARTCHAR 016E
ENCODING 366
SWIDTH 640 0
DWIDTH 20 0
BBX 16 30 2 0
BITMAP
03E0
07E0
0E70
0E30
0770
07E0
01C0
0000
F007
F007
F007
F007
F007
F007
F007
F007
F007
F007
F007
F007
F007
F007
F007
7007
700F
780E
7C3E
3FFC
1FF8
07E0
ENDCHAR
STARTCHAR 016F
ENCODING 367
SWIDTH 544 0
DWIDTH 17 0
BBX 13 26 2 0
BITMAP
0F80
1FC0
18C0
18C0
18C0
1FC0
0F80
0000
0000
0000
F038
F038
F038
F038
F038
F038
F038
F038
F038
F038
F038
7038
7878
7FF8
3FB8
1F38
ENDCHAR
STARTCHAR 0170
ENCODING 368
SWIDTH 640 0
DWIDTH 20 0
BBX 16 29 2 0
BITMAP
0208
071C
0F3C
0E38
0C30
0000
0000
F007
F007
F007
F007
F007
F007
F007
F007
F007
F007
F007
F007
F007
F007
F007
7007
700F
780E
7C3E
3FFC
1FF8
07E0
ENDCHAR
STARTCHAR 0171
ENCODING 369
SWIDTH 544 0
DWIDTH 17 0
BBX 13 26 2 0
BITMAP
0820
0E38
1E78
1C70
3CF0
38E0
1040
0000
0000
0000
F038
F038
F038
F038
F038
F038
F038
F038
F038
F038
F038
7038
7878
7FF8
3FB8
1F38
ENDCHAR
STARTCHAR 0172
ENCODING 370
SWIDTH 640 0
DWIDTH 20 0
BBX 16 28 2 -6
BITMAP
F007
F007
F007
F007
F007
F007
F007
F007
F007
F007
F007
F007
F007
F007
F007
7007
700F
780E
7C3E
3FFC
1FF8
07E0
0380
0380
0380
03F0
03F0
00F0
ENDCHAR
STARTCHAR 0173
ENCODING 371
SWIDTH 544 0
DWIDTH 17 0
BBX 13 23 2 -7
BITMAP
F038
F038
F038
F038
F038
F038
F038
F038
F038
F038
F038
7038
7878
7FF8
3FB8
1F38
0038
0070
0060
00E0
00F8
0078
0038
ENDCHAR
STARTCHAR 0178
ENCODING 376
SWIDTH 512 0
DWIDTH 16 0
BBX 16 27 0 0
BITMAP
1C70
1C70
1C70
0000
0000
E00F
F00E
701E
781C
383C
3C38
1C78
1E70
0EF0
0FE0
07E0
07C0
03C0
0380
0380
0380
0380
0380
0380
0380
0380
0380
ENDCHAR
STARTCHAR 0179
ENCODING 377
SWIDTH 544 0
DWIDTH 17 0
BBX 14 29 2 1
BITMAP
00C0
01E0
03E0
0780
0300
0000
0000
FFF8
FFF8
FFF8
0078
0070
00F0
01E0
01C0
03C0
0380
0780
0F00
0E00
1E00
1C00
3C00
7800
7800
F000
FFFC
FFFC
FFFC
ENDCHAR
STARTCHAR 017A
ENCODING 378
SWIDTH 480 0
DWIDTH 15 0
BBX 12 26 2 0
BITMAP
0080
01C0
03C0
0380
0700
0E00
0600
0000
0000
0000
FFE0
FFE0
FFE0
01E0
03C0
0380
0780
0F00
1E00
1C00
3C00
7800
7000
FFF0
FFF0
FFF0
ENDCHAR
STARTCHAR 017B
ENCODING 379
SWIDTH 544 0
DWIDTH 17 0
BBX 14 27 2 0
BITMAP
0700
0700
0700
0000
0000
FFF8
FFF8
FFF8
0078
0070
00F0
01E0
01C0
03C0
0380
0780
0F00
0E00
1E00
1C00
3C00
7800
7800
F000
FFFC
FFFC
FFFC
ENDCHAR
STARTCHAR 017C
ENCODING 380
SWIDTH 480 0
DWIDTH 15 0
BBX 12 22 2 0
BITMAP
0E00
0E00
0E00
0000
0000
0000
FFE0
FFE0
FFE0
01E0
03C0
0380
0780
0F00
1E00
1C00
3C00
7800
7000
FFF0
FFF0
FFF0
ENDCHAR
STARTCHAR 017D
ENCODING 381
SWIDTH 544 0
DWIDTH 17 0
BBX 14 29 2 0
BITMAP
0040
3CE0
1FE0
0F80
0300
0000
0000
FFF8
FFF8
FFF8
0078
0070
00F0
01E0
01C0
03C0
0380
0780
0F00
0E00
1E00
1C00
3C00
7800
7800
F000
FFFC
FFFC
FFFC
ENDCHAR
STARTCHAR 017E
ENCODING 382
SWIDTH 480 0
DWIDTH 15 0
BBX 12 25 2 0
BITMAP
2080
71E0
3FC0
1F80
0E00
0400
0000
0000
0000
FFE0
FFE0
FFE0
01E0
03C0
0380
0780
0F00
1E00
1C00
3C00
7800
7000
FFF0
FFF0
FFF0
ENDCHAR
STARTCHAR 0181
ENCODING 385
SWIDTH 736 0
DWIDTH 23 0
BBX 21 22 0 0
BITMAP
3FFF80
FFFFE0
FFFFF0
E700F0
E70070
070078
070070
070070
0700F0
07FFE0
07FF80
07FFE0
0700F0
070070
070038
070038
070038
070078
0700F0
07FFF0
07FFE0
07FF80
ENDCHAR
STARTCHAR 0186
ENCODING 390
SWIDTH 608 0
DWIDTH 19 0
BBX 15 22 2 0
BITMAP
07C0
1FF0
3FF8
787C
F01C
E01E
E00E
000E
000E
000E
000E
000E
000E
000E
000E
E00E
E01E
F01C
787C
3FF8
1FF0
07C0
ENDCHAR
STARTCHAR 0189
ENCODING 393
SWIDTH 672 0
DWIDTH 21 0
BBX 18 22 1 0
BITMAP
3FF800
3FFE00
3FFF00
3C0F80
3C0780
3C03C0
3C03C0
3C01C0
3C01C0
FFC1C0
FFC1C0
FFC1C0
3C01C0
3C01C0
3C01C0
3C03C0
3C03C0
3C0780
3C0F80
3FFF00
3FFE00
3FF800
ENDCHAR
STARTCHAR 018A
ENCODING 394
SWIDTH 736 0
DWIDTH 23 0
BBX 21 22 0 0
BITMAP
3FFF00
FFFFC0
FFFFE0
E701F0
E700F0
070070
070078
070038
070038
070038
070038
070038
070038
070038
070038
070078
070070
0700F0
0701F0
07FFE0
07FFC0
07FF00
ENDCHAR
STARTCHAR 018E
ENCODING 398
SWIDTH 608 0
DWIDTH 19 0
BBX 14 22 2 0
BITMAP
FFFC
FFFC
FFFC
001C
001C
001C
001C
001C
001C
001C
7FFC
7FFC
7FFC
001C
001C
001C
001C
001C
001C
FFFC
FFFC
FFFC
ENDCHAR
STARTCHAR 018F
ENCODING 399
SWIDTH 608 0
DWIDTH 19 0
BBX 14 22 3 0
BITMAP
0FC0
3FF0
FFF8
F078
E03C
401C
001C
001C
001C
001C
FFFC
FFFC
FFFC
E01C
E01C
E01C
E01C
E03C
F878
7FF8
3FF0
0FC0
ENDCHAR
STARTCHAR 0190
ENCODING 400
SWIDTH 544 0
DWIDTH 17 0
BBX 14 22 2 0
BITMAP
0FC0
3FE0
7FF0
7878
7038
F038
7000
7000
7800
3F80
0F80
3F80
7000
F000
E000
E000
E03C
E038
F078
7FF0
3FF0
0FC0
ENDCHAR
STARTCHAR 0191
ENCODING 401
SWIDTH 576 0
DWIDTH 18 0
BBX 17 28 0 -6
BITMAP
1FFF80
1FFF80
1FFF80
1C0000
1C0000
1C0000
1C0000
1C0000
1C0000
1C0000
1FFE00
1FFE00
1FFE00
1C0000
1C0000
1C0000
1C0000
1C0000
1C0000
1C0000
1C0000
1C0000
1C0000
1C0000
1C0000
FC0000
F80000
F00000
ENDCHAR
STARTCHAR 0192
ENCODING 402
SWIDTH 320 0
DWIDTH 10 0
BBX 8 28 1 -6
BITMAP
0F
3F
3F
38
38
38
FF
FF
FF
38
38
38
38
38
38
38
38
38
38
38
38
38
38
38
38
F8
F0
E0
ENDCHAR
STARTCHAR 0194
ENCODING 404
SWIDTH 576 0
DWIDTH 18 0
BBX 17 28 1 -6
BITMAP
E00780
E00700
F00700
700F00
700E00
780E00
381E00
381C00
381C00
1C3C00
1C3800
1C3800
0E7800
0E7000
0E7000
077000
07E000
07E000
03E000
03C000
03C000
03C000
07E000
076000
066000
07F000
07E000
03C000
ENDCHAR
STARTCHAR 0198
ENCODING 408
SWIDTH 640 0
DWIDTH 20 0
BBX 16 22 3 0
BITMAP
E00F
E01F
E03F
E078
E0F0
E1E0
E1C0
E3C0
E780
EF80
EFC0
FDC0
F9E0
F8F0
F0F0
E078
E038
E03C
E01E
E01E
E00F
E00F
ENDCHAR
STARTCHAR 0199
ENCODING 409
SWIDTH 512 0
DWIDTH 16 0
BBX 14 22 2 0
BITMAP
3C00
7C00
7C00
F000
F000
F000
F078
F070
F0E0
F1C0
F3C0
F780
F700
FF80
FFC0
F9C0
F0E0
F0F0
F070
F078
F038
F01C
ENDCHAR
STARTCHAR 01A0
ENCODING 416
SWIDTH 672 0
DWIDTH 21 0
BBX 19 24 2 0
BITMAP
0000E0
0000E0
07E3E0
1FFFC0
3FFF80
7C3E00
781E00
700E00
F00F00
E00700
E00700
E00700
E00700
E00700
E00700
E00700
E00700
F00F00
700E00
781E00
7C3E00
3FFC00
1FF800
07E000
ENDCHAR
STARTCHAR 01A1
ENCODING 417
SWIDTH 544 0
DWIDTH 17 0
BBX 15 19 2 0
BITMAP
000E
000E
000E
0FFE
3FF8
7FF0
78F0
F078
E038
E038
E038
E038
E038
E038
F078
78F0
7FF0
3FE0
0F80
ENDCHAR
STARTCHAR 01AF
ENCODING 431
SWIDTH 704 0
DWIDTH 22 0
BBX 20 25 2 0
BITMAP
000070
000070
0000F0
F007F0
F007C0
F00700
F00700
F00700
F00700
F00700
F00700
F00700
F00700
F00700
F00700
F00700
F00700
F00700
700700
700F00
780E00
7C3E00
3FFC00
1FF800
07E000
ENDCHAR
STARTCHAR 01B0
ENCODING 432
SWIDTH 608 0
DWIDTH 19 0
BBX 17 19 2 0
BITMAP
000380
000380
000780
F03F80
F03E00
F03800
F03800
F03800
F03800
F03800
F03800
F03800
F03800
F03800
703800
787800
7FF800
3FB800
1F3800
ENDCHAR
STARTCHAR 01B2
ENCODING 434
SWIDTH 640 0
DWIDTH 20 0
BBX 16 22 2 0
BITMAP
F03C
F03E
F03F
F007
F007
F007
F007
F007
F007
F007
F007
F007
F007
F007
F007
7007
700F
780E
7C3E
3FFC
1FF8
07E0
ENDCHAR
STARTCHAR 01B3
ENCODING 435
SWIDTH 512 0
DWIDTH 16 0
BBX 17 22 0 0
BITMAP
E00780
F00F80
701F80
781C00
381C00
3C3800
1C3800
1E7000
0E7000
0FE000
07E000
07C000
03C000
038000
038000
038000
038000
038000
038000
038000
038000
038000
ENDCHAR
STARTCHAR 01B4
ENCODING 436
SWIDTH 512 0
DWIDTH 16 0
BBX 15 23 1 -7
BITMAP
E01E
E03E
703E
7078
7070
3870
38F0
38E0
1CE0
1CE0
0FC0
0FC0
0FC0
0780
0780
0780
0700
0700
0700
0E00
3E00
3C00
3800
ENDCHAR
STARTCHAR 01B7
ENCODING 439
SWIDTH 544 0
DWIDTH 17 0
BBX 14 22 1 0
BITMAP
7FF8
7FF8
7FF8
0078
00F0
01E0
01C0
0380
0780
07C0
07F0
07F8
0078
003C
001C
001C
F01C
703C
7878
3FF8
3FF0
0FC0
ENDCHAR
STARTCHAR 01DD
ENCODING 477
SWIDTH 544 0
DWIDTH 17 0
BBX 13 16 2 0
BITMAP
1F80
7FC0
FFE0
70F0
0070
0078
FFF8
FFF8
FFF8
E038
E038
E070
70F0
7FE0
3FE0
0F80
ENDCHAR
STARTCHAR 0218
ENCODING 536
SWIDTH 608 0
DWIDTH 19 0
BBX 15 29 2 -7
BITMAP
07E0
1FFC
3FFE
781C
7004
F000
E000
F000
7800
7F00
3FF0
0FFC
00FE
001E
000E
000E
000E
400E
F03E
FFFC
7FF8
0FE0
0000
0000
0380
0380
0380
0300
0200
ENDCHAR
STARTCHAR 0219
ENCODING 537
SWIDTH 512 0
DWIDTH 16 0
BBX 14 23 1 -7
BITMAP
0FE0
3FF8
7FF8
7010
7000
7000
7F00
3FF0
1FF8
0078
001C
201C
7038
FFF8
7FF0
0FC0
0000
0000
0780
0780
0700
0600
0400
ENDCHAR
STARTCHAR 021A
ENCODING 538
SWIDTH 480 0
DWIDTH 15 0
BBX 15 29 0 -7
BITMAP
FFFE
FFFE
FFFE
0380
0380
0380
0380
0380
0380
0380
0380
0380
0380
0380
0380
0380
0380
0380
0380
0380
0380
0380
0000
0000
0380
0380
0380
0300
0200
ENDCHAR
STARTCHAR 021B
ENCODING 539
SWIDTH 320 0
DWIDTH 10 0
BBX 7 27 1 -7
BITMAP
38
38
38
38
FE
FE
FE
38
38
38
38
38
38
38
38
38
38
3E
3E
1E
00
00
3C
3C
38
30
20
ENDCHAR
STARTCHAR 0253
ENCODING 595
SWIDTH 544 0
DWIDTH 17 0
BBX 13 22 2 0
BITMAP
3C00
7C00
7C00
F000
F000
F000
F7C0
FFE0
FFF0
F070
F078
F038
F038
F038
F038
F038
F038
F078
F070
FFF0
FFE0
F7C0
ENDCHAR
STARTCHAR 0254
ENCODING 596
SWIDTH 480 0
DWIDTH 15 0
BBX 12 16 1 0
BITMAP
1F80
7FC0
FFE0
70F0
2070
0070
0070
0070
0070
0070
0070
0070
20F0
FFE0
7FC0
1F80
ENDCHAR
STARTCHAR 0256
ENCODING 598
SWIDTH 544 0
DWIDTH 17 0
BBX 15 28 2 -6
BITMAP
0070
0070
0070
0070
0070
0070
1E70
7FF0
7FF0
F0F0
E070
E070
E070
E070
E070
E070
E070
E070
F0F0
7FF0
7FF0
1F70
0070
0070
0078
003E
003E
001E
ENDCHAR
STARTCHAR 0257
ENCODING 599
SWIDTH 544 0
DWIDTH 17 0
BBX 15 22 2 0
BITMAP
001E
003E
003E
0078
0070
0070
1E70
7FF0
7FF0
F0F0
E070
E070
E070
E070
E070
E070
E070
E070
F0F0
7FF0
7FF0
1F70
ENDCHAR
STARTCHAR 0259
ENCODING 601
SWIDTH 544 0
DWIDTH 17 0
BBX 13 16 2 0
BITMAP
1F80
7FC0
FFE0
70F0
0070
0078
FFF8
FFF8
FFF8
E038
E038
E070
70F0
7FE0
3FE0
0F80
ENDCHAR
STARTCHAR 025B
ENCODING 603
SWIDTH 480 0
DWIDTH 15 0
BBX 11 16 2 0
BITMAP
1F80
7FE0
FFE0
F040
E000
7000
7F00
3F00
7F00
E000
E000
E040
F0E0
FFE0
7FE0
1F80
ENDCHAR
STARTCHAR 02BB
ENCODING 699
SWIDTH 192 0
DWIDTH 6 0
BBX 3 5 1 17
BITMAP
20
60
E0
E0
E0
ENDCHAR
STARTCHAR 02BC
ENCODING 700
SWIDTH 192 0
DWIDTH 6 0
BBX 3 6 1 16
BITMAP
E0
E0
E0
E0
C0
80
ENDCHAR
STARTCHAR 02C6
ENCODING 710
SWIDTH 384 0
DWIDTH 12 0
BBX 10 6 1 19
BITMAP
0400
1E00
3F00
7F80
F1C0
2080
ENDCHAR
STARTCHAR 02C7
ENCODING 711
SWIDTH 384 0
DWIDTH 12 0
BBX 10 6 1 19
BITMAP
2080
F3C0
7F80
3F00
0E00
0400
ENDCHAR
STARTCHAR 02C9
ENCODING 713
SWIDTH 416 0
DWIDTH 13 0
BBX 11 3 1 19
BITMAP
FFE0
FFE0
FFE0
ENDCHAR
STARTCHAR 02D8
ENCODING 728
SWIDTH 384 0
DWIDTH 12 0
BBX 9 5 1 19
BITMAP
E180
E180
7F80
7F80
3E00
ENDCHAR
STARTCHAR 02D9
ENCODING 729
SWIDTH 256 0
DWIDTH 8 0
BBX 3 3 2 19
BITMAP
E0
E0
E0
ENDCHAR
STARTCHAR 02DB
ENCODING 731
SWIDTH 160 0
DWIDTH 5 0
BBX 5 6 0 -5
BITMAP
30
60
E0
E0
F8
78
ENDCHAR
STARTCHAR 02DC
ENCODING 732
SWIDTH 416 0
DWIDTH 13 0
BBX 11 4 1 19
BITMAP
78E0
7FE0
FFC0
E3C0
ENDCHAR
STARTCHAR 02DD
ENCODING 733
SWIDTH 416 0
DWIDTH 13 0
BBX 11 7 1 19
BITMAP
2080
38E0
79E0
71C0
E380
E380
4100
ENDCHAR
STARTCHAR 0300
ENCODING 768
SWIDTH 0 0
DWIDTH 0 0
BBX 6 7 -6 19
BITMAP
40
E0
E0
70
38
3C
10
ENDCHAR
STARTCHAR 0301
ENCODING 769
SWIDTH 0 0
DWIDTH 0 0
BBX 6 7 -7 19
BITMAP
08
1C
1C
38
70
E0
20
ENDCHAR
STARTCHAR 0302
ENCODING 770
SWIDTH 0 0
DWIDTH 0 0
BBX 10 6 -10 19
BITMAP
0400
1E00
3F00
7F80
F3C0
6080
ENDCHAR
STARTCHAR 0303
ENCODING 771
SWIDTH 0 0
DWIDTH 0 0
BBX 11 4 -11 19
BITMAP
78E0
7FE0
FFC0
E380
ENDCHAR
STARTCHAR 0304
ENCODING 772
SWIDTH 0 0
DWIDTH 0 0
BBX 11 3 -12 19
BITMAP
FFE0
FFE0
FFE0
ENDCHAR
STARTCHAR 0306
ENCODING 774
SWIDTH 0 0
DWIDTH 0 0
BBX 9 5 -10 19
BITMAP
C180
E380
F780
7F00
3E00
ENDCHAR
STARTCHAR 0307
ENCODING 775
SWIDTH 0 0
DWIDTH 0 0
BBX 3 3 -3 19
BITMAP
E0
E0
E0
ENDCHAR
STARTCHAR 0308
ENCODING 776
SWIDTH 0 0
DWIDTH 0 0
BBX 9 3 -10 19
BITMAP
E380
E380
E380
ENDCHAR
STARTCHAR 0309
ENCODING 777
SWIDTH 0 0
DWIDTH 0 0
BBX 6 6 -7 19
BITMAP
F8
FC
1C
1C
7C
70
ENDCHAR
STARTCHAR 030A
ENCODING 778
SWIDTH 0 0
DWIDTH 0 0
BBX 7 7 -8 19
BITMAP
7C
FE
C6
C6
C6
FE
7C
ENDCHAR
STARTCHAR 030B
ENCODING 779
SWIDTH 0 0
DWIDTH 0 0
BBX 12 7 -12 19
BITMAP
1040
3CF0
38E0
79E0
71C0
F3C0
2080
ENDCHAR
STARTCHAR 030C
ENCODING 780
SWIDTH 0 0
DWIDTH 0 0
BBX 9 6 -10 19
BITMAP
4100
E380
7700
3E00
1C00
0800
ENDCHAR
STARTCHAR 031B
ENCODING 795
SWIDTH 0 0
DWIDTH 0 0
BBX 7 5 -7 14
BITMAP
0E
0E
1E
FC
F8
ENDCHAR
STARTCHAR 0323
ENCODING 803
SWIDTH 0 0
DWIDTH 0 0
BBX 3 3 -4 -6
BITMAP
E0
E0
E0
ENDCHAR
STARTCHAR 0326
ENCODING 806
SWIDTH 0 0
DWIDTH 0 0
BBX 3 5 -3 -7
BITMAP
E0
E0
C0
80
80
ENDCHAR
STARTCHAR 0327
ENCODING 807
SWIDTH 0 0
DWIDTH 0 0
BBX 7 8 -7 -7
BITMAP
30
30
38
3C
0E
5E
7C
F8
ENDCHAR
STARTCHAR 0328
ENCODING 808
SWIDTH 0 0
DWIDTH 0 0
BBX 5 6 -5 -5
BITMAP
30
60
E0
E0
F8
78
ENDCHAR
STARTCHAR 0335
ENCODING 821
SWIDTH 0 0
DWIDTH 0 0
BBX 10 3 -11 10
BITMAP
FFC0
FFC0
FFC0
ENDCHAR
STARTCHAR 0345
ENCODING 837
SWIDTH 0 0
DWIDTH 0 0
BBX 5 5 -6 -6
BITMAP
E0
E0
F8
F8
78
ENDCHAR
STARTCHAR 0370
ENCODING 880
SWIDTH 576 0
DWIDTH 18 0
BBX 12 22 3 0
BITMAP
E000
E000
E000
E000
E000
E000
E000
E000
E000
E000
FFF0
FFF0
FFF0
E000
E000
E000
E000
E000
E000
E000
E000
E000
ENDCHAR
STARTCHAR 0371
ENCODING 881
SWIDTH 352 0
DWIDTH 11 0
BBX 8 16 2 0
BITMAP
F0
F0
F0
F0
F0
F0
F0
FF
FF
FF
F0
F0
F0
F0
F0
F0
ENDCHAR
STARTCHAR 0372
ENCODING 882
SWIDTH 544 0
DWIDTH 17 0
BBX 16 22 0 0
BITMAP
FFFF
FFFF
FFFF
E1C7
E1C7
E1C7
E1C7
E1C7
01C0
01C0
01C0
01C0
01C0
01C0
01C0
01C0
01C0
01C0
01C0
01C0
01C0
01C0
ENDCHAR
STARTCHAR 0373
ENCODING 883
SWIDTH 448 0
DWIDTH 14 0
BBX 14 22 0 0
BITMAP
FFFC
FFFC
FFFC
E71C
E71C
E71C
E71C
0700
0700
0700
0700
0700
0700
0700
0700
0700
0700
0700
0700
0700
0700
0700
ENDCHAR
STARTCHAR 0374
ENCODING 884
SWIDTH 192 0
DWIDTH 6 0
BBX 3 6 1 16
BITMAP
20
20
60
E0
E0
E0
ENDCHAR
STARTCHAR 0375
ENCODING 885
SWIDTH 224 0
DWIDTH 7 0
BBX 3 6 2 -3
BITMAP
20
60
E0
E0
E0
E0
ENDCHAR
STARTCHAR 0376
ENCODING 886
SWIDTH 704 0
DWIDTH 22 0
BBX 16 22 3 0
BITMAP
E007
E007
E00F
E01F
E01F
E03F
E077
E077
E0E7
E1C7
E1C7
E387
E707
E707
EE07
FE07
FC07
F807
F807
F007
E007
E007
ENDCHAR
STARTCHAR 0377
ENCODING 887
SWIDTH 576 0
DWIDTH 18 0
BBX 13 16 2 0
BITMAP
E038
E038
E078
E0F8
E0F8
E1F8
E3F8
E3B8
E738
EF38
EE38
FC38
FC38
F838
F038
E038
ENDCHAR
STARTCHAR 037A
ENCODING 890
SWIDTH 160 0
DWIDTH 5 0
BBX 5 6 1 -7
BITMAP
E0
E0
E0
F8
78
38
ENDCHAR
STARTCHAR 037B
ENCODING 891
SWIDTH 480 0
DWIDTH 15 0
BBX 12 16 1 0
BITMAP
1F80
7FC0
FFE0
70F0
2070
0070
0070
0070
0070
0070
0070
0070
20F0
FFE0
7FC0
1F80
ENDCHAR
STARTCHAR 037C
ENCODING 892
SWIDTH 480 0
DWIDTH 15 0
BBX 12 16 2 0
BITMAP
0F80
3FE0
7FF0
7870
F020
E000
E000
E780
E780
E780
E000
F020
7870
7FF0
3FE0
0FC0
ENDCHAR
STARTCHAR 037D
ENCODING 893
SWIDTH 480 0
DWIDTH 15 0
BBX 12 16 1 0
BITMAP
1F80
7FC0
FFE0
70F0
2070
0070
0070
0E70
0E70
0E70
0070
0070
20F0
FFE0
7FC0
1F80
ENDCHAR
STARTCHAR 037E
ENCODING 894
SWIDTH 224 0
DWIDTH 7 0
BBX 3 19 2 -3
BITMAP
E0
E0
E0
00
00
00
00
00
00
00
00
00
00
E0
E0
E0
E0
C0
80
ENDCHAR
STARTCHAR 037F
ENCODING 895
SWIDTH 512 0
DWIDTH 16 0
BBX 12 22 1 0
BITMAP
0070
0070
0070
0070
0070
0070
0070
0070
0070
0070
0070
0070
0070
0070
0070
0070
0070
00F0
61E0
FFE0
7FC0
3F00
ENDCHAR
STARTCHAR 0384
ENCODING 900
SWIDTH 256 0
DWIDTH 8 0
BBX 5 8 1 19
BITMAP
20
38
38
70
70
70
E0
20
ENDCHAR
STARTCHAR 0385
ENCODING 901
SWIDTH 448 0
DWIDTH 14 0
BBX 12 7 1 18
BITMAP
0300
0380
0380
0700
E770
EE70
E670
ENDCHAR
STARTCHAR 0386
ENCODING 902
SWIDTH 672 0
DWIDTH 21 0
BBX 19 22 1 0
BITMAP
707000
70F000
70F000
E0F800
E1F800
E1DC00
C39C00
039C00
038E00
070E00
070E00
070700
0E0700
0E0780
0FFF80
1FFF80
1FFFC0
3C01C0
3801C0
3801E0
7800E0
7000E0
ENDCHAR
STARTCHAR 0387
ENCODING 903
SWIDTH 224 0
DWIDTH 7 0
BBX 3 3 2 13
BITMAP
E0
E0
E0
ENDCHAR
STARTCHAR 0388
ENCODING 904
SWIDTH 704 0
DWIDTH 22 0
BBX 20 22 0 0
BITMAP
73FFF0
73FFF0
73FFF0
E38000
E38000
C38000
C38000
038000
038000
038000
03FFC0
03FFC0
03FFC0
038000
038000
038000
038000
038000
038000
03FFF0
03FFF0
03FFF0
ENDCHAR
STARTCHAR 0389
ENCODING 905
SWIDTH 768 0
DWIDTH 24 0
BBX 22 22 0 0
BITMAP
73801C
73801C
73801C
E3801C
E3801C
C3801C
C3801C
03801C
03801C
03801C
03FFFC
03FFFC
03FFFC
03801C
03801C
03801C
03801C
03801C
03801C
03801C
03801C
03801C
ENDCHAR
STARTCHAR 038A
ENCODING 906
SWIDTH 384 0
DWIDTH 12 0
BBX 9 22 0 0
BITMAP
7380
7380
7380
E380
E380
C380
C380
0380
0380
0380
0380
0380
0380
0380
0380
0380
0380
0380
0380
0380
0380
0380
ENDCHAR
STARTCHAR 038C
ENCODING 908
SWIDTH 736 0
DWIDTH 23 0
BBX 22 22 -1 0
BITMAP
101F80
387FE0
38FFF0
71F0F8
71E078
73C038
E3C03C
03801C
03801C
03801C
03801C
03801C
03801C
03801C
03801C
03C03C
01C038
01C078
01F0F8
00FFF0
007FE0
001F80
ENDCHAR
STARTCHAR 038E
ENCODING 910
SWIDTH 704 0
DWIDTH 22 0
BBX 22 22 1 0
BITMAP
73803C
73C038
71C078
E1C070
E0E0F0
E0E0E0
C071E0
0071C0
003B80
003B80
001F00
001F00
000E00
000E00
000E00
000E00
000E00
000E00
000E00
000E00
000E00
000E00
ENDCHAR
STARTCHAR 038F
ENCODING 911
SWIDTH 768 0
DWIDTH 24 0
BBX 21 22 1 0
BITMAP
203F00
70FFC0
71FFE0
63E1F0
E3C0F0
E38070
C78078
078038
078038
078038
078038
078038
078038
078038
078038
078038
038070
038070
01C0E0
07F3F8
07F3F8
07F3F8
ENDCHAR
STARTCHAR 0390
ENCODING 912
SWIDTH 288 0
DWIDTH 9 0
BBX 12 26 -2 0
BITMAP
0300
0380
0700
0700
E670
EE70
E270
0000
0000
0000
0F00
0F00
0F00
0F00
0F00
0F00
0F00
0F00
0F00
0F00
0F00
0F00
0F00
07C0
07C0
03C0
ENDCHAR
STARTCHAR 0391
ENCODING 913
SWIDTH 640 0
DWIDTH 20 0
BBX 18 22 1 0
BITMAP
00E000
01E000
01E000
03F000
03F000
03F000
073800
073800
073800
0E1C00
0E1C00
1E0E00
1C0E00
1C0E00
3FFF00
3FFF00
3FFF00
780380
700380
7003C0
E001C0
E001C0
ENDCHAR
STARTCHAR 0392
ENCODING 914
SWIDTH 640 0
DWIDTH 20 0
BBX 15 22 3 0
BITMAP
FFE0
FFF8
FFFC
E01C
E01E
E00E
E00E
E01E
E01C
FFF8
FFE0
FFF8
E03C
E01E
E00E
E00E
E00E
E00E
E01E
FFFC
FFF8
FFE0
ENDCHAR
STARTCHAR 0393
ENCODING 915
SWIDTH 480 0
DWIDTH 15 0
BBX 12 22 3 0
BITMAP
FFF0
FFF0
FFF0
E000
E000
E000
E000
E000
E000
E000
E000
E000
E000
E000
E000
E000
E000
E000
E000
E000
E000
E000
ENDCHAR
STARTCHAR 0394
ENCODING 916
SWIDTH 640 0
DWIDTH 20 0
BBX 18 22 1 0
BITMAP
00E000
01E000
01E000
03F000
03F000
03F000
073800
073800
073800
0E1C00
0E1C00
1E0E00
1C0E00
1C0E00
3C0700
380700
380700
780380
700380
7FFFC0
FFFFC0
FFFFC0
ENDCHAR
STARTCHAR 0395
ENCODING 917
SWIDTH 608 0
DWIDTH 19 0
BBX 14 22 3 0
BITMAP
FFFC
FFFC
FFFC
E000
E000
E000
E000
E000
E000
E000
FFF0
FFF0
FFF0
E000
E000
E000
E000
E000
E000
FFFC
FFFC
FFFC
ENDCHAR
STARTCHAR 0396
ENCODING 918
SWIDTH 544 0
DWIDTH 17 0
BBX 14 22 2 0
BITMAP
FFF8
FFF8
FFF8
0078
0070
00F0
01E0
01C0
03C0
0380
0780
0F00
0E00
1E00
1C00
3C00
7800
7800
F000
FFFC
FFFC
FFFC
ENDCHAR
STARTCHAR 0397
ENCODING 919
SWIDTH 672 0
DWIDTH 21 0
BBX 15 22 3 0
BITMAP
E00E
E00E
E00E
E00E
E00E
E00E
E00E
E00E
E00E
E00E
FFFE
FFFE
FFFE
E00E
E00E
E00E
E00E
E00E
E00E
E00E
E00E
E00E
ENDCHAR
STARTCHAR 0398
ENCODING 920
SWIDTH 640 0
DWIDTH 20 0
BBX 16 22 2 0
BITMAP
07E0
1FF8
3FFC
7C3E
781E
700E
F00F
E007
E007
E007
E7E7
E7E7
E7E7
E007
E007
F00F
700E
781E
7C3E
3FFC
1FF8
07E0
ENDCHAR
STARTCHAR 0399
ENCODING 921
SWIDTH 288 0
DWIDTH 9 0
BBX 3 22 3 0
BITMAP
E0
E0
E0
E0
E0
E0
E0
E0
E0
E0
E0
E0
E0
E0
E0
E0
E0
E0
E0
E0
E0
E0
ENDCHAR
STARTCHAR 039A
ENCODING 922
SWIDTH 640 0
DWIDTH 20 0
BBX 16 22 3 0
BITMAP
E01E
E01C
E03C
E078
E0F0
E0E0
E1C0
E3C0
E780
EF80
EFC0
FDC0
F9E0
F8F0
F0F0
E078
E038
E03C
E01E
E01E
E00F
E00F
ENDCHAR
STARTCHAR 039B
ENCODING 923
SWIDTH 640 0
DWIDTH 20 0
BBX 18 22 1 0
BITMAP
00E000
01E000
01E000
03F000
03F000
03F000
073800
073800
073800
0E1C00
0E1C00
1E0E00
1C0E00
1C0E00
3C0700
380700
380700
780380
700380
7003C0
E001C0
E001C0
ENDCHAR
STARTCHAR 039C
ENCODING 924
SWIDTH 768 0
DWIDTH 24 0
BBX 18 22 3 0
BITMAP
E001C0
E001C0
F003C0
F003C0
F803C0
F807C0
F807C0
FC0FC0
FC0FC0
EE1DC0
EE1DC0
E739C0
E739C0
E3B9C0
E3F1C0
E3F1C0
E1E1C0
E1E1C0
E0C1C0
E001C0
E001C0
E001C0
ENDCHAR
STARTCHAR 039D
ENCODING 925
SWIDTH 704 0
DWIDTH 22 0
BBX 16 22 3 0
BITMAP
E007
E007
F007
F807
F807
FC07
FE07
EE07
E707
E787
E387
E3C7
E1C7
E0E7
E0F7
E077
E03F
E03F
E01F
E00F
E00F
E007
ENDCHAR
STARTCHAR 039E
ENCODING 926
SWIDTH 672 0
DWIDTH 21 0
BBX 15 22 3 0
BITMAP
FFFE
FFFE
FFFE
0000
0000
0000
0000
0000
0000
0000
7FFC
7FFC
7FFC
0000
0000
0000
0000
0000
0000
FFFE
FFFE
FFFE
ENDCHAR
STARTCHAR 039F
ENCODING 927
SWIDTH 640 0
DWIDTH 20 0
BBX 16 22 2 0
BITMAP
07E0
1FF8
3FFC
7C3E
781E
700E
F00F
E007
E007
E007
E007
E007
E007
E007
E007
F00F
700E
781E
7C3E
3FFC
1FF8
07E0
ENDCHAR
STARTCHAR 03A0
ENCODING 928
SWIDTH 672 0
DWIDTH 21 0
BBX 15 22 3 0
BITMAP
FFFE
FFFE
FFFE
E00E
E00E
E00E
E00E
E00E
E00E
E00E
E00E
E00E
E00E
E00E
E00E
E00E
E00E
E00E
E00E
E00E
E00E
E00E
ENDCHAR
STARTCHAR 03A1
ENCODING 929
SWIDTH 608 0
DWIDTH 19 0
BBX 15 22 3 0
BITMAP
FFE0
FFF8
FFFC
E03C
E01E
E00E
E00E
E00E
E01E
E03C
FFFC
FFF8
FFE0
E000
E000
E000
E000
E000
E000
E000
E000
E000
ENDCHAR
STARTCHAR 03A3
ENCODING 931
SWIDTH 448 0
DWIDTH 14 0
BBX 12 22 1 0
BITMAP
FFF0
FFF0
FFF0
7000
7800
3C00
1C00
1E00
0F00
0780
0380
0380
0780
0F00
1E00
1C00
3C00
7800
7000
FFF0
FFF0
FFF0
ENDCHAR
STARTCHAR 03A4
ENCODING 932
SWIDTH 480 0
DWIDTH 15 0
BBX 15 22 0 0
BITMAP
FFFE
FFFE
FFFE
0380
0380
0380
0380
0380
0380
0380
0380
0380
0380
0380
0380
0380
0380
0380
0380
0380
0380
0380
ENDCHAR
STARTCHAR 03A5
ENCODING 933
SWIDTH 512 0
DWIDTH 16 0
BBX 16 22 0 0
BITMAP
E00F
F00E
701E
781C
383C
3C38
1C78
1E70
0EF0
0FE0
07E0
07C0
03C0
0380
0380
0380
0380
0380
0380
0380
0380
0380
ENDCHAR
STARTCHAR 03A6
ENCODING 934
SWIDTH 800 0
DWIDTH 25 0
BBX 22 22 1 0
BITMAP
003800
003800
00FC00
07FFC0
1FFFE0
3E39F0
783878
70383C
70381C
E0381C
E0381C
E0381C
E0381C
70381C
70383C
783878
3E39F0
1FFFE0
07FFC0
00FC00
003800
003800
ENDCHAR
STARTCHAR 03A7
ENCODING 935
SWIDTH 576 0
DWIDTH 18 0
BBX 16 22 1 0
BITMAP
E00F
F00E
701C
383C
3C38
1C78
1E70
0EE0
07E0
07C0
03C0
03C0
07C0
0FE0
0EF0
1E70
1C38
383C
781C
701E
F00E
E007
ENDCHAR
STARTCHAR 03A8
ENCODING 936
SWIDTH 704 0
DWIDTH 22 0
BBX 18 22 2 0
BITMAP
F0E1C0
F0E1C0
F0E1C0
F0E1C0
F0E1C0
F0E1C0
F0E1C0
F0E1C0
F0E1C0
F0E1C0
70E380
70E380
78E780
3CEF00
3FFF00
0FFE00
03F000
00E000
00E000
00E000
00E000
00E000
ENDCHAR
STARTCHAR 03A9
ENCODING 937
SWIDTH 640 0
DWIDTH 20 0
BBX 16 22 2 0
BITMAP
07E0
1FF8
3FFC
7C3E
781E
700E
F00F
E007
E007
E007
E007
E007
E007
E007
E007
F00F
700E
700E
381C
FE7F
FE7F
FE7F
ENDCHAR
STARTCHAR 03AA
ENCODING 938
SWIDTH 288 0
DWIDTH 9 0
BBX 9 27 0 0
BITMAP
E380
E380
E380
0000
0000
1C00
1C00
1C00
1C00
1C00
1C00
1C00
1C00
1C00
1C00
1C00
1C00
1C00
1C00
1C00
1C00
1C00
1C00
1C00
1C00
1C00
1C00
ENDCHAR
STARTCHAR 03AB
ENCODING 939
SWIDTH 512 0
DWIDTH 16 0
BBX 16 27 0 0
BITMAP
1C70
1C70
1C70
0000
0000
E00F
F00E
701E
781C
383C
3C38
1C78
1E70
0EF0
0FE0
07E0
07C0
03C0
0380
0380
0380
0380
0380
0380
0380
0380
0380
ENDCHAR
STARTCHAR 03AC
ENCODING 940
SWIDTH 576 0
DWIDTH 18 0
BBX 15 26 2 0
BITMAP
0100
01C0
0380
0380
0380
0700
0700
0000
0000
0000
1E70
3FF0
7FF0
F0F0
E070
E070
E070
E070
E070
E070
E070
E070
F0F0
7FFE
3FBE
1F1E
ENDCHAR
STARTCHAR 03AD
ENCODING 941
SWIDTH 480 0
DWIDTH 15 0
BBX 11 26 2 0
BITMAP
0300
0380
0380
0700
0700
0600
0E00
0000
0000
0000
1F80
7FE0
FFE0
F040
E000
7000
7F00
3F00
7F00
E000
E000
E040
F0E0
FFE0
7FE0
1F80
ENDCHAR
STARTCHAR 03AE
ENCODING 942
SWIDTH 544 0
DWIDTH 17 0
BBX 13 30 2 -4
BITMAP
00C0
01C0
01C0
0180
0380
0380
0300
0000
0000
0000
F3C0
FFE0
FFF0
F878
F078
F038
F038
F038
F038
F038
F038
F038
F038
F038
F038
F038
0038
0038
0038
0038
ENDCHAR
STARTCHAR 03AF
ENCODING 943
SWIDTH 288 0
DWIDTH 9 0
BBX 6 26 2 0
BITMAP
18
38
38
38
70
70
60
00
00
00
F0
F0
F0
F0
F0
F0
F0
F0
F0
F0
F0
F0
F0
7C
7C
3C
ENDCHAR
STARTCHAR 03B0
ENCODING 944
SWIDTH 544 0
DWIDTH 17 0
BBX 14 26 1 0
BITMAP
00C0
01C0
01C0
0180
3BB8
3BB8
3938
0000
0000
0000
E01C
F01C
F81C
381C
381C
381C
381C
381C
381C
381C
381C
381C
3C3C
1FF8
1FF0
07E0
ENDCHAR
STARTCHAR 03B1
ENCODING 945
SWIDTH 576 0
DWIDTH 18 0
BBX 15 16 2 0
BITMAP
1E70
3FF0
7FF0
F0F0
E070
E070
E070
E070
E070
E070
E070
E070
F0F0
7FFE
3FBE
1F1E
ENDCHAR
STARTCHAR 03B2
ENCODING 946
SWIDTH 544 0
DWIDTH 17 0
BBX 13 28 2 -6
BITMAP
0FC0
3FE0
7FF0
7878
7078
F038
F038
F078
F070
F3E0
F3C0
F3F0
F070
F038
F038
F038
F038
F038
F878
FFF0
FFF0
F7C0
F000
F000
F000
F000
F000
F000
ENDCHAR
STARTCHAR 03B3
ENCODING 947
SWIDTH 512 0
DWIDTH 16 0
BBX 14 22 1 -6
BITMAP
E01C
F01C
F03C
7838
3838
3878
1C70
1C70
1CE0
0EE0
0EE0
07C0
07C0
07C0
0380
0380
0380
0380
0380
0380
0380
0380
ENDCHAR
STARTCHAR 03B4
ENCODING 948
SWIDTH 544 0
DWIDTH 17 0
BBX 13 22 2 0
BITMAP
7FF0
7FF0
7FF0
3C00
1F00
0F80
03C0
1FE0
78F0
7070
E038
E038
E038
E038
E038
E038
E038
F078
78F0
7FF0
3FE0
0F80
ENDCHAR
STARTCHAR 03B5
ENCODING 949
SWIDTH 480 0
DWIDTH 15 0
BBX 11 16 2 0
BITMAP
1F80
7FE0
FFE0
F040
E000
7000
7F00
3F00
7F00
E000
E000
E040
F0E0
FFE0
7FE0
1F80
ENDCHAR
STARTCHAR 03B6
ENCODING 950
SWIDTH 512 0
DWIDTH 16 0
BBX 13 26 2 -4
BITMAP
7FF0
7FF0
7FF0
00F0
01E0
03C0
0700
0E00
1C00
3C00
7800
7000
F000
E000
E000
E000
E000
F000
F000
7FF0
3FF8
0FF8
0038
0038
0038
0038
ENDCHAR
STARTCHAR 03B7
ENCODING 951
SWIDTH 544 0
DWIDTH 17 0
BBX 13 20 2 -4
BITMAP
F3C0
FFE0
FFF0
F878
F078
F038
F038
F038
F038
F038
F038
F038
F038
F038
F038
F038
0038
0038
0038
0038
ENDCHAR
STARTCHAR 03B8
ENCODING 952
SWIDTH 544 0
DWIDTH 17 0
BBX 13 22 2 0
BITMAP
0F80
3FE0
7FF0
78F0
F078
E038
E038
E038
E038
E038
FFF8
FFF8
FFF8
E038
E038
E038
E038
F078
70F0
7FF0
3FE0
0F80
ENDCHAR
STARTCHAR 03B9
ENCODING 953
SWIDTH 288 0
DWIDTH 9 0
BBX 6 16 2 0
BITMAP
F0
F0
F0
F0
F0
F0
F0
F0
F0
F0
F0
F0
F0
7C
7C
3C
ENDCHAR
STARTCHAR 03BA
ENCODING 954
SWIDTH 512 0
DWIDTH 16 0
BBX 14 16 2 0
BITMAP
F038
F078
F078
F0F0
F1E0
F3C0
F780
FF80
FFC0
FDC0
F8E0
F0F0
F070
F078
F038
F01C
ENDCHAR
STARTCHAR 03BB
ENCODING 955
SWIDTH 512 0
DWIDTH 16 0
BBX 15 22 1 0
BITMAP
3800
3C00
3E00
0E00
0F00
0700
0700
0380
0780
0780
07C0
0FC0
0FE0
1CE0
1CE0
3870
3870
3070
7038
703E
E03E
E01E
ENDCHAR
STARTCHAR 03BC
ENCODING 956
SWIDTH 576 0
DWIDTH 18 0
BBX 15 20 2 -4
BITMAP
F038
F038
F038
F038
F038
F038
F038
F038
F038
F038
F038
F038
F878
FFFE
EFDE
E78E
E000
E000
E000
F000
ENDCHAR
STARTCHAR 03BD
ENCODING 957
SWIDTH 512 0
DWIDTH 16 0
BBX 14 16 1 0
BITMAP
E03C
F038
F038
3878
3870
3870
1C70
1CE0
1CE0
0CC0
0FC0
0FC0
0780
0780
0780
0300
ENDCHAR
STARTCHAR 03BE
ENCODING 958
SWIDTH 544 0
DWIDTH 17 0
BBX 13 26 2 -4
BITMAP
FFF8
FFF8
FFF8
3800
7000
7000
7000
7000
7800
3FF0
0FF0
3FF0
7800
7000
E000
E000
E000
F000
7000
7FF0
3FF8
0FF8
0038
0038
0038
0038
ENDCHAR
STARTCHAR 03BF
ENCODING 959
SWIDTH 544 0
DWIDTH 17 0
BBX 13 16 2 0
BITMAP
0F80
3FE0
7FF0
78F0
F078
E038
E038
E038
E038
E038
E038
F078
78F0
7FF0
3FE0
0F80
ENDCHAR
STARTCHAR 03C0
ENCODING 960
SWIDTH 672 0
DWIDTH 21 0
BBX 17 16 2 0
BITMAP
FFFF80
FFFF80
FFFF80
1C1C00
1C1C00
1C1C00
1C1C00
1C1C00
1C1C00
1C1C00
1C1C00
1C1C00
1C1C00
1C1F80
1C0F80
1C0780
ENDCHAR
STARTCHAR 03C1
ENCODING 961
SWIDTH 544 0
DWIDTH 17 0
BBX 13 22 2 -6
BITMAP
0F80
3FE0
7FF0
7870
7078
F038
F038
F038
F038
F038
F038
F078
F078
FFF0
FFE0
F7C0
F000
F000
F000
F000
F000
F000
ENDCHAR
STARTCHAR 03C2
ENCODING 962
SWIDTH 480 0
DWIDTH 15 0
BBX 12 20 2 -4
BITMAP
0FC0
3FE0
7FF0
7870
F020
E000
E000
E000
E000
E000
E000
F000
7000
7F80
3FC0
0FE0
00E0
00E0
00E0
00E0
ENDCHAR
STARTCHAR 03C3
ENCODING 963
SWIDTH 576 0
DWIDTH 18 0
BBX 16 16 2 0
BITMAP
1FFF
3FFF
7FFF
F0E0
E070
E078
E038
E038
E038
E038
E078
F070
70F0
7FF0
3FE0
0F80
ENDCHAR
STARTCHAR 03C4
ENCODING 964
SWIDTH 512 0
DWIDTH 16 0
BBX 12 16 2 0
BITMAP
FFF0
FFF0
FFF0
0E00
0E00
0E00
0E00
0E00
0E00
0E00
0E00
0E00
0E00
0FC0
07C0
03C0
ENDCHAR
STARTCHAR 03C5
ENCODING 965
SWIDTH 544 0
DWIDTH 17 0
BBX 14 16 1 0
BITMAP
E01C
F01C
F81C
381C
381C
381C
381C
381C
381C
381C
381C
381C
3C3C
1FF8
1FF0
07E0
ENDCHAR
STARTCHAR 03C6
ENCODING 966
SWIDTH 672 0
DWIDTH 21 0
BBX 17 24 2 -4
BITMAP
01C000
01C000
01C000
01C000
07F000
3FFC00
7DFE00
71C700
E1C700
E1C380
E1C380
E1C380
E1C380
E1C380
E1C380
E1C700
71C700
7DFE00
3FFC00
07F000
01C000
01C000
01C000
01C000
ENDCHAR
STARTCHAR 03C7
ENCODING 967
SWIDTH 512 0
DWIDTH 16 0
BBX 15 22 0 -6
BITMAP
F01C
F81C
F83C
3C38
1C78
0E70
0E70
0FE0
07E0
07C0
03C0
0380
07C0
07C0
0EE0
0EE0
1E70
1C70
3C38
383E
781E
700E
ENDCHAR
STARTCHAR 03C8
ENCODING 968
SWIDTH 704 0
DWIDTH 22 0
BBX 18 24 2 -4
BITMAP
00E000
00E000
00E000
00E000
F0E1C0
F0E1C0
F0E1C0
F0E1C0
F0E1C0
F0E1C0
F0E1C0
F0E1C0
F0E1C0
70E380
70E380
78E780
3CEF00
3FFF00
0FFE00
03F000
00E000
00E000
00E000
00E000
ENDCHAR
STARTCHAR 03C9
ENCODING 969
SWIDTH 736 0
DWIDTH 23 0
BBX 19 16 2 0
BITMAP
1C0600
3C0780
7C07C0
F003C0
E001C0
E001E0
E001E0
E0E1E0
E0E1E0
E0E1E0
E0E1E0
E0E1E0
F1F1C0
7FFFC0
7FBF80
1E1F00
ENDCHAR
STARTCHAR 03CA
ENCODING 970
SWIDTH 288 0
DWIDTH 9 0
BBX 10 22 -1 0
BITMAP
E1C0
E1C0
E1C0
0000
0000
0000
1E00
1E00
1E00
1E00
1E00
1E00
1E00
1E00
1E00
1E00
1E00
1E00
1E00
0F80
0F80
0780
ENDCHAR
STARTCHAR 03CB
ENCODING 971
SWIDTH 544 0
DWIDTH 17 0
BBX 14 22 1 0
BITMAP
1C70
1C70
1C70
0000
0000
0000
E01C
F01C
F81C
381C
381C
381C
381C
381C
381C
381C
381C
381C
3C3C
1FF8
1FF0
07E0
ENDCHAR
STARTCHAR 03CC
ENCODING 972
SWIDTH 544 0
DWIDTH 17 0
BBX 13 26 2 0
BITMAP
0180
01C0
01C0
0380
0380
0380
0700
0000
0000
0000
0F80
3FE0
7FF0
78F0
F078
E038
E038
E038
E038
E038
E038
F078
78F0
7FF0
3FE0
0F80
ENDCHAR
STARTCHAR 03CD
ENCODING 973
SWIDTH 544 0
DWIDTH 17 0
BBX 14 26 1 0
BITMAP
00C0
00E0
00E0
01C0
01C0
01C0
0180
0000
0000
0000
E01C
F01C
F81C
381C
381C
381C
381C
381C
381C
381C
381C
381C
3C3C
1FF8
1FF0
07E0
ENDCHAR
STARTCHAR 03CE
ENCODING 974
SWIDTH 736 0
DWIDTH 23 0
BBX 19 26 2 0
BITMAP
002000
003800
003800
007000
007000
006000
00E000
002000
000000
000000
1C0600
3C0780
7C07C0
F003C0
E001C0
E001E0
E001E0
E0E1E0
E0E1E0
E0E1E0
E0E1E0
E0E1E0
F1F1C0
7FFFC0
7FBF80
1E1F00
ENDCHAR
STARTCHAR 03CF
ENCODING 975
SWIDTH 640 0
DWIDTH 20 0
BBX 16 28 3 -6
BITMAP
E01E
E01C
E03C
E078
E0F0
E0E0
E1C0
E3C0
E780
EF80
EFC0
FDC0
F9E0
F8F0
F0F0
E078
E038
E03C
E01E
E01E
E00F
E00F
000F
000F
001E
001E
003C
003C
ENDCHAR
STARTCHAR 03D0
ENCODING 976
SWIDTH 544 0
DWIDTH 17 0
BBX 13 22 2 0
BITMAP
0F80
3FE0
7FF0
78F0
F078
E038
E078
E070
E0F0
E7E0
E7C0
E7F0
E078
E038
E038
E038
E038
7038
7878
7FF0
3FE0
0FC0
ENDCHAR
STARTCHAR 03D1
ENCODING 977
SWIDTH 608 0
DWIDTH 19 0
BBX 17 22 1 0
BITMAP
03E000
0FF800
1FF800
1E3C00
1C1C00
1C1C00
1E1C00
1FFF80
0FFF80
C7FF80
F01C00
F81C00
781C00
381C00
381C00
381C00
381C00
3C1C00
1C3C00
1FF800
0FF800
07E000
ENDCHAR
STARTCHAR 03D2
ENCODING 978
SWIDTH 512 0
DWIDTH 16 0
BBX 17 22 0 0
BITMAP
E00780
F81F80
FC3F80
3E7C00
0FF000
07E000
03E000
03C000
03C000
03C000
01C000
01C000
01C000
01C000
01C000
01C000
01C000
01C000
01C000
01C000
01C000
01C000
ENDCHAR
STARTCHAR 03D3
ENCODING 979
SWIDTH 704 0
DWIDTH 22 0
BBX 23 22 0 1
BITMAP
73801E
73E07E
73F8FE
E0F9F0
E03FC0
C01F80
400F80
000F00
000F00
000F00
000700
000700
000700
000700
000700
000700
000700
000700
000700
000700
000700
000700
ENDCHAR
STARTCHAR 03D4
ENCODING 980
SWIDTH 512 0
DWIDTH 16 0
BBX 17 27 0 0
BITMAP
1C3800
1C3800
1C3800
1C3800
000000
E00780
F81F80
FC3F80
3E7C00
0FF000
07E000
03E000
03C000
03C000
03C000
01C000
01C000
01C000
01C000
01C000
01C000
01C000
01C000
01C000
01C000
01C000
01C000
ENDCHAR
STARTCHAR 03D5
ENCODING 981
SWIDTH 672 0
DWIDTH 21 0
BBX 17 20 2 -4
BITMAP
007C00
30FF00
79FF00
71C380
E1C380
E1C380
E1C380
E1C380
E1C380
E1C380
E1C380
E1C700
71CF00
7FFE00
3FFC00
07F000
01C000
01C000
01C000
01C000
ENDCHAR
STARTCHAR 03D6
ENCODING 982
SWIDTH 864 0
DWIDTH 27 0
BBX 23 16 2 0
BITMAP
FFFFFE
FFFFFE
FFFFFE
1C0070
380038
380038
380038
383838
383838
383838
383838
383838
3C7C78
3FEFF8
1FEFF0
0783C0
ENDCHAR
STARTCHAR 03D7
ENCODING 983
SWIDTH 672 0
DWIDTH 21 0
BBX 18 21 2 -5
BITMAP
F00700
F80700
FC0F00
1C1E00
1C3E00
1C3E00
1C7E00
1CEE00
1DCE00
1DCE00
1F9E00
1F1E00
1E0E00
1E0FC0
3C0FC0
3807C0
0001C0
0001C0
000FC0
000FC0
000F00
ENDCHAR
STARTCHAR 03D8
ENCODING 984
SWIDTH 640 0
DWIDTH 20 0
BBX 16 22 2 0
BITMAP
07E0
1FF8
3FFC
7C3E
781E
700E
F00F
E007
E007
E007
E007
F00F
700E
781E
3E7C
3FFC
0FF0
03C0
03C0
03C0
03C0
03C0
ENDCHAR
STARTCHAR 03D9
ENCODING 985
SWIDTH 544 0
DWIDTH 17 0
BBX 13 20 2 -4
BITMAP
0F80
3FE0
7FF0
78F0
F078
E038
E038
E038
E038
E038
E038
F078
78F0
7FF0
3FE0
0F80
0700
0700
0700
0700
ENDCHAR
STARTCHAR 03DA
ENCODING 986
SWIDTH 576 0
DWIDTH 18 0
BBX 15 27 2 -4
BITMAP
000E
000E
01FE
07FC
1FE0
3E00
3C00
7800
7000
7000
F000
E000
E000
E000
E000
F000
7000
7000
7800
3C00
3FF8
1FFC
07FE
000E
000E
000E
000E
ENDCHAR
STARTCHAR 03DB
ENCODING 987
SWIDTH 512 0
DWIDTH 16 0
BBX 13 21 2 -4
BITMAP
0038
0078
07F0
1FE0
3F00
7800
F000
E000
E000
E000
E000
E000
F000
7800
7FC0
3FF0
0FF0
0078
0078
0078
0078
ENDCHAR
STARTCHAR 03DC
ENCODING 988
SWIDTH 544 0
DWIDTH 17 0
BBX 14 22 3 0
BITMAP
FFFC
FFFC
FFFC
E000
E000
E000
E000
E000
E000
E000
FFF0
FFF0
FFF0
E000
E000
E000
E000
E000
E000
E000
E000
E000
ENDCHAR
STARTCHAR 03DD
ENCODING 989
SWIDTH 480 0
DWIDTH 15 0
BBX 11 22 3 -6
BITMAP
FFE0
FFE0
FFE0
E000
E000
E000
E000
E000
E000
E000
FFC0
FFC0
FFC0
E000
E000
E000
E000
E000
E000
E000
E000
E000
ENDCHAR
STARTCHAR 03DE
ENCODING 990
SWIDTH 640 0
DWIDTH 20 0
BBX 18 22 1 0
BITMAP
03C000
038000
070000
0F0000
0E0000
1E0000
1C0000
3C0000
380000
7FFFC0
FFFF80
FFFF80
000700
000700
000E00
000E00
001C00
001C00
003800
003800
007000
007000
ENDCHAR
STARTCHAR 03DF
ENCODING 991
SWIDTH 576 0
DWIDTH 18 0
BBX 16 22 1 -6
BITMAP
03C0
0380
0780
0700
0F00
0E00
1E00
1C00
3C00
3800
7FFF
7FFF
FFFE
001E
001C
003C
0038
0078
0070
00F0
00E0
01E0
ENDCHAR
STARTCHAR 03E0
ENCODING 992
SWIDTH 544 0
DWIDTH 17 0
BBX 14 22 1 0
BITMAP
7F00
FFC0
FFE0
81F0
0078
0038
01FC
0FFC
7FDC
7E1C
701C
00FC
07FC
3FFC
3F1C
183C
0038
0038
0038
0070
0070
00F0
ENDCHAR
STARTCHAR 03E1
ENCODING 993
SWIDTH 576 0
DWIDTH 18 0
BBX 15 28 1 -6
BITMAP
7F00
FFC0
FFE0
81F0
00F0
0078
0078
01FC
0FFC
7F9C
7E1C
701C
001C
003C
00FC
07FE
3FDC
1F1C
181C
001C
001C
001C
001C
003C
0038
0038
0078
0070
ENDCHAR
STARTCHAR 03E2
ENCODING 994
SWIDTH 960 0
DWIDTH 30 0
BBX 25 28 3 -6
BITMAP
E01C0780
E01C0780
E01C0780
E01C0780
E01C0780
E01C0780
E01C0780
E01C0780
E01C0780
E01C0780
E01C0780
E01C0780
E01C0780
E01C0780
E01C0780
E01C0780
E03C0780
E03C0780
F87E0F80
7FFFFF80
3FE7FF80
0F81F780
00000700
00000700
1FFFFF00
7FFFFE00
7FFFFC00
70000000
ENDCHAR
STARTCHAR 03E3
ENCODING 995
SWIDTH 800 0
DWIDTH 25 0
BBX 20 22 2 -6
BITMAP
F07070
F07070
F07070
F07070
F07070
F07070
F07070
F07070
F07070
F07070
F07070
707070
70F8F0
7FFFF0
3FDFF0
1F8F70
000070
0000F0
1FFFF0
7FFFE0
7FFFC0
700000
ENDCHAR
STARTCHAR 03E4
ENCODING 996
SWIDTH 608 0
DWIDTH 19 0
BBX 15 22 1 0
BITMAP
0F0E
3F0E
3F0E
780E
700E
700E
F00E
F00E
F00E
700E
701E
783E
3FFE
1FEE
0FCE
000E
000E
000E
000E
000E
000E
000E
ENDCHAR
STARTCHAR 03E5
ENCODING 997
SWIDTH 608 0
DWIDTH 19 0
BBX 15 22 2 -6
BITMAP
0E0E
3E0E
7E0E
780E
F00E
E00E
E00E
E00E
E00E
E00E
E00E
F01E
783E
7FFE
3FEE
0F8E
000E
000E
000E
000E
000E
000E
ENDCHAR
STARTCHAR 03E6
ENCODING 998
SWIDTH 608 0
DWIDTH 19 0
BBX 15 28 2 -6
BITMAP
F000
F000
F000
F000
F000
F000
F000
F000
F000
FFF0
FFFC
FFFC
F01E
F00E
F00E
F00E
F00E
F00E
F00E
F00E
F00E
F00E
000E
001E
1FFE
7FFC
7FF8
7000
ENDCHAR
STARTCHAR 03E7
ENCODING 999
SWIDTH 576 0
DWIDTH 18 0
BBX 14 17 2 -1
BITMAP
1F1C
7FDC
7FFC
F0FC
E07C
E078
F0F8
7FF8
7FFC
1F3C
003C
0038
0078
7FF0
FFF0
FFC0
E000
ENDCHAR
STARTCHAR 03E8
ENCODING 1000
SWIDTH 608 0
DWIDTH 19 0
BBX 16 22 2 0
BITMAP
07E0
3FF0
7FF8
3838
1038
0038
0038
0078
01F8
1FF0
3FE0
7E00
F000
E000
E000
E000
E000
E002
F80E
7FFF
3FFE
0FF0
ENDCHAR
STARTCHAR 03E9
ENCODING 1001
SWIDTH 480 0
DWIDTH 15 0
BBX 13 16 2 0
BITMAP
1F80
7FC0
7FE0
20E0
00E0
01E0
1FE0
7FC0
FF00
F000
E000
E010
E070
FFF8
7FF0
1F80
ENDCHAR
STARTCHAR 03EA
ENCODING 1002
SWIDTH 672 0
DWIDTH 21 0
BBX 19 22 1 0
BITMAP
3C0780
3E0F80
3E0F80
071C00
07BC00
03B800
03F000
01F000
00E000
01F000
01F000
03F800
07B800
071C00
0F1C00
0E0E00
1C0F00
3C0700
380380
7FFF80
7FFFC0
FFFFE0
ENDCHAR
STARTCHAR 03EB
ENCODING 1003
SWIDTH 544 0
DWIDTH 17 0
BBX 13 16 2 0
BITMAP
7070
78F0
78F0
1DC0
1FC0
0F80
0700
0700
0F80
1FC0
1DC0
38E0
78F0
7FF0
FFF8
FFF8
ENDCHAR
STARTCHAR 03EC
ENCODING 1004
SWIDTH 672 0
DWIDTH 21 0
BBX 17 23 2 0
BITMAP
000700
03FF00
1FFE00
3FFC00
780000
700000
E3F800
EFFC00
EFFE00
FC1F00
F00700
F00780
E00380
E00380
E00380
E00380
E00380
F00780
700700
7C1F00
3FFE00
1FFC00
07F000
ENDCHAR
STARTCHAR 03ED
ENCODING 1005
SWIDTH 544 0
DWIDTH 17 0
BBX 13 22 2 0
BITMAP
0038
03F0
1FF0
3FE0
7800
7000
E000
E7C0
FFF0
FFF0
F878
F038
F038
F038
F038
F038
7038
7038
7878
3FF0
3FE0
0FC0
ENDCHAR
STARTCHAR 03EE
ENCODING 1006
SWIDTH 480 0
DWIDTH 15 0
BBX 15 22 -1 0
BITMAP
0380
0380
0380
3FFE
7FFE
FFFE
E380
E380
E380
0380
0380
0380
0380
0380
0380
0380
0380
0380
0380
0380
0380
0380
ENDCHAR
STARTCHAR 03EF
ENCODING 1007
SWIDTH 448 0
DWIDTH 14 0
BBX 12 26 1 -6
BITMAP
0700
0700
0700
0700
FFF0
FFF0
FFF0
0700
0700
0700
0700
0700
0700
0700
0700
0700
0700
0700
0700
0700
0700
0700
0F00
7F00
7E00
7C00
ENDCHAR
STARTCHAR 03F0
ENCODING 1008
SWIDTH 608 0
DWIDTH 19 0
BBX 17 16 1 0
BITMAP
F00700
F80F00
FC0F00
1C1E00
1C3E00
1C3E00
1C7E00
1CEE00
1DCE00
1DDE00
1F9E00
1F1C00
1E1E00
3E0F80
3C0F80
380780
ENDCHAR
STARTCHAR 03F1
ENCODING 1009
SWIDTH 544 0
DWIDTH 17 0
BBX 13 22 2 -6
BITMAP
0F80
3FE0
7FF0
78F0
7078
F038
F038
F038
F038
F038
F038
F078
F078
FFF0
FFE0
F7C0
7000
7000
7FE0
3FF0
1FF0
0070
ENDCHAR
STARTCHAR 03F2
ENCODING 1010
SWIDTH 480 0
DWIDTH 15 0
BBX 12 16 2 0
BITMAP
0F80
3FE0
7FF0
7870
F020
E000
E000
E000
E000
E000
E000
F020
7870
7FF0
3FE0
0FC0
ENDCHAR
STARTCHAR 03F3
ENCODING 1011
SWIDTH 256 0
DWIDTH 8 0
BBX 6 28 0 -6
BITMAP
1C
1C
1C
00
00
00
1C
1C
1C
1C
1C
1C
1C
1C
1C
1C
1C
1C
1C
1C
1C
1C
1C
1C
1C
FC
FC
F8
ENDCHAR
STARTCHAR 03F4
ENCODING 1012
SWIDTH 640 0
DWIDTH 20 0
BBX 16 22 2 0
BITMAP
07E0
1FF8
3FFC
7C3E
781E
700E
F00F
E007
E007
E007
FFFF
FFFF
FFFF
E007
E007
F00F
700E
781E
7C3E
3FFC
1FF8
07E0
ENDCHAR
STARTCHAR 03F5
ENCODING 1013
SWIDTH 480 0
DWIDTH 15 0
BBX 12 16 2 0
BITMAP
0F80
3FE0
7FF0
7870
F020
E000
FFC0
FFC0
FFC0
E000
E000
F020
7870
7FF0
3FE0
0FC0
ENDCHAR
STARTCHAR 03F6
ENCODING 1014
SWIDTH 480 0
DWIDTH 15 0
BBX 12 16 1 0
BITMAP
1F80
7FC0
FFE0
70F0
2070
0070
1FF0
1FF0
1FF0
0070
0070
0070
20F0
FFE0
7FC0
1F80
ENDCHAR
STARTCHAR 03F7
ENCODING 1015
SWIDTH 608 0
DWIDTH 19 0
BBX 15 22 3 0
BITMAP
E000
E000
E000
E000
FFE0
FFF8
FFFC
E03C
E01E
E00E
E00E
E00E
E01E
E03C
FFFC
FFF8
FFE0
E000
E000
E000
E000
E000
ENDCHAR
STARTCHAR 03F8
ENCODING 1016
SWIDTH 544 0
DWIDTH 17 0
BBX 13 28 2 -6
BITMAP
F000
F000
F000
F000
F000
F000
F7C0
FFE0
FFF0
F070
F078
F038
F038
F038
F038
F038
F038
F078
F070
FFF0
FFE0
F7C0
F000
F000
F000
F000
F000
F000
ENDCHAR
STARTCHAR 03F9
ENCODING 1017
SWIDTH 608 0
DWIDTH 19 0
BBX 15 22 2 0
BITMAP
07E0
1FF0
3FF8
7C3C
781E
700E
F00E
E000
E000
E000
E000
E000
E000
E000
E000
F00E
700E
781E
7C3C
3FF8
1FF0
07E0
ENDCHAR
STARTCHAR 03FA
ENCODING 1018
SWIDTH 768 0
DWIDTH 24 0
BBX 18 22 3 0
BITMAP
E001C0
E001C0
F003C0
F003C0
F803C0
F807C0
F807C0
FC0FC0
FC0FC0
EE1DC0
EE1DC0
E739C0
E739C0
E3B9C0
E3F1C0
E3F1C0
E1E1C0
E1E1C0
E0C1C0
E001C0
E001C0
E001C0
ENDCHAR
STARTCHAR 03FB
ENCODING 1019
SWIDTH 640 0
DWIDTH 20 0
BBX 15 20 2 -4
BITMAP
E00E
F00E
F01E
F81E
FC3E
FC3E
FE7E
EE7E
E7EE
E7EE
E3CE
E38E
E18E
E00E
E00E
E00E
E000
E000
E000
E000
ENDCHAR
STARTCHAR 03FC
ENCODING 1020
SWIDTH 544 0
DWIDTH 17 0
BBX 14 22 1 -6
BITMAP
07C0
1FF0
3FF8
3C38
383C
781C
781C
781C
781C
781C
781C
783C
783C
7FF8
7FF0
7BE0
7800
FFC0
FFC0
FFC0
7800
7800
ENDCHAR
STARTCHAR 03FD
ENCODING 1021
SWIDTH 608 0
DWIDTH 19 0
BBX 15 22 2 0
BITMAP
07C0
1FF0
3FF8
787C
F01C
E01E
E00E
000E
000E
000E
000E
000E
000E
000E
000E
E00E
E01E
F01C
787C
3FF8
1FF0
07C0
ENDCHAR
STARTCHAR 03FE
ENCODING 1022
SWIDTH 608 0
DWIDTH 19 0
BBX 15 22 2 0
BITMAP
07E0
1FF0
3FF8
7C3C
781E
700E
F00E
E000
E000
E000
E1C0
E1C0
E1C0
E000
E000
F00E
700E
781E
7C3C
3FF8
1FF0
07E0
ENDCHAR
STARTCHAR 03FF
ENCODING 1023
SWIDTH 608 0
DWIDTH 19 0
BBX 15 22 2 0
BITMAP
07C0
1FF0
3FF8
787C
F01C
E01E
E00E
000E
000E
000E
070E
070E
070E
000E
000E
E00E
E01E
F01C
787C
3FF8
1FF0
07C0
ENDCHAR
STARTCHAR 0400
ENCODING 1024
SWIDTH 608 0
DWIDTH 19 0
BBX 14 29 3 0
BITMAP
0800
1C00
1E00
0F00
0700
0200
0000
FFFC
FFFC
FFFC
E000
E000
E000
E000
E000
E000
E000
FFF0
FFF0
FFF0
E000
E000
E000
E000
E000
E000
FFFC
FFFC
FFFC
ENDCHAR
STARTCHAR 0401
ENCODING 1025
SWIDTH 608 0
DWIDTH 19 0
BBX 14 27 3 0
BITMAP
3C70
3C70
3C70
0000
0000
FFFC
FFFC
FFFC
E000
E000
E000
E000
E000
E000
E000
FFF0
FFF0
FFF0
E000
E000
E000
E000
E000
E000
FFFC
FFFC
FFFC
ENDCHAR
STARTCHAR 0402
ENCODING 1026
SWIDTH 736 0
DWIDTH 23 0
BBX 21 22 0 0
BITMAP
FFFE00
FFFE00
FFFE00
038000
038000
038000
038000
038000
038F80
03BFE0
03FFF0
03E0F0
03C078
038038
038038
038038
038038
038078
0380F0
0387F0
0387E0
038780
ENDCHAR
STARTCHAR 0403
ENCODING 1027
SWIDTH 480 0
DWIDTH 15 0
BBX 12 29 3 1
BITMAP
00C0
01E0
03C0
0780
0300
0000
0000
FFF0
FFF0
FFF0
E000
E000
E000
E000
E000
E000
E000
E000
E000
E000
E000
E000
E000
E000
E000
E000
E000
E000
E000
ENDCHAR
STARTCHAR 0404
ENCODING 1028
SWIDTH 608 0
DWIDTH 19 0
BBX 15 22 2 0
BITMAP
07E0
1FF0
3FF8
7C3C
781E
700E
F00E
E000
E000
E000
FFF0
FFF0
FFF0
E000
E000
F00E
700E
781E
7C3C
3FF8
1FF0
07E0
ENDCHAR
STARTCHAR 0405
ENCODING 1029
SWIDTH 608 0
DWIDTH 19 0
BBX 15 22 2 0
BITMAP
07E0
1FFC
3FFE
781C
7004
F000
E000
F000
7800
7F00
3FF0
0FFC
00FE
001E
000E
000E
000E
400E
F03E
FFFC
7FF8
0FE0
ENDCHAR
STARTCHAR 0406
ENCODING 1030
SWIDTH 288 0
DWIDTH 9 0
BBX 3 22 3 0
BITMAP
E0
E0
E0
E0
E0
E0
E0
E0
E0
E0
E0
E0
E0
E0
E0
E0
E0
E0
E0
E0
E0
E0
ENDCHAR
STARTCHAR 0407
ENCODING 1031
SWIDTH 288 0
DWIDTH 9 0
BBX 9 27 0 0
BITMAP
E380
E380
E380
0000
0000
1C00
1C00
1C00
1C00
1C00
1C00
1C00
1C00
1C00
1C00
1C00
1C00
1C00
1C00
1C00
1C00
1C00
1C00
1C00
1C00
1C00
1C00
ENDCHAR
STARTCHAR 0408
ENCODING 1032
SWIDTH 512 0
DWIDTH 16 0
BBX 12 22 1 0
BITMAP
0070
0070
0070
0070
0070
0070
0070
0070
0070
0070
0070
0070
0070
0070
0070
0070
0070
00F0
61E0
FFE0
7FC0
3F00
ENDCHAR
STARTCHAR 0409
ENCODING 1033
SWIDTH 1024 0
DWIDTH 32 0
BBX 28 22 2 0
BITMAP
0FFFC000
0FFFC000
0FFFC000
0E03C000
0E03C000
0E03C000
0E03C000
0E03C000
0E03C000
0E03FF00
0E03FFC0
0E03FFE0
0E03C1E0
0E03C0E0
1E03C0F0
1E03C0F0
1C03C0F0
1C03C0E0
3C03C1E0
F803FFE0
F803FFC0
E003FF00
ENDCHAR
STARTCHAR 040A
ENCODING 1034
SWIDTH 1024 0
DWIDTH 32 0
BBX 27 22 3 0
BITMAP
E00E0000
E00E0000
E00E0000
E00E0000
E00E0000
E00E0000
E00E0000
E00E0000
E00E0000
E00FFE00
FFFFFF80
FFFFFFC0
FFFE03C0
E00E01C0
E00E01E0
E00E01E0
E00E01E0
E00E01C0
E00E03C0
E00FFFC0
E00FFF80
E00FFE00
ENDCHAR
STARTCHAR 040B
ENCODING 1035
SWIDTH 768 0
DWIDTH 24 0
BBX 21 22 0 0
BITMAP
FFFE00
FFFE00
FFFE00
038000
038000
038000
038FC0
03BFE0
03FFF0
03E0F8
03C038
038038
038038
038038
038038
038038
038038
038038
038038
038038
038038
038038
ENDCHAR
STARTCHAR 040C
ENCODING 1036
SWIDTH 640 0
DWIDTH 20 0
BBX 16 29 3 1
BITMAP
00C0
01E0
03C0
0780
0300
0000
0000
E01E
E01E
E03C
E038
E078
E0F0
E0E0
E1E0
E1C0
E380
FF80
FF00
FF80
E3C0
E1E0
E1F0
E0F0
E078
E03C
E03E
E01E
E00F
ENDCHAR
STARTCHAR 040D
ENCODING 1037
SWIDTH 704 0
DWIDTH 22 0
BBX 16 29 3 0
BITMAP
0C00
0E00
0F00
0780
0380
0100
0000
E007
E007
E00F
E01F
E01F
E03F
E077
E077
E0E7
E1C7
E1C7
E387
E707
E707
EE07
FE07
FC07
F807
F807
F007
E007
E007
ENDCHAR
STARTCHAR 040E
ENCODING 1038
SWIDTH 608 0
DWIDTH 19 0
BBX 17 28 1 1
BITMAP
0C1C00
0E1C00
0FF800
07F000
000000
000000
F00380
700380
700780
780700
380700
3C0E00
1C0E00
1E1E00
0E1C00
0E1C00
073C00
073800
07B800
03F000
03F000
01F000
01E000
00E000
01E000
1FC000
1F8000
1F0000
ENDCHAR
STARTCHAR 040F
ENCODING 1039
SWIDTH 672 0
DWIDTH 21 0
BBX 15 27 3 -5
BITMAP
E00E
E00E
E00E
E00E
E00E
E00E
E00E
E00E
E00E
E00E
E00E
E00E
E00E
E00E
E00E
E00E
E00E
E00E
E00E
FFFE
FFFE
FFFE
0380
0380
0380
0380
0380
ENDCHAR
STARTCHAR 0410
ENCODING 1040
SWIDTH 640 0
DWIDTH 20 0
BBX 18 22 1 0
BITMAP
00E000
01E000
01E000
03F000
03F000
03F000
073800
073800
073800
0E1C00
0E1C00
1E0E00
1C0E00
1C0E00
3FFF00
3FFF00
3FFF00
780380
700380
7003C0
E001C0
E001C0
ENDCHAR
STARTCHAR 0411
ENCODING 1041
SWIDTH 640 0
DWIDTH 20 0
BBX 15 22 3 0
BITMAP
FFF8
FFF8
FFF8
E000
E000
E000
E000
E000
E000
FFE0
FFF8
FFFC
E03C
E01E
E00E
E00E
E00E
E01E
E03C
FFFC
FFF8
FFE0
ENDCHAR
STARTCHAR 0412
ENCODING 1042
SWIDTH 640 0
DWIDTH 20 0
BBX 15 22 3 0
BITMAP
FFE0
FFF8
FFFC
E01C
E01E
E00E
E00E
E01E
E01C
FFF8
FFE0
FFF8
E03C
E01E
E00E
E00E
E00E
E00E
E01E
FFFC
FFF8
FFE0
ENDCHAR
STARTCHAR 0413
ENCODING 1043
SWIDTH 480 0
DWIDTH 15 0
BBX 12 22 3 0
BITMAP
FFF0
FFF0
FFF0
E000
E000
E000
E000
E000
E000
E000
E000
E000
E000
E000
E000
E000
E000
E000
E000
E000
E000
E000
ENDCHAR
STARTCHAR 0414
ENCODING 1044
SWIDTH 704 0
DWIDTH 22 0
BBX 20 27 1 -5
BITMAP
0FFF80
0FFF80
0FFF80
0E0380
0E0380
0E0380
0E0380
0E0380
0E0380
0E0380
0E0380
0E0380
0E0380
0E0380
0E0380
0E0380
1C0380
1C0380
380380
FFFFF0
FFFFF0
FFFFF0
E00070
E00070
E00070
E00070
E00070
ENDCHAR
STARTCHAR 0415
ENCODING 1045
SWIDTH 608 0
DWIDTH 19 0
BBX 14 22 3 0
BITMAP
FFFC
FFFC
FFFC
E000
E000
E000
E000
E000
E000
E000
FFF0
FFF0
FFF0
E000
E000
E000
E000
E000
E000
FFFC
FFFC
FFFC
ENDCHAR
STARTCHAR 0416
ENCODING 1046
SWIDTH 960 0
DWIDTH 30 0
BBX 28 22 1 0
BITMAP
700E01E0
780E01C0
3C0E03C0
1C0E0780
1E0E0780
0E0E0F00
070E0E00
078E1E00
038E3C00
01CE3800
01FFF800
01FFF800
03FFFC00
078E3C00
078E1E00
0F0E0F00
1E0E0F00
1E0E0780
3C0E03C0
780E03E0
F80E01E0
F00E00F0
ENDCHAR
STARTCHAR 0417
ENCODING 1047
SWIDTH 576 0
DWIDTH 18 0
BBX 14 22 2 0
BITMAP
0FC0
1FF0
3FF8
783C
F03C
E01C
001C
003C
0038
07F8
07E0
07F8
003C
001C
001C
001C
E01C
E01C
F83C
7FF8
3FF0
0FC0
ENDCHAR
STARTCHAR 0418
ENCODING 1048
SWIDTH 704 0
DWIDTH 22 0
BBX 16 22 3 0
BITMAP
E007
E007
E00F
E01F
E01F
E03F
E077
E077
E0E7
E1C7
E1C7
E387
E707
E707
EE07
FE07
FC07
F807
F807
F007
E007
E007
ENDCHAR
STARTCHAR 0419
ENCODING 1049
SWIDTH 704 0
DWIDTH 22 0
BBX 16 28 3 1
BITMAP
1838
1C38
1FF0
0FE0
0000
0000
E007
E007
E00F
E01F
E01F
E03F
E077
E077
E0E7
E1C7
E1C7
E387
E707
E707
EE07
FE07
FC07
F807
F807
F007
E007
E007
ENDCHAR
STARTCHAR 041A
ENCODING 1050
SWIDTH 640 0
DWIDTH 20 0
BBX 16 22 3 0
BITMAP
E01E
E01E
E03C
E038
E078
E0F0
E0E0
E1E0
E1C0
E380
FF80
FF00
FF80
E3C0
E1E0
E1F0
E0F0
E078
E03C
E03E
E01E
E00F
ENDCHAR
STARTCHAR 041B
ENCODING 1051
SWIDTH 704 0
DWIDTH 22 0
BBX 18 22 2 0
BITMAP
0FFFC0
0FFFC0
0FFFC0
0E03C0
0E03C0
0E03C0
0E03C0
0E03C0
0E03C0
0E03C0
0E03C0
0E03C0
0E03C0
0E03C0
1E03C0
1E03C0
1C03C0
1C03C0
3C03C0
F803C0
F803C0
E003C0
ENDCHAR
STARTCHAR 041C
ENCODING 1052
SWIDTH 768 0
DWIDTH 24 0
BBX 18 22 3 0
BITMAP
E001C0
E001C0
F003C0
F003C0
F803C0
F807C0
F807C0
FC0FC0
FC0FC0
EE1DC0
EE1DC0
E739C0
E739C0
E3B9C0
E3F1C0
E3F1C0
E1E1C0
E1E1C0
E0C1C0
E001C0
E001C0
E001C0
ENDCHAR
STARTCHAR 041D
ENCODING 1053
SWIDTH 672 0
DWIDTH 21 0
BBX 15 22 3 0
BITMAP
E00E
E00E
E00E
E00E
E00E
E00E
E00E
E00E
E00E
E00E
FFFE
FFFE
FFFE
E00E
E00E
E00E
E00E
E00E
E00E
E00E
E00E
E00E
ENDCHAR
STARTCHAR 041E
ENCODING 1054
SWIDTH 640 0
DWIDTH 20 0
BBX 16 22 2 0
BITMAP
07E0
1FF8
3FFC
7C3E
781E
700E
F00F
E007
E007
E007
E007
E007
E007
E007
E007
F00F
700E
781E
7C3E
3FFC
1FF8
07E0
ENDCHAR
STARTCHAR 041F
ENCODING 1055
SWIDTH 672 0
DWIDTH 21 0
BBX 15 22 3 0
BITMAP
FFFE
FFFE
FFFE
E00E
E00E
E00E
E00E
E00E
E00E
E00E
E00E
E00E
E00E
E00E
E00E
E00E
E00E
E00E
E00E
E00E
E00E
E00E
ENDCHAR
STARTCHAR 0420
ENCODING 1056
SWIDTH 608 0
DWIDTH 19 0
BBX 15 22 3 0
BITMAP
FFE0
FFF8
FFFC
E03C
E01E
E00E
E00E
E00E
E01E
E03C
FFFC
FFF8
FFE0
E000
E000
E000
E000
E000
E000
E000
E000
E000
ENDCHAR
STARTCHAR 0421
ENCODING 1057
SWIDTH 608 0
DWIDTH 19 0
BBX 15 22 2 0
BITMAP
07E0
1FF0
3FF8
7C3C
781E
700E
F00E
E000
E000
E000
E000
E000
E000
E000
E000
F00E
700E
781E
7C3C
3FF8
1FF0
07E0
ENDCHAR
STARTCHAR 0422
ENCODING 1058
SWIDTH 480 0
DWIDTH 15 0
BBX 15 22 0 0
BITMAP
FFFE
FFFE
FFFE
0380
0380
0380
0380
0380
0380
0380
0380
0380
0380
0380
0380
0380
0380
0380
0380
0380
0380
0380
ENDCHAR
STARTCHAR 0423
ENCODING 1059
SWIDTH 608 0
DWIDTH 19 0
BBX 17 22 1 0
BITMAP
F00380
700380
700780
780700
380700
3C0E00
1C0E00
1E1E00
0E1C00
0E1C00
073C00
073800
07B800
03F000
03F000
01F000
01E000
00E000
01E000
1FC000
1F8000
1F0000
ENDCHAR
STARTCHAR 0424
ENCODING 1060
SWIDTH 800 0
DWIDTH 25 0
BBX 22 22 1 0
BITMAP
003800
003800
00FC00
07FFC0
1FFFE0
3E39F0
783878
70383C
70381C
E0381C
E0381C
E0381C
E0381C
70381C
70383C
783878
3E39F0
1FFFE0
07FFC0
00FC00
003800
003800
ENDCHAR
STARTCHAR 0425
ENCODING 1061
SWIDTH 576 0
DWIDTH 18 0
BBX 16 22 1 0
BITMAP
E00F
F00E
701C
383C
3C38
1C78
1E70
0EE0
07E0
07C0
03C0
03C0
07C0
0FE0
0EF0
1E70
1C38
383C
781C
701E
F00E
E007
ENDCHAR
STARTCHAR 0426
ENCODING 1062
SWIDTH 704 0
DWIDTH 22 0
BBX 18 27 3 -5
BITMAP
E00E00
E00E00
E00E00
E00E00
E00E00
E00E00
E00E00
E00E00
E00E00
E00E00
E00E00
E00E00
E00E00
E00E00
E00E00
E00E00
E00E00
E00E00
E00E00
FFFFC0
FFFFC0
FFFFC0
0001C0
0001C0
0001C0
0001C0
0001C0
ENDCHAR
STARTCHAR 0427
ENCODING 1063
SWIDTH 608 0
DWIDTH 19 0
BBX 15 22 2 0
BITMAP
E00E
E00E
E00E
E00E
E00E
E00E
E00E
E00E
E00E
E01E
F01E
783E
7FEE
3FEE
0F8E
000E
000E
000E
000E
000E
000E
000E
ENDCHAR
STARTCHAR 0428
ENCODING 1064
SWIDTH 928 0
DWIDTH 29 0
BBX 23 22 3 0
BITMAP
E0380E
E0380E
E0380E
E0380E
E0380E
E0380E
E0380E
E0380E
E0380E
E0380E
E0380E
E0380E
E0380E
E0380E
E0380E
E0380E
E0380E
E0380E
E0380E
FFFFFE
FFFFFE
FFFFFE
ENDCHAR
STARTCHAR 0429
ENCODING 1065
SWIDTH 960 0
DWIDTH 30 0
BBX 26 27 3 -5
BITMAP
E0380E00
E0380E00
E0380E00
E0380E00
E0380E00
E0380E00
E0380E00
E0380E00
E0380E00
E0380E00
E0380E00
E0380E00
E0380E00
E0380E00
E0380E00
E0380E00
E0380E00
E0380E00
E0380E00
FFFFFFC0
FFFFFFC0
FFFFFFC0
000001C0
000001C0
000001C0
000001C0
000001C0
ENDCHAR
STARTCHAR 042A
ENCODING 1066
SWIDTH 704 0
DWIDTH 22 0
BBX 20 22 0 0
BITMAP
FF0000
FF0000
FF0000
070000
070000
070000
070000
070000
070000
07FF00
07FFC0
07FFE0
0701E0
0700F0
070070
070070
070070
0700F0
0701E0
07FFE0
07FFC0
07FF00
ENDCHAR
STARTCHAR 042B
ENCODING 1067
SWIDTH 832 0
DWIDTH 26 0
BBX 20 22 3 0
BITMAP
E00070
E00070
E00070
E00070
E00070
E00070
E00070
E00070
E00070
FFC070
FFF070
FFF870
E03C70
E01C70
E01C70
E01C70
E01C70
E01C70
E03C70
FFF870
FFF070
FFE070
ENDCHAR
STARTCHAR 042C
ENCODING 1068
SWIDTH 640 0
DWIDTH 20 0
BBX 15 22 3 0
BITMAP
E000
E000
E000
E000
E000
E000
E000
E000
E000
FFE0
FFF8
FFFC
E03C
E01E
E00E
E00E
E00E
E01E
E03C
FFFC
FFF8
FFE0
ENDCHAR
STARTCHAR 042D
ENCODING 1069
SWIDTH 608 0
DWIDTH 19 0
BBX 15 22 2 0
BITMAP
07C0
1FF0
3FF8
787C
F01C
E01E
E00E
000E
000E
000E
1FFE
1FFE
1FFE
000E
000E
E00E
E01E
F01C
787C
3FF8
1FF0
07C0
ENDCHAR
STARTCHAR 042E
ENCODING 1070
SWIDTH 896 0
DWIDTH 28 0
BBX 23 22 3 0
BITMAP
E00FC0
E03FF0
E07FF8
E0787C
E0F01C
E0E01E
E0E00E
E1E00E
E1E00E
E1E00E
FFE00E
FFE00E
FFE00E
E1E00E
E1E00E
E0E00E
E0E01E
E0F01C
E0787C
E07FF8
E03FF0
E00FC0
ENDCHAR
STARTCHAR 042F
ENCODING 1071
SWIDTH 608 0
DWIDTH 19 0
BBX 15 22 2 0
BITMAP
1FFE
3FFE
7FFE
F01E
E01E
E01E
E01E
E01E
E01E
F01E
7FFE
7FFE
1FFE
0F1E
0E1E
1E1E
1C1E
3C1E
781E
781E
F01E
E01E
ENDCHAR
STARTCHAR 0430
ENCODING 1072
SWIDTH 544 0
DWIDTH 17 0
BBX 12 16 2 0
BITMAP
1F80
7FE0
7FE0
20F0
0070
0070
07F0
7FF0
FFF0
E070
E070
E070
E070
FFF0
7FF0
3F70
ENDCHAR
STARTCHAR 0431
ENCODING 1073
SWIDTH 544 0
DWIDTH 17 0
BBX 13 22 2 0
BITMAP
0038
03F0
1FF0
3FE0
7800
7000
E000
E7C0
FFF0
FFF0
F878
F038
F038
F038
F038
F038
7038
7038
7878
3FF0
3FE0
0FC0
ENDCHAR
STARTCHAR 0432
ENCODING 1074
SWIDTH 544 0
DWIDTH 17 0
BBX 13 16 2 0
BITMAP
FFE0
FFF0
FFF8
F078
F038
F078
FFF0
FFC0
FFE0
F070
F038
F038
F038
FFF8
FFF0
FFE0
ENDCHAR
STARTCHAR 0433
ENCODING 1075
SWIDTH 416 0
DWIDTH 13 0
BBX 10 16 2 0
BITMAP
FFC0
FFC0
FFC0
F000
F000
F000
F000
F000
F000
F000
F000
F000
F000
F000
F000
F000
ENDCHAR
STARTCHAR 0434
ENCODING 1076
SWIDTH 640 0
DWIDTH 20 0
BBX 17 20 1 -4
BITMAP
0FFE00
0FFE00
0FFE00
0E1E00
0E1E00
0E1E00
0E1E00
0E1E00
0E1E00
1E1E00
1E1E00
1C1E00
1C1E00
FFFF80
FFFF80
FFFF80
E00380
E00380
E00380
E00380
ENDCHAR
STARTCHAR 0435
ENCODING 1077
SWIDTH 544 0
DWIDTH 17 0
BBX 13 16 2 0
BITMAP
0F80
3FE0
7FE0
7070
E070
E038
E038
FFF8
FFF8
E000
E000
F000
7860
7FF0
3FF0
0FC0
ENDCHAR
STARTCHAR 0436
ENCODING 1078
SWIDTH 704 0
DWIDTH 22 0
BBX 22 16 0 0
BITMAP
783878
383870
1C38F0
1E38E0
0E39C0
073BC0
07FF80
03FF00
07FF80
0F3BC0
0E39C0
1E38E0
3C38F0
383870
783878
F0383C
ENDCHAR
STARTCHAR 0437
ENCODING 1079
SWIDTH 480 0
DWIDTH 15 0
BBX 12 16 1 0
BITMAP
0F80
3FE0
7FE0
70F0
F070
00E0
07E0
07C0
07E0
0070
0070
7070
70F0
7FF0
3FE0
0F80
ENDCHAR
STARTCHAR 0438
ENCODING 1080
SWIDTH 576 0
DWIDTH 18 0
BBX 13 16 2 0
BITMAP
E038
E038
E078
E0F8
E0F8
E1F8
E3F8
E3B8
E738
EF38
EE38
FC38
FC38
F838
F038
E038
ENDCHAR
STARTCHAR 0439
ENCODING 1081
SWIDTH 576 0
DWIDTH 18 0
BBX 13 24 2 0
BITMAP
3870
3860
1FE0
1FE0
0F80
0000
0000
0000
E038
E038
E078
E0F8
E0F8
E1F8
E3F8
E3B8
E738
EF38
EE38
FC38
FC38
F838
F038
E038
ENDCHAR
STARTCHAR 043A
ENCODING 1082
SWIDTH 512 0
DWIDTH 16 0
BBX 14 16 2 0
BITMAP
F078
F0F0
F0E0
F1E0
F3C0
F380
FF00
FF00
FF80
F380
F3C0
F1E0
F0E0
F0F0
F078
F07C
ENDCHAR
STARTCHAR 043B
ENCODING 1083
SWIDTH 544 0
DWIDTH 17 0
BBX 14 16 1 0
BITMAP
1FFC
1FFC
1FFC
1C1C
1C1C
1C1C
1C1C
1C1C
1C1C
1C1C
1C1C
3C1C
3C1C
F81C
F01C
E01C
ENDCHAR
STARTCHAR 043C
ENCODING 1084
SWIDTH 640 0
DWIDTH 20 0
BBX 15 16 2 0
BITMAP
E00E
F00E
F01E
F81E
FC3E
FC3E
FE7E
EE7E
E7EE
E7EE
E3CE
E38E
E18E
E00E
E00E
E00E
ENDCHAR
STARTCHAR 043D
ENCODING 1085
SWIDTH 576 0
DWIDTH 18 0
BBX 13 16 2 0
BITMAP
F038
F038
F038
F038
F038
F038
F038
FFF8
FFF8
FFF8
F038
F038
F038
F038
F038
F038
ENDCHAR
STARTCHAR 043E
ENCODING 1086
SWIDTH 544 0
DWIDTH 17 0
BBX 13 16 2 0
BITMAP
0F80
3FE0
7FF0
78F0
F078
E038
E038
E038
E038
E038
E038
F078
78F0
7FF0
3FE0
0F80
ENDCHAR
STARTCHAR 043F
ENCODING 1087
SWIDTH 576 0
DWIDTH 18 0
BBX 13 16 2 0
BITMAP
FFF8
FFF8
FFF8
F038
F038
F038
F038
F038
F038
F038
F038
F038
F038
F038
F038
F038
ENDCHAR
STARTCHAR 0440
ENCODING 1088
SWIDTH 544 0
DWIDTH 17 0
BBX 13 22 2 -6
BITMAP
F7C0
FFE0
FFF0
F070
F078
F038
F038
F038
F038
F038
F038
F078
F070
FFF0
FFE0
F7C0
F000
F000
F000
F000
F000
F000
ENDCHAR
STARTCHAR 0441
ENCODING 1089
SWIDTH 480 0
DWIDTH 15 0
BBX 12 16 2 0
BITMAP
0F80
3FE0
7FF0
7870
F020
E000
E000
E000
E000
E000
E000
F020
7870
7FF0
3FE0
0FC0
ENDCHAR
STARTCHAR 0442
ENCODING 1090
SWIDTH 512 0
DWIDTH 16 0
BBX 12 16 2 0
BITMAP
FFF0
FFF0
FFF0
0E00
0E00
0E00
0E00
0E00
0E00
0E00
0E00
0E00
0E00
0E00
0E00
0E00
ENDCHAR
STARTCHAR 0443
ENCODING 1091
SWIDTH 480 0
DWIDTH 15 0
BBX 14 22 1 -6
BITMAP
E03C
E038
7038
7070
7070
3870
38E0
1CE0
1CE0
1DC0
0FC0
0FC0
0F80
0780
0780
0700
0700
0700
0E00
3E00
3E00
3C00
ENDCHAR
STARTCHAR 0444
ENCODING 1092
SWIDTH 704 0
DWIDTH 22 0
BBX 18 26 2 -5
BITMAP
00E000
00E000
00E000
00E000
00E000
3CEF00
7EFF80
7FFFC0
F1F3C0
E1E1C0
E0E1C0
E0E1C0
E0E1C0
E0E1C0
E0E1C0
E0E1C0
E1E1C0
F1F3C0
7FFFC0
7EFF80
3CEF00
00E000
00E000
00E000
00E000
00E000
ENDCHAR
STARTCHAR 0445
ENCODING 1093
SWIDTH 512 0
DWIDTH 16 0
BBX 14 16 1 0
BITMAP
F038
7878
3870
3CF0
1CE0
0FC0
0FC0
0780
0780
0FC0
0FC0
1CE0
3CF0
3870
7038
F03C
ENDCHAR
STARTCHAR 0446
ENCODING 1094
SWIDTH 608 0
DWIDTH 19 0
BBX 16 20 2 -4
BITMAP
F038
F038
F038
F038
F038
F038
F038
F038
F038
F038
F038
F038
F038
FFFF
FFFF
FFFF
0007
0007
0007
0007
ENDCHAR
STARTCHAR 0447
ENCODING 1095
SWIDTH 544 0
DWIDTH 17 0
BBX 13 16 2 0
BITMAP
E038
E038
E038
E038
E038
E038
F078
70F8
7FF8
3FB8
1F38
0038
0038
0038
0038
0038
ENDCHAR
STARTCHAR 0448
ENCODING 1096
SWIDTH 768 0
DWIDTH 24 0
BBX 19 16 2 0
BITMAP
F0E0E0
F0E0E0
F0E0E0
F0E0E0
F0E0E0
F0E0E0
F0E0E0
F0E0E0
F0E0E0
F0E0E0
F0E0E0
F0E0E0
F0E0E0
FFFFE0
FFFFE0
FFFFE0
ENDCHAR
STARTCHAR 0449
ENCODING 1097
SWIDTH 800 0
DWIDTH 25 0
BBX 22 20 2 -4
BITMAP
F0E0E0
F0E0E0
F0E0E0
F0E0E0
F0E0E0
F0E0E0
F0E0E0
F0E0E0
F0E0E0
F0E0E0
F0E0E0
F0E0E0
F0E0E0
FFFFFC
FFFFFC
FFFFFC
00001C
00001C
00001C
00001C
ENDCHAR
STARTCHAR 044A
ENCODING 1098
SWIDTH 608 0
DWIDTH 19 0
BBX 16 16 1 0
BITMAP
FE00
FE00
FE00
0E00
0E00
0E00
0FF8
0FFE
0FFF
0E0F
0E07
0E07
0E0F
0FFF
0FFE
0FF8
ENDCHAR
STARTCHAR 044B
ENCODING 1099
SWIDTH 704 0
DWIDTH 22 0
BBX 17 16 2 0
BITMAP
F00380
F00380
F00380
F00380
F00380
F00380
FF8380
FFE380
FFE380
F0F380
F07380
F07380
F0F380
FFE380
FFE380
FF8380
ENDCHAR
STARTCHAR 044C
ENCODING 1100
SWIDTH 512 0
DWIDTH 16 0
BBX 13 16 2 0
BITMAP
F000
F000
F000
F000
F000
F000
FFC0
FFE0
FFF0
F078
F078
F078
F078
FFF0
FFE0
FFC0
ENDCHAR
STARTCHAR 044D
ENCODING 1101
SWIDTH 480 0
DWIDTH 15 0
BBX 12 16 1 0
BITMAP
1F80
7FC0
FFE0
70F0
2070
0070
1FF0
1FF0
1FF0
0070
0070
0070
20F0
FFE0
7FC0
1F80
ENDCHAR
STARTCHAR 044E
ENCODING 1102
SWIDTH 768 0
DWIDTH 24 0
BBX 20 16 2 0
BITMAP
F01F00
F07FC0
F0FFE0
F0F0F0
F1E0F0
F1C070
FFC070
FFC070
FFC070
F1C070
F1C070
F1E0F0
F0F0F0
F0FFE0
F07FC0
F01F00
ENDCHAR
STARTCHAR 044F
ENCODING 1103
SWIDTH 544 0
DWIDTH 17 0
BBX 12 16 2 0
BITMAP
1FF0
7FF0
FFF0
F070
E070
E070
F070
FFF0
7FF0
1FF0
1C70
3C70
7870
7070
F070
E070
ENDCHAR
STARTCHAR 0450
ENCODING 1104
SWIDTH 544 0
DWIDTH 17 0
BBX 13 26 2 0
BITMAP
1000
3800
3800
1C00
0E00
0F00
0600
0000
0000
0000
0F80
3FE0
7FE0
7070
E070
E038
E038
FFF8
FFF8
E000
E000
F000
7860
7FF0
3FF0
0FC0
ENDCHAR
STARTCHAR 0451
ENCODING 1105
SWIDTH 544 0
DWIDTH 17 0
BBX 13 22 2 0
BITMAP
38E0
38E0
38E0
0000
0000
0000
0F80
3FE0
7FE0
7070
E070
E038
E038
FFF8
FFF8
E000
E000
F000
7860
7FF0
3FF0
0FC0
ENDCHAR
STARTCHAR 0452
ENCODING 1106
SWIDTH 576 0
DWIDTH 18 0
BBX 15 28 0 -6
BITMAP
1C00
1C00
1C00
FFF0
FFF0
FFF0
1C00
1C00
1CF0
1DFC
1FFE
1E1E
1C0E
1C0E
1C0E
1C0E
1C0E
1C0E
1C0E
1C0E
1C0E
1C0E
000E
000E
000E
003E
003E
003C
ENDCHAR
STARTCHAR 0453
ENCODING 1107
SWIDTH 416 0
DWIDTH 13 0
BBX 10 26 2 0
BITMAP
0080
01C0
03C0
0780
0700
0E00
0400
0000
0000
0000
FFC0
FFC0
FFC0
F000
F000
F000
F000
F000
F000
F000
F000
F000
F000
F000
F000
F000
ENDCHAR
STARTCHAR 0454
ENCODING 1108
SWIDTH 480 0
DWIDTH 15 0
BBX 12 16 2 0
BITMAP
0F80
3FE0
7FF0
7870
F020
E000
FFC0
FFC0
FFC0
E000
E000
F020
7870
7FF0
3FE0
0FC0
ENDCHAR
STARTCHAR 0455
ENCODING 1109
SWIDTH 512 0
DWIDTH 16 0
BBX 14 16 1 0
BITMAP
0FE0
3FF8
7FF8
7010
7000
7000
7F00
3FF0
1FF8
0078
001C
201C
7038
FFF8
7FF0
0FC0
ENDCHAR
STARTCHAR 0456
ENCODING 1110
SWIDTH 256 0
DWIDTH 8 0
BBX 4 22 2 0
BITMAP
F0
F0
F0
00
00
00
F0
F0
F0
F0
F0
F0
F0
F0
F0
F0
F0
F0
F0
F0
F0
F0
ENDCHAR
STARTCHAR 0457
ENCODING 1111
SWIDTH 256 0
DWIDTH 8 0
BBX 10 22 -1 0
BITMAP
E1C0
E1C0
E1C0
0000
0000
0000
1E00
1E00
1E00
1E00
1E00
1E00
1E00
1E00
1E00
1E00
1E00
1E00
1E00
1E00
1E00
1E00
ENDCHAR
STARTCHAR 0458
ENCODING 1112
SWIDTH 256 0
DWIDTH 8 0
BBX 6 28 0 -6
BITMAP
1C
1C
1C
00
00
00
1C
1C
1C
1C
1C
1C
1C
1C
1C
1C
1C
1C
1C
1C
1C
1C
1C
1C
1C
FC
FC
F8
ENDCHAR
STARTCHAR 0459
ENCODING 1113
SWIDTH 800 0
DWIDTH 25 0
BBX 22 16 1 0
BITMAP
1FFC00
1FFC00
1FFC00
1C1C00
1C1C00
1C1C00
1C1FE0
1C1FF8
1C1FFC
1C1C3C
1C1C1C
3C1C1C
3C1C3C
F81FFC
F01FF8
E01FE0
ENDCHAR
STARTCHAR 045A
ENCODING 1114
SWIDTH 832 0
DWIDTH 26 0
BBX 22 16 2 0
BITMAP
F03800
F03800
F03800
F03800
F03800
F03800
F03FE0
FFFFF8
FFFFF8
FFF83C
F0381C
F0381C
F0383C
F03FF8
F03FF8
F03FE0
ENDCHAR
STARTCHAR 045B
ENCODING 1115
SWIDTH 576 0
DWIDTH 18 0
BBX 15 22 0 0
BITMAP
1C00
1C00
1C00
FFF0
FFF0
FFF0
1C00
1C00
1CF0
1DFC
1FFC
1E1E
1C0E
1C0E
1C0E
1C0E
1C0E
1C0E
1C0E
1C0E
1C0E
1C0E
ENDCHAR
STARTCHAR 045C
ENCODING 1116
SWIDTH 512 0
DWIDTH 16 0
BBX 14 26 2 0
BITMAP
0080
01C0
01C0
0380
0700
0F00
0200
0000
0000
0000
F078
F0F0
F0E0
F1E0
F3C0
F380
FF00
FF00
FF80
F380
F3C0
F1E0
F0E0
F0F0
F078
F07C
ENDCHAR
STARTCHAR 045D
ENCODING 1117
SWIDTH 576 0
DWIDTH 18 0
BBX 13 26 2 0
BITMAP
0800
3800
3C00
1E00
0F00
0700
0200
0000
0000
0000
E038
E038
E078
E0F8
E0F8
E1F8
E3F8
E3B8
E738
EF38
EE38
FC38
FC38
F838
F038
E038
ENDCHAR
STARTCHAR 045E
ENCODING 1118
SWIDTH 480 0
DWIDTH 15 0
BBX 14 30 1 -6
BITMAP
3870
3860
1FE0
1FE0
0F80
0000
0000
0000
E03C
E038
7038
7070
7070
3870
38E0
1CE0
1CE0
1DC0
0FC0
0FC0
0F80
0780
0780
0700
0700
0700
0E00
3E00
3E00
3C00
ENDCHAR
STARTCHAR 045F
ENCODING 1119
SWIDTH 544 0
DWIDTH 17 0
BBX 13 20 2 -4
BITMAP
F038
F038
F038
F038
F038
F038
F038
F038
F038
F038
F038
F038
F038
FFF8
FFF8
FFF8
0700
0700
0700
0700
ENDCHAR
STARTCHAR 0460
ENCODING 1120
SWIDTH 1024 0
DWIDTH 32 0
BBX 28 22 2 0
BITMAP
07000E00
1F000F80
3F000FC0
7C0003E0
780000E0
700000F0
F0000070
E0000070
E0000070
E0000070
E0070070
E0070070
E0070070
E0070070
E0070070
F00F0070
700F00F0
781F80E0
7C3FC3E0
3FFDFFC0
1FF8FF80
07E03E00
ENDCHAR
STARTCHAR 0461
ENCODING 1121
SWIDTH 736 0
DWIDTH 23 0
BBX 21 16 1 0
BITMAP
E0F038
E07038
F07038
707070
703870
783870
383870
387C70
1C7CE0
1CFCE0
1CCCE0
0FCFC0
0F8FC0
0F8F80
070780
070700
ENDCHAR
STARTCHAR 0462
ENCODING 1122
SWIDTH 640 0
DWIDTH 20 0
BBX 19 22 -1 0
BITMAP
0E0000
0E0000
0E0000
FFF800
FFF800
FFF800
0E0000
0E0000
0E0000
0FFE00
0FFF80
0FFFC0
0E03C0
0E01C0
0E01E0
0E01E0
0E01E0
0E01C0
0E03C0
0FFFC0
0FFF80
0FFE00
ENDCHAR
STARTCHAR 0463
ENCODING 1123
SWIDTH 544 0
DWIDTH 17 0
BBX 15 20 0 0
BITMAP
1C00
1C00
1C00
FFE0
FFE0
FFE0
1C00
1C00
1C00
1C00
1FF0
1FFC
1FFE
1C1E
1C0E
1C0E
1C1E
1FFE
1FFC
1FF0
ENDCHAR
STARTCHAR 0464
ENCODING 1124
SWIDTH 832 0
DWIDTH 26 0
BBX 21 22 3 0
BITMAP
E03F00
E07FC0
E0FFE0
E1E1F0
E3C0F0
E38078
E38038
E38000
E38000
E38000
FFFFC0
FFFFC0
FFFFC0
E38000
E38000
E38038
E38078
E3C070
E1E1F0
E1FFE0
E07FC0
E03F00
ENDCHAR
STARTCHAR 0465
ENCODING 1125
SWIDTH 736 0
DWIDTH 23 0
BBX 20 16 2 0
BITMAP
F01F80
F07FE0
F0FFF0
F0F0E0
F1E040
F1C000
FFFF80
FFFF80
FFFF80
F1C000
F1C000
F1E040
F0F0E0
F0FFF0
F07FE0
F01F80
ENDCHAR
STARTCHAR 0466
ENCODING 1126
SWIDTH 640 0
DWIDTH 20 0
BBX 18 22 1 0
BITMAP
00E000
01E000
01E000
03F000
03F000
03F000
073800
073800
073800
0E1C00
0E1C00
1E0E00
1FFE00
1FFE00
3FFF00
39E700
39E700
79E380
71E380
71E3C0
E1E1C0
E1E1C0
ENDCHAR
STARTCHAR 0467
ENCODING 1127
SWIDTH 512 0
DWIDTH 16 0
BBX 15 16 1 0
BITMAP
0380
0780
07C0
07C0
0FC0
0EE0
1CE0
1C60
1C70
3FF0
3FF8
7FF8
73B8
739C
E39C
E39E
ENDCHAR
STARTCHAR 0468
ENCODING 1128
SWIDTH 864 0
DWIDTH 27 0
BBX 23 22 3 0
BITMAP
E00E00
E00F00
E00F00
E01F00
E01F80
E03B80
E03B80
E039C0
E071C0
E070E0
E070E0
E0E0E0
FFFFF0
FFFFF0
FFFFF0
E1CE38
E3CE38
E38E3C
E38E1C
E78E1C
E70E1E
E70E0E
ENDCHAR
STARTCHAR 0469
ENCODING 1129
SWIDTH 736 0
DWIDTH 23 0
BBX 21 16 2 0
BITMAP
F00E00
F01E00
F01E00
F03F00
F03F00
F03380
F07380
F07380
F0E1C0
FFFFC0
FFFFE0
FFFFE0
F1CCE0
F3CC70
F38C70
F38C78
ENDCHAR
STARTCHAR 046A
ENCODING 1130
SWIDTH 736 0
DWIDTH 23 0
BBX 22 22 0 0
BITMAP
7FFFFC
3FFFF8
3FFFF0
1E00F0
0F01E0
0F03C0
0783C0
03C780
03CF00
01EF00
07FFC0
0FFFE0
1FBBE0
1E38F0
3C3870
3C3878
3C3878
383878
783838
78383C
78383C
F0383C
ENDCHAR
STARTCHAR 046B
ENCODING 1131
SWIDTH 576 0
DWIDTH 18 0
BBX 18 16 0 0
BITMAP
7FFFC0
7FFF80
3FFF00
1C0F00
0E1E00
0F1C00
073800
0FFC00
1FFE00
3FFF00
38E780
78E380
70E380
70E380
F0E3C0
F0E1C0
ENDCHAR
STARTCHAR 046C
ENCODING 1132
SWIDTH 960 0
DWIDTH 30 0
BBX 27 22 3 0
BITMAP
E7FFFFC0
E3FFFF80
E1FFFF80
E1E00F00
E0F01E00
E0781E00
E0783C00
E03C7800
E01E7800
FFFFF000
FFFFFC00
FFFFFE00
E0FBBF00
E1E38F00
E1E38780
E3C38780
E3C38380
E3C383C0
E38383C0
E78383C0
E78381C0
E78381E0
ENDCHAR
STARTCHAR 046D
ENCODING 1133
SWIDTH 800 0
DWIDTH 25 0
BBX 23 16 2 0
BITMAP
F3FFFE
F3FFFC
F1FFF8
F0E078
F07070
F078E0
F039E0
FFFDC0
FFFFF0
FFFFF8
F1C738
F3C71C
F3871C
F3871C
F7871E
F7870E
ENDCHAR
STARTCHAR 046E
ENCODING 1134
SWIDTH 576 0
DWIDTH 18 0
BBX 14 35 2 -6
BITMAP
0820
1CF0
1FE0
0FC0
0780
0100
0000
0FC0
3FF0
7FF8
F878
F03C
E03C
003C
0038
0078
03F0
03E0
03F8
0038
003C
001C
001C
001C
003C
007C
3FF8
7FF0
FFC0
E000
E000
E000
FFE0
7FE0
3FE0
ENDCHAR
STARTCHAR 046F
ENCODING 1135
SWIDTH 448 0
DWIDTH 14 0
BBX 11 31 1 -6
BITMAP
2080
71E0
3FC0
1F80
0F00
0400
0000
0000
0000
0F80
3FC0
7FE0
71E0
70E0
01E0
07C0
0780
07E0
00E0
00E0
00E0
00E0
1FE0
7FC0
7F80
F000
E000
F000
7FC0
7FC0
1FC0
ENDCHAR
STARTCHAR 0470
ENCODING 1136
SWIDTH 704 0
DWIDTH 22 0
BBX 18 22 2 0
BITMAP
F0E1C0
F0E1C0
F0E1C0
F0E1C0
F0E1C0
F0E1C0
F0E1C0
F0E1C0
F0E1C0
F0E1C0
70E380
70E380
78E780
3CEF00
3FFF00
0FFE00
03F000
00E000
00E000
00E000
00E000
00E000
ENDCHAR
STARTCHAR 0471
ENCODING 1137
SWIDTH 704 0
DWIDTH 22 0
BBX 18 24 2 -4
BITMAP
00E000
00E000
00E000
00E000
F0E1C0
F0E1C0
F0E1C0
F0E1C0
F0E1C0
F0E1C0
F0E1C0
F0E1C0
F0E1C0
70E380
70E380
78E780
3CEF00
3FFF00
0FFE00
03F000
00E000
00E000
00E000
00E000
ENDCHAR
STARTCHAR 0472
ENCODING 1138
SWIDTH 640 0
DWIDTH 20 0
BBX 16 22 2 0
BITMAP
07E0
1FF8
3FFC
7C3E
781E
700E
F00F
E007
E007
E007
FFFF
FFFF
FFFF
E007
E007
F00F
700E
781E
7C3E
3FFC
1FF8
07E0
ENDCHAR
STARTCHAR 0473
ENCODING 1139
SWIDTH 544 0
DWIDTH 17 0
BBX 13 16 2 0
BITMAP
0F80
3FE0
7FF0
78F0
F078
E038
E038
FFF8
FFF8
E038
E038
F078
78F0
7FF0
3FE0
0F80
ENDCHAR
STARTCHAR 0474
ENCODING 1140
SWIDTH 608 0
DWIDTH 19 0
BBX 18 22 1 0
BITMAP
E003C0
E007C0
F007C0
700F00
700E00
700E00
381E00
381C00
381C00
1C3C00
1C3800
1C3800
0E3800
0E7000
0E7000
077000
07E000
07E000
07E000
03C000
03C000
03C000
ENDCHAR
STARTCHAR 0475
ENCODING 1141
SWIDTH 512 0
DWIDTH 16 0
BBX 14 16 1 0
BITMAP
E01C
F03C
707C
7070
3870
38E0
38E0
1CE0
1CC0
1DC0
0FC0
0F80
0F80
0780
0700
0700
ENDCHAR
STARTCHAR 0476
ENCODING 1142
SWIDTH 608 0
DWIDTH 19 0
BBX 18 29 1 0
BITMAP
102000
187000
3CF800
1E7C00
0E1C00
040800
000000
E003C0
E007C0
F007C0
700F00
700E00
700E00
381E00
381C00
381C00
1C3C00
1C3800
1C3800
0E3800
0E7000
0E7000
077000
07E000
07E000
07E000
03C000
03C000
03C000
ENDCHAR
STARTCHAR 0477
ENCODING 1143
SWIDTH 512 0
DWIDTH 16 0
BBX 14 26 1 0
BITMAP
2080
E1C0
F3C0
79E0
3CF0
1C70
0820
0000
0000
0000
E01C
F03C
707C
7070
3870
38E0
38E0
1CE0
1CC0
1DC0
0FC0
0F80
0F80
0780
0700
0700
ENDCHAR
STARTCHAR 0478
ENCODING 1144
SWIDTH 1088 0
DWIDTH 34 0
BBX 31 28 2 -6
BITMAP
07E00000
1FF80000
3FFC0000
7C3E0000
781E0000
700E0000
F00F380E
E007380E
E0071C0E
E0071C1C
E0071C1C
E0070E1C
E0070E38
E0070E38
E0070738
F00F0770
700E03F0
781E03F0
7C3E03E0
3FFC01E0
1FF801E0
07E001C0
000001C0
000001C0
00000380
00000F80
00000F80
00000F00
ENDCHAR
STARTCHAR 0479
ENCODING 1145
SWIDTH 992 0
DWIDTH 31 0
BBX 28 22 2 -6
BITMAP
0F81C070
3FE1C070
7FF0E070
78F0E0E0
F078E0E0
E03870E0
E03871C0
E03879C0
E03839C0
E0383B80
E0381F80
F0781F80
78F01F00
7FF00F00
3FE00F00
0F800E00
00000E00
00000E00
00001C00
00007C00
00007C00
00007800
ENDCHAR
STARTCHAR 047A
ENCODING 1146
SWIDTH 640 0
DWIDTH 20 0
BBX 16 26 2 -2
BITMAP
0180
0180
07E0
1FF8
3FFC
7DBE
799E
718E
F18F
E007
E007
E007
E007
E007
E007
E007
E007
F18F
718E
799E
7DBE
3FFC
1FF8
07E0
0180
0180
ENDCHAR
STARTCHAR 047B
ENCODING 1147
SWIDTH 544 0
DWIDTH 17 0
BBX 13 20 2 -2
BITMAP
0700
0700
0F80
3FE0
7FF0
7FF0
F778
E738
E038
E038
E038
E038
E738
F778
7FF0
7FF0
3FE0
0F80
0700
0700
ENDCHAR
STARTCHAR 047C
ENCODING 1148
SWIDTH 1024 0
DWIDTH 32 0
BBX 28 30 2 0
BITMAP
00007000
00007000
00FFF000
00FFF000
00FFF000
00F00000
00F00000
00000000
07000E00
1F000F80
3F000FC0
7C0003E0
780000E0
700000F0
F0000070
E0000070
E0000070
E0000070
E0070070
E0070070
E0070070
E0070070
E0070070
F00F0070
700F00F0
781F80E0
7C3FC3E0
3FFDFFC0
1FF8FF80
07E03E00
ENDCHAR
STARTCHAR 047D
ENCODING 1149
SWIDTH 736 0
DWIDTH 23 0
BBX 21 24 1 0
BITMAP
000700
000700
07FF00
07FF00
07FF00
070000
070000
000000
E0F038
E07038
F07038
707070
703870
783870
383870
387C70
1C7CE0
1CFCE0
1CCCE0
0FCFC0
0F8FC0
0F8F80
070780
070700
ENDCHAR
STARTCHAR 047E
ENCODING 1150
SWIDTH 1024 0
DWIDTH 32 0
BBX 28 27 2 0
BITMAP
00FFF000
00FFF000
00E67000
00E67000
00000000
07000E00
1F000F80
3F000FC0
7C0003E0
780000E0
700000F0
F0000070
E0000070
E0000070
E0000070
E0070070
E0070070
E0070070
E0070070
E0070070
F00F0070
700F00F0
781F80E0
7C3FC3E0
3FFDFFC0
1FF8FF80
07E03E00
ENDCHAR
STARTCHAR 047F
ENCODING 1151
SWIDTH 736 0
DWIDTH 23 0
BBX 21 23 1 0
BITMAP
0FFF00
0FFF00
0E6700
0E6700
000000
000000
000000
E0F038
E07038
F07038
707070
703870
783870
383870
387C70
1C7CE0
1CFCE0
1CCCE0
0FCFC0
0F8FC0
0F8F80
070780
070700
ENDCHAR
STARTCHAR 0480
ENCODING 1152
SWIDTH 640 0
DWIDTH 20 0
BBX 16 22 2 0
BITMAP
03F0
1FF8
3FFC
3C1E
780F
7007
F007
F000
E000
E000
E000
F000
7000
7800
3C00
3FE0
1FE0
03E0
00E0
00E0
00E0
00E0
ENDCHAR
STARTCHAR 0481
ENCODING 1153
SWIDTH 480 0
DWIDTH 15 0
BBX 12 20 2 -4
BITMAP
0F80
3FE0
7FF0
7870
F020
E000
E000
E000
E000
E000
E000
F000
7000
7F80
3F80
0F80
0380
0380
0380
0380
ENDCHAR
STARTCHAR 0482
ENCODING 1154
SWIDTH 608 0
DWIDTH 19 0
BBX 17 22 1 0
BITMAP
000400
000700
000E00
021E00
079C00
07F800
01F800
007C00
00FF00
00EF80
41E300
71C000
FF8000
3F8000
0F8000
0FE000
0FF800
1C7000
1C3000
380000
780000
100000
ENDCHAR
STARTCHAR 0483
ENCODING 1155
SWIDTH 0 0
DWIDTH 0 0
BBX 11 7 -12 17
BITMAP
00E0
00E0
FFE0
FFE0
FFE0
E000
E000
ENDCHAR
STARTCHAR 0484
ENCODING 1156
SWIDTH 0 0
DWIDTH 0 0
BBX 11 5 -11 18
BITMAP
0780
1FC0
FFE0
F8E0
E0E0
ENDCHAR
STARTCHAR 0485
ENCODING 1157
SWIDTH 0 0
DWIDTH 0 0
BBX 11 7 -12 17
BITMAP
E000
E000
FFE0
FFE0
FFE0
E000
E000
ENDCHAR
STARTCHAR 0486
ENCODING 1158
SWIDTH 0 0
DWIDTH 0 0
BBX 11 7 -12 17
BITMAP
00E0
00E0
FFE0
FFE0
FFE0
00E0
00E0
ENDCHAR
STARTCHAR 0487
ENCODING 1159
SWIDTH 0 0
DWIDTH 0 0
BBX 11 5 -11 18
BITMAP
7C00
7F00
FFE0
E3E0
E0E0
ENDCHAR
STARTCHAR 0488
ENCODING 1160
SWIDTH 0 0
DWIDTH 0 0
BBX 32 28 -33 -3
BITMAP
0003E000
0007F000
000E7000
000E3000
0F8001F0
1FC003F8
18C0039C
18E0031C
00000000
00000000
00000000
3C00003C
7E00007F
E7000067
E30000E3
00000000
00000000
00000000
070000E0
0FC001F8
1DC003B8
18E0031C
18E0031C
00000000
0003E000
0007F000
000E3000
000E3000
ENDCHAR
STARTCHAR 0489
ENCODING 1161
SWIDTH 0 0
DWIDTH 0 0
BBX 28 28 -31 -2
BITMAP
00010000
00030000
00070000
00070000
0C070000
0E070300
0F0007C0
07800F00
03000600
00000000
00000000
00000000
FC0001C0
7C0001E0
3C0001F0
00000000
00000000
00000000
02000400
07000E00
0F800F00
1F000700
00070300
00070100
00070000
00070000
00060000
00040000
ENDCHAR
STARTCHAR 048A
ENCODING 1162
SWIDTH 704 0
DWIDTH 22 0
BBX 19 33 3 -5
BITMAP
183800
1C3800
1FF000
07E000
000000
000000
E00700
E00700
E00F00
E01F00
E01F00
E03F00
E07700
E07700
E0E700
E1C700
E1C700
E38700
E70700
E70700
EE0700
FE0700
FC0700
F80700
F80700
F007E0
E007E0
E007E0
0001C0
0001C0
0001C0
0001C0
0001C0
ENDCHAR
STARTCHAR 048B
ENCODING 1163
SWIDTH 576 0
DWIDTH 18 0
BBX 16 28 2 -4
BITMAP
3870
3860
1FE0
1FE0
0F80
0000
0000
0000
E038
E038
E078
E0F8
E0F8
E1F8
E3F8
E3B8
E738
EF38
EE38
FC38
FC38
F83F
F03F
E03F
000E
000E
000E
000E
ENDCHAR
STARTCHAR 048C
ENCODING 1164
SWIDTH 672 0
DWIDTH 21 0
BBX 18 22 1 0
BITMAP
1C0000
1C0000
1C0000
FFC000
FFC000
FFC000
1C0000
1C0000
1C0000
1FFC00
1FFF00
1FFF80
1C0780
1C0380
1C03C0
1C01C0
1C03C0
1C0380
1C0780
1FFF80
1FFF00
1FFC00
ENDCHAR
STARTCHAR 048D
ENCODING 1165
SWIDTH 544 0
DWIDTH 17 0
BBX 15 22 0 0
BITMAP
1C00
1C00
1C00
1C00
1C00
1C00
FF80
FF80
FF80
1C00
1C00
1C00
1FF0
1FFC
1FFE
1C1E
1C0E
1C0E
1C1E
1FFE
1FFC
1FF0
ENDCHAR
STARTCHAR 048E
ENCODING 1166
SWIDTH 608 0
DWIDTH 19 0
BBX 15 22 3 0
BITMAP
FFE0
FFF8
FFFC
E03C
E01E
E00E
E00E
E18E
E39E
E1FC
FFFC
FFF8
FFF0
E038
E038
E01C
E000
E000
E000
E000
E000
E000
ENDCHAR
STARTCHAR 048F
ENCODING 1167
SWIDTH 544 0
DWIDTH 17 0
BBX 13 22 2 -6
BITMAP
F7C0
FFE0
FFF0
F070
F078
F038
F038
F038
F038
F238
F738
F3F8
F3F0
FFF0
FFE0
F7E0
F070
F070
F020
F000
F000
F000
ENDCHAR
STARTCHAR 0490
ENCODING 1168
SWIDTH 480 0
DWIDTH 15 0
BBX 12 26 3 0
BITMAP
0070
0070
0070
0070
FFF0
FFF0
FFF0
E000
E000
E000
E000
E000
E000
E000
E000
E000
E000
E000
E000
E000
E000
E000
E000
E000
E000
E000
ENDCHAR
STARTCHAR 0491
ENCODING 1169
SWIDTH 416 0
DWIDTH 13 0
BBX 10 19 2 0
BITMAP
01C0
01C0
01C0
FFC0
FFC0
FFC0
F000
F000
F000
F000
F000
F000
F000
F000
F000
F000
F000
F000
F000
ENDCHAR
STARTCHAR 0492
ENCODING 1170
SWIDTH 576 0
DWIDTH 18 0
BBX 16 22 2 0
BITMAP
0FFF
0FFF
0FFF
0E00
0E00
0E00
0E00
0E00
0E00
0E00
FFF0
FFF0
FFF0
0E00
0E00
0E00
0E00
0E00
0E00
0E00
0E00
0E00
ENDCHAR
STARTCHAR 0493
ENCODING 1171
SWIDTH 480 0
DWIDTH 15 0
BBX 13 16 1 0
BITMAP
1FF8
1FF8
1FF8
1C00
1C00
1C00
1C00
FFC0
FFC0
FFC0
1C00
1C00
1C00
1C00
1C00
1C00
ENDCHAR
STARTCHAR 0494
ENCODING 1172
SWIDTH 640 0
DWIDTH 20 0
BBX 16 26 3 -4
BITMAP
FFF0
FFF0
FFF0
E000
E000
E000
E000
E000
E000
E3E0
EFF8
FFFC
F83E
F00E
E00F
E007
E007
E007
E007
E007
E00F
E00E
003E
01FC
01F8
01E0
ENDCHAR
STARTCHAR 0495
ENCODING 1173
SWIDTH 544 0
DWIDTH 17 0
BBX 14 22 2 -6
BITMAP
FFC0
FFC0
FFC0
F000
F000
F000
F7C0
FFF0
FFF0
F878
F038
F03C
F01C
F01C
F01C
F01C
003C
0038
0078
03F8
03F0
03C0
ENDCHAR
STARTCHAR 0496
ENCODING 1174
SWIDTH 992 0
DWIDTH 31 0
BBX 29 27 1 -5
BITMAP
700E01E0
780E01C0
3C0E03C0
1C0E0780
1E0E0780
0E0E0F00
070E0E00
078E1E00
038E3C00
01CE3800
01FFF800
01FFF800
03FFFC00
078E3C00
078E1E00
0F0E0F00
1E0E0F00
1E0E0780
3C0E03C0
780E03F8
F80E01F8
F00E00F8
00000038
00000038
00000038
00000038
00000038
ENDCHAR
STARTCHAR 0497
ENCODING 1175
SWIDTH 736 0
DWIDTH 23 0
BBX 23 20 0 -4
BITMAP
783878
383870
1C38F0
1E38E0
0E39C0
073BC0
07FF80
03FF00
07FF80
0F3BC0
0E39C0
1E38E0
3C38F0
38387E
78387E
F0383E
00000E
00000E
00000E
00000E
ENDCHAR
STARTCHAR 0498
ENCODING 1176
SWIDTH 576 0
DWIDTH 18 0
BBX 14 26 2 -4
BITMAP
0FC0
3FF0
7FF8
783C
F03C
E01C
001C
003C
0038
07F8
07E0
07F8
003C
001C
001C
001C
E01C
E01C
F83C
7FF8
3FF0
0FC0
0380
0380
0380
0380
ENDCHAR
STARTCHAR 0499
ENCODING 1177
SWIDTH 448 0
DWIDTH 14 0
BBX 12 20 1 -4
BITMAP
0F80
3FE0
7FE0
70F0
E0F0
0070
00E0
07C0
07E0
07F0
0070
E070
7070
7FF0
3FE0
0F80
0700
0700
0700
0700
ENDCHAR
STARTCHAR 049A
ENCODING 1178
SWIDTH 672 0
DWIDTH 21 0
BBX 17 27 3 -5
BITMAP
E01E00
E01E00
E03C00
E03800
E07800
E0F000
E0E000
E1E000
E1C000
E38000
FF8000
FF0000
FF8000
E3C000
E1E000
E1F000
E0F000
E07800
E03C00
E03F80
E01F80
E00F80
000380
000380
000380
000380
000380
ENDCHAR
STARTCHAR 049B
ENCODING 1179
SWIDTH 544 0
DWIDTH 17 0
BBX 15 20 2 -4
BITMAP
F078
F0F0
F0E0
F1E0
F3C0
F380
FF00
FF00
FF80
F380
F3C0
F1E0
F0E0
F0FE
F07E
F07E
000E
000E
000E
000E
ENDCHAR
STARTCHAR 049C
ENCODING 1180
SWIDTH 640 0
DWIDTH 20 0
BBX 16 22 3 0
BITMAP
E00E
E01E
E01C
E03C
E038
E078
EC70
ECE0
ECE0
EDC0
FFC0
FFC0
FFC0
EDE0
ECF0
ECF0
EC78
E03C
E03C
E01E
E01F
E00F
ENDCHAR
STARTCHAR 049D
ENCODING 1181
SWIDTH 512 0
DWIDTH 16 0
BBX 14 16 2 0
BITMAP
F078
F0F0
FCF0
FDE0
FDE0
FFC0
FF80
FF80
FF80
FFC0
FDE0
FDE0
FCF0
F070
F078
F03C
ENDCHAR
STARTCHAR 049E
ENCODING 1182
SWIDTH 672 0
DWIDTH 21 0
BBX 20 22 0 0
BITMAP
0E00E0
0E01E0
FFC3C0
FFC380
FFC780
0E0F00
0E0E00
0E1E00
0E1C00
0E3800
0FF800
0FF000
0FF800
0E3C00
0E1E00
0E1F00
0E0F00
0E0780
0E03C0
0E03E0
0E01E0
0E00F0
ENDCHAR
STARTCHAR 049F
ENCODING 1183
SWIDTH 544 0
DWIDTH 17 0
BBX 16 22 0 0
BITMAP
1C00
1C00
FF80
FF80
FF80
1C00
1C0E
1C1E
1C3C
1C38
1C78
1C70
1CE0
1FE0
1FC0
1FE0
1CF0
1C78
1C3C
1C1E
1C1E
1C0F
ENDCHAR
STARTCHAR 04A0
ENCODING 1184
SWIDTH 736 0
DWIDTH 23 0
BBX 23 22 0 0
BITMAP
FF803C
FF8078
FF8070
0380F0
0381E0
0381C0
0383C0
038780
038700
038F00
03FE00
03FE00
03FF00
038F00
038780
0383C0
0381E0
0381E0
0380F0
038078
03803C
03803E
ENDCHAR
STARTCHAR 04A1
ENCODING 1185
SWIDTH 640 0
DWIDTH 20 0
BBX 18 16 1 0
BITMAP
FF0380
FF0780
FF0F00
070E00
071E00
073C00
07F800
07F800
07F800
073C00
071E00
070F00
070F00
070780
0703C0
0703C0
ENDCHAR
STARTCHAR 04A2
ENCODING 1186
SWIDTH 704 0
DWIDTH 22 0
BBX 18 27 3 -5
BITMAP
E00E00
E00E00
E00E00
E00E00
E00E00
E00E00
E00E00
E00E00
E00E00
E00E00
FFFE00
FFFE00
FFFE00
E00E00
E00E00
E00E00
E00E00
E00E00
E00E00
E00FC0
E00FC0
E00FC0
0001C0
0001C0
0001C0
0001C0
0001C0
ENDCHAR
STARTCHAR 04A3
ENCODING 1187
SWIDTH 576 0
DWIDTH 18 0
BBX 16 20 2 -4
BITMAP
F038
F038
F038
F038
F038
F038
F038
FFF8
FFF8
FFF8
F038
F038
F038
F03F
F03F
F03F
0007
0007
0007
0007
ENDCHAR
STARTCHAR 04A4
ENCODING 1188
SWIDTH 800 0
DWIDTH 25 0
BBX 23 22 3 0
BITMAP
E00FFE
E00FFE
E00FFE
E00E00
E00E00
E00E00
E00E00
E00E00
E00E00
E00E00
FFFE00
FFFE00
FFFE00
E00E00
E00E00
E00E00
E00E00
E00E00
E00E00
E00E00
E00E00
E00E00
ENDCHAR
STARTCHAR 04A5
ENCODING 1189
SWIDTH 704 0
DWIDTH 22 0
BBX 20 16 2 0
BITMAP
F03FF0
F03FF0
F03FF0
F03800
F03800
F03800
F03800
FFF800
FFF800
FFF800
F03800
F03800
F03800
F03800
F03800
F03800
ENDCHAR
STARTCHAR 04A6
ENCODING 1190
SWIDTH 1056 0
DWIDTH 33 0
BBX 28 26 3 -4
BITMAP
FFFE0000
FFFE0000
FFFE0000
E00E0000
E00E0000
E00E0000
E00E0000
E00E0000
E00E0000
E00E3F00
E00EFFC0
E00FFFE0
E00FC1E0
E00F00F0
E00F0070
E00E0070
E00E0070
E00E0070
E00E0070
E00E0070
E00E0070
E00E00F0
000001E0
00000FE0
00000FC0
00000F00
ENDCHAR
STARTCHAR 04A7
ENCODING 1191
SWIDTH 864 0
DWIDTH 27 0
BBX 24 22 2 -6
BITMAP
FFF800
FFF800
FFF800
F03800
F03800
F03800
F039F0
F03BFC
F03FFC
F03E1E
F03C0E
F0380E
F0380F
F03807
F0380F
F0380F
00000E
00000E
00001E
0000FC
0000F8
0000F0
ENDCHAR
STARTCHAR 04A8
ENCODING 1192
SWIDTH 704 0
DWIDTH 22 0
BBX 18 22 2 0
BITMAP
1C7E00
3CFF00
7DFF80
79C780
F3C380
E3C380
E3C380
E3C380
E3C380
E3C380
E3C380
E3C380
E3C380
E3C380
E3C380
F1C380
F1C380
71E780
7CFF00
3FFFC0
1FFFC0
07FFC0
ENDCHAR
STARTCHAR 04A9
ENCODING 1193
SWIDTH 704 0
DWIDTH 22 0
BBX 18 16 2 0
BITMAP
1C7C00
3CFF00
7DFF00
71C780
F3C380
E38380
E38380
E38380
E3C380
E1C780
E1C700
F1EF00
78FE00
7FFFC0
3FFFC0
0FC7C0
ENDCHAR
STARTCHAR 04AA
ENCODING 1194
SWIDTH 608 0
DWIDTH 19 0
BBX 15 26 2 -4
BITMAP
07E0
1FF0
3FF8
7C3C
781E
700E
F00E
E000
E000
E000
E000
E000
E000
E000
E000
F00E
700E
781E
7C3C
3FF8
1FF0
07E0
0380
0380
0380
0380
ENDCHAR
STARTCHAR 04AB
ENCODING 1195
SWIDTH 480 0
DWIDTH 15 0
BBX 12 20 2 -4
BITMAP
0FC0
3FE0
7FF0
7870
F020
E000
E000
E000
E000
E000
E000
F020
7870
7FF0
3FE0
0FC0
0700
0700
0700
0700
ENDCHAR
STARTCHAR 04AC
ENCODING 1196
SWIDTH 480 0
DWIDTH 15 0
BBX 15 27 0 -5
BITMAP
FFFE
FFFE
FFFE
0380
0380
0380
0380
0380
0380
0380
0380
0380
0380
0380
0380
0380
0380
0380
0380
03F0
03F0
03F0
0070
0070
0070
0070
0070
ENDCHAR
STARTCHAR 04AD
ENCODING 1197
SWIDTH 512 0
DWIDTH 16 0
BBX 12 20 2 -4
BITMAP
FFF0
FFF0
FFF0
0E00
0E00
0E00
0E00
0E00
0E00
0E00
0E00
0E00
0E00
0FC0
0FC0
0FC0
01C0
01C0
01C0
01C0
ENDCHAR
STARTCHAR 04AE
ENCODING 1198
SWIDTH 512 0
DWIDTH 16 0
BBX 16 22 0 0
BITMAP
E00F
F00E
701E
781C
383C
3C38
1C78
1E70
0EF0
0FE0
07E0
07C0
03C0
0380
0380
0380
0380
0380
0380
0380
0380
0380
ENDCHAR
STARTCHAR 04AF
ENCODING 1199
SWIDTH 512 0
DWIDTH 16 0
BBX 14 22 1 -6
BITMAP
E03C
E038
7038
7078
7870
3870
38F0
1CE0
1CE0
1DC0
0FC0
0FC0
0F80
0780
0780
0700
0700
0700
0700
0700
0700
0700
ENDCHAR
STARTCHAR 04B0
ENCODING 1200
SWIDTH 512 0
DWIDTH 16 0
BBX 16 22 0 0
BITMAP
E00F
F00E
701E
781C
383C
3C38
1C78
1E70
0EF0
0FE0
07E0
07C0
03C0
1FF8
1FF8
1FF8
0380
0380
0380
0380
0380
0380
ENDCHAR
STARTCHAR 04B1
ENCODING 1201
SWIDTH 512 0
DWIDTH 16 0
BBX 14 22 1 -6
BITMAP
E03C
E038
7038
7078
7870
3870
38F0
1CE0
1CE0
1DC0
0FC0
0FC0
0F80
0780
0780
0700
3FF0
3FF0
3FF0
0700
0700
0700
ENDCHAR
STARTCHAR 04B2
ENCODING 1202
SWIDTH 608 0
DWIDTH 19 0
BBX 18 27 1 -5
BITMAP
E00F00
F00E00
701C00
383C00
3C3800
1C7800
1E7000
0EE000
07E000
07C000
03C000
03C000
07C000
0FE000
0EF000
1E7000
1C3800
383C00
781C00
701FC0
F00FC0
E007C0
0003C0
0003C0
0003C0
0003C0
0003C0
ENDCHAR
STARTCHAR 04B3
ENCODING 1203
SWIDTH 512 0
DWIDTH 16 0
BBX 15 20 1 -4
BITMAP
F038
7878
3870
3CF0
1CE0
0FC0
0FC0
0780
0780
0FC0
0FC0
1CE0
3CF0
387E
703E
F03E
000E
000E
000E
000E
ENDCHAR
STARTCHAR 04B4
ENCODING 1204
SWIDTH 768 0
DWIDTH 24 0
BBX 23 27 0 -5
BITMAP
FFFC70
FFFC70
FFFC70
038070
038070
038070
038070
038070
038070
038070
038070
038070
038070
038070
038070
038070
038070
038070
038070
03FFFE
03FFFE
03FFFE
00000E
00000E
00000E
00000E
00000E
ENDCHAR
STARTCHAR 04B5
ENCODING 1205
SWIDTH 672 0
DWIDTH 21 0
BBX 17 20 2 -4
BITMAP
FF8E00
FF8E00
FF8E00
1C0E00
1C0E00
1C0E00
1C0E00
1C0E00
1C0E00
1C0E00
1C0E00
1C0E00
1C0E00
1FFF80
1FFF80
1FFF80
000380
000380
000380
000380
ENDCHAR
STARTCHAR 04B6
ENCODING 1206
SWIDTH 608 0
DWIDTH 19 0
BBX 18 27 2 -5
BITMAP
E00E00
E00E00
E00E00
E00E00
E00E00
E00E00
E00E00
E00E00
E00E00
E01E00
F01E00
783E00
7FEE00
3FEE00
0F8E00
000E00
000E00
000E00
000E00
000FC0
000FC0
000FC0
0001C0
0001C0
0001C0
0001C0
0001C0
ENDCHAR
STARTCHAR 04B7
ENCODING 1207
SWIDTH 544 0
DWIDTH 17 0
BBX 16 20 2 -4
BITMAP
E038
E038
E038
E038
E038
E038
F078
70F8
7FF8
3FB8
1F38
0038
0038
003F
003F
003F
0007
0007
0007
0007
ENDCHAR
STARTCHAR 04B8
ENCODING 1208
SWIDTH 608 0
DWIDTH 19 0
BBX 15 22 2 0
BITMAP
E00E
E00E
E00E
E00E
E00E
E00E
E00E
E30E
E30E
E31E
F31E
7B3E
7FFE
3FEE
0F8E
030E
030E
030E
000E
000E
000E
000E
ENDCHAR
STARTCHAR 04B9
ENCODING 1209
SWIDTH 544 0
DWIDTH 17 0
BBX 13 16 2 0
BITMAP
E038
E038
E038
E638
E638
E638
F678
76F8
7FF8
3FB8
1F38
0638
0638
0638
0038
0038
ENDCHAR
STARTCHAR 04BA
ENCODING 1210
SWIDTH 640 0
DWIDTH 20 0
BBX 15 22 3 0
BITMAP
E000
E000
E000
E000
E000
E000
E7E0
EFF8
FFFC
F83C
F01E
E00E
E00E
E00E
E00E
E00E
E00E
E00E
E00E
E00E
E00E
E00E
ENDCHAR
STARTCHAR 04BB
ENCODING 1211
SWIDTH 544 0
DWIDTH 17 0
BBX 13 22 2 0
BITMAP
F000
F000
F000
F000
F000
F000
F3C0
FFE0
FFF0
F878
F078
F038
F038
F038
F038
F038
F038
F038
F038
F038
F038
F038
ENDCHAR
STARTCHAR 04BC
ENCODING 1212
SWIDTH 736 0
DWIDTH 23 0
BBX 20 22 1 0
BITMAP
003F00
00FFC0
01FFE0
03E1E0
03C0F0
038070
038070
E38070
E38070
E38070
FFFFF0
FFFFF0
3FFFF0
038000
038000
038000
038000
03C020
03E0F0
01FFF0
00FFC0
003F00
ENDCHAR
STARTCHAR 04BD
ENCODING 1213
SWIDTH 640 0
DWIDTH 20 0
BBX 17 16 1 0
BITMAP
00F800
03FE00
07FF00
070700
EF0700
EE0380
FF0380
FFFF80
7FFF80
0E0000
0E0000
0F0000
078600
07FF00
03FF00
00FC00
ENDCHAR
STARTCHAR 04BE
ENCODING 1214
SWIDTH 736 0
DWIDTH 23 0
BBX 20 26 1 -4
BITMAP
003F00
00FFC0
01FFE0
03E1E0
03C0F0
038070
038070
E38070
E38070
E38070
FFFFF0
FFFFF0
3FFFF0
038000
038000
038000
038000
03C020
03E0F0
01FFF0
00FFC0
003F00
001E00
001E00
001E00
001E00
ENDCHAR
STARTCHAR 04BF
ENCODING 1215
SWIDTH 640 0
DWIDTH 20 0
BBX 17 20 1 -4
BITMAP
00F800
03FE00
07FE00
070700
0F0700
EE0380
EE0380
FFFF80
7FFF80
1FFF80
0E0000
0F0000
078600
07FF00
03FF00
00FC00
007000
007000
007000
007000
ENDCHAR
STARTCHAR 04C0
ENCODING 1216
SWIDTH 288 0
DWIDTH 9 0
BBX 3 22 3 0
BITMAP
E0
E0
E0
E0
E0
E0
E0
E0
E0
E0
E0
E0
E0
E0
E0
E0
E0
E0
E0
E0
E0
E0
ENDCHAR
STARTCHAR 04C1
ENCODING 1217
SWIDTH 960 0
DWIDTH 30 0
BBX 28 28 1 1
BITMAP
0060E000
0070E000
007FC000
003F8000
00000000
00000000
700E01E0
780E01C0
3C0E03C0
1C0E0780
1E0E0780
0E0E0F00
070E0E00
078E1E00
038E3C00
01CE3800
01FFF800
01FFF800
03FFFC00
078E3C00
078E1E00
0F0E0F00
1E0E0F00
1E0E0780
3C0E03C0
780E03E0
F80E01E0
F00E00F0
ENDCHAR
STARTCHAR 04C2
ENCODING 1218
SWIDTH 704 0
DWIDTH 22 0
BBX 22 24 0 0
BITMAP
038700
018700
01FE00
01FE00
007C00
000000
000000
000000
783878
383870
1C38F0
1E38E0
0E39C0
073BC0
07FF80
03FF00
07FF80
0F3BC0
0E39C0
1E38E0
3C38F0
383870
783878
F0383C
ENDCHAR
STARTCHAR 04C3
ENCODING 1219
SWIDTH 640 0
DWIDTH 20 0
BBX 16 28 3 -6
BITMAP
E01C
E03C
E078
E078
E0F0
E0E0
E1E0
E1C0
E380
E780
FFE0
FFF8
FFFC
E03C
E01E
E00E
E00F
E007
E007
E007
E007
E00F
000E
001E
003E
00FC
00F8
00E0
ENDCHAR
STARTCHAR 04C4
ENCODING 1220
SWIDTH 544 0
DWIDTH 17 0
BBX 14 22 2 -6
BITMAP
F078
F0F0
F1E0
F1C0
F3C0
F780
FFC0
FFE0
FFF0
F078
F03C
F01C
F01C
F01C
F01C
F01C
001C
003C
0078
01F8
01F0
01C0
ENDCHAR
STARTCHAR 04C5
ENCODING 1221
SWIDTH 736 0
DWIDTH 23 0
BBX 20 27 2 -5
BITMAP
0FFFC0
0FFFC0
0FFFC0
0E03C0
0E03C0
0E03C0
0E03C0
0E03C0
0E03C0
0E03C0
0E03C0
0E03C0
0E03C0
0E03C0
1E03C0
1E03C0
1C03C0
1C03C0
3C03C0
F803F0
F803F0
E003F0
000070
000070
0000F0
0000E0
0000E0
ENDCHAR
STARTCHAR 04C6
ENCODING 1222
SWIDTH 576 0
DWIDTH 18 0
BBX 17 20 1 -4
BITMAP
1FFC00
1FFC00
1FFC00
1C1C00
1C1C00
1C1C00
1C1C00
1C1C00
1C1C00
1C1C00
1C1C00
3C1C00
3C1C00
F81F80
F01F00
E01F00
000700
000700
000700
000700
ENDCHAR
STARTCHAR 04C7
ENCODING 1223
SWIDTH 672 0
DWIDTH 21 0
BBX 15 28 3 -6
BITMAP
E00E
E00E
E00E
E00E
E00E
E00E
E00E
E00E
E00E
E00E
FFFE
FFFE
FFFE
E00E
E00E
E00E
E00E
E00E
E00E
E00E
E00E
E00E
000E
000E
000E
003E
003E
003C
ENDCHAR
STARTCHAR 04C8
ENCODING 1224
SWIDTH 576 0
DWIDTH 18 0
BBX 13 22 2 -6
BITMAP
F038
F038
F038
F038
F038
F038
F038
FFF8
FFF8
FFF8
F038
F038
F038
F038
F038
F038
0038
0038
0038
00F8
00F8
00F0
ENDCHAR
STARTCHAR 04C9
ENCODING 1225
SWIDTH 704 0
DWIDTH 22 0
BBX 18 27 3 -5
BITMAP
E00E00
E00E00
E00E00
E00E00
E00E00
E00E00
E00E00
E00E00
E00E00
E00E00
FFFE00
FFFE00
FFFE00
E00E00
E00E00
E00E00
E00E00
E00E00
E00E00
E00FC0
E00FC0
E00FC0
0001C0
0003C0
000380
000380
000380
ENDCHAR
STARTCHAR 04CA
ENCODING 1226
SWIDTH 576 0
DWIDTH 18 0
BBX 16 20 2 -4
BITMAP
F038
F038
F038
F038
F038
F038
F038
FFF8
FFF8
FFF8
F038
F038
F038
F03F
F03F
F03F
000F
000E
000E
000E
ENDCHAR
STARTCHAR 04CB
ENCODING 1227
SWIDTH 608 0
DWIDTH 19 0
BBX 15 27 2 -5
BITMAP
E00E
E00E
E00E
E00E
E00E
E00E
E00E
E00E
E00E
E01E
F01E
783E
7FEE
3FEE
0F8E
000E
000E
000E
000E
007E
007E
007E
0070
0070
0070
0070
0070
ENDCHAR
STARTCHAR 04CC
ENCODING 1228
SWIDTH 544 0
DWIDTH 17 0
BBX 13 20 2 -4
BITMAP
E038
E038
E038
E038
E038
E038
F078
70F8
7FF8
3FB8
1F38
0038
0038
01F8
01F8
01F8
01C0
01C0
01C0
01C0
ENDCHAR
STARTCHAR 04CD
ENCODING 1229
SWIDTH 800 0
DWIDTH 25 0
BBX 21 27 3 -5
BITMAP
E001C0
E001C0
F003C0
F003C0
F803C0
F807C0
F807C0
FC0FC0
FC0FC0
EE1DC0
EE1DC0
E739C0
E739C0
E3B9C0
E3F1C0
E3F1C0
E1E1C0
E1E1C0
E0C1C0
E001F8
E001F8
E001F8
000038
000038
000078
000070
000070
ENDCHAR
STARTCHAR 04CE
ENCODING 1230
SWIDTH 640 0
DWIDTH 20 0
BBX 18 20 2 -4
BITMAP
E00E00
F00E00
F01E00
F81E00
FC3E00
FC3E00
FE7E00
EE7E00
E7EE00
E7EE00
E3CE00
E38E00
E18E00
E00FC0
E00FC0
E00F80
000380
000380
000380
000380
ENDCHAR
STARTCHAR 04CF
ENCODING 1231
SWIDTH 288 0
DWIDTH 9 0
BBX 3 22 3 0
BITMAP
E0
E0
E0
E0
E0
E0
E0
E0
E0
E0
E0
E0
E0
E0
E0
E0
E0
E0
E0
E0
E0
E0
ENDCHAR
STARTCHAR 04D0
ENCODING 1232
SWIDTH 640 0
DWIDTH 20 0
BBX 18 28 1 1
BITMAP
0E0C00
0E1C00
07F800
03F000
000000
000000
00E000
01E000
01E000
03F000
03F000
03F000
073800
073800
073800
0E1C00
0E1C00
1E0E00
1C0E00
1C0E00
3FFF00
3FFF00
3FFF00
780380
700380
7003C0
E001C0
E001C0
ENDCHAR
STARTCHAR 04D1
ENCODING 1233
SWIDTH 544 0
DWIDTH 17 0
BBX 12 24 2 0
BITMAP
30E0
30E0
39E0
3FC0
1F80
0000
0000
0000
1F80
7FE0
7FE0
20F0
0070
0070
07F0
7FF0
FFF0
E070
E070
E070
E070
FFF0
7FF0
3F70
ENDCHAR
STARTCHAR 04D2
ENCODING 1234
SWIDTH 640 0
DWIDTH 20 0
BBX 18 27 1 0
BITMAP
0E1C00
0E1C00
0E1C00
000000
000000
00E000
01E000
01E000
03F000
03F000
03F000
073800
073800
073800
0E1C00
0E1C00
1E0E00
1C0E00
1C0E00
3FFF00
3FFF00
3FFF00
780380
700380
7003C0
E001C0
E001C0
ENDCHAR
STARTCHAR 04D3
ENCODING 1235
SWIDTH 544 0
DWIDTH 17 0
BBX 12 22 2 0
BITMAP
78E0
78E0
78E0
0000
0000
0000
1F80
7FE0
7FE0
20F0
0070
0070
07F0
7FF0
FFF0
E070
E070
E070
E070
FFF0
7FF0
3F70
ENDCHAR
STARTCHAR 04D4
ENCODING 1236
SWIDTH 960 0
DWIDTH 30 0
BBX 29 22 0 0
BITMAP
000FFFF8
001FFFF8
001FFFF8
003FC000
003BC000
007BC000
0073C000
00E3C000
01E3C000
01C3C000
03C3FFE0
0383FFE0
0783FFE0
0703C000
0FFFC000
0FFFC000
1FFFC000
3C03C000
3803C000
7803FFF8
7003FFF8
F003FFF8
ENDCHAR
STARTCHAR 04D5
ENCODING 1237
SWIDTH 832 0
DWIDTH 26 0
BBX 22 16 2 0
BITMAP
1F07C0
7FCFF0
7FDFF8
20F838
00781C
00701C
07F01C
7FFFFC
FFFFFC
E07000
E07000
E07800
E0F818
FFDFFC
7FCFF8
3F03E0
ENDCHAR
STARTCHAR 04D6
ENCODING 1238
SWIDTH 608 0
DWIDTH 19 0
BBX 14 28 3 1
BITMAP
3830
3870
1FE0
0FE0
0000
0000
FFFC
FFFC
FFFC
E000
E000
E000
E000
E000
E000
E000
FFF0
FFF0
FFF0
E000
E000
E000
E000
E000
E000
FFFC
FFFC
FFFC
ENDCHAR
STARTCHAR 04D7
ENCODING 1239
SWIDTH 544 0
DWIDTH 17 0
BBX 13 24 2 0
BITMAP
3060
30E0
38E0
1FC0
1F80
0000
0000
0000
0F80
3FE0
7FE0
7070
E070
E038
E038
FFF8
FFF8
E000
E000
F000
7860
7FF0
3FF0
0FC0
ENDCHAR
STARTCHAR 04D8
ENCODING 1240
SWIDTH 608 0
DWIDTH 19 0
BBX 14 22 3 0
BITMAP
0FC0
3FF0
FFF8
F078
E03C
401C
001C
001C
001C
001C
FFFC
FFFC
FFFC
E01C
E01C
E01C
E01C
E03C
F878
7FF8
3FF0
0FC0
ENDCHAR
STARTCHAR 04D9
ENCODING 1241
SWIDTH 544 0
DWIDTH 17 0
BBX 13 16 2 0
BITMAP
1F80
7FC0
FFE0
70F0
0070
0078
FFF8
FFF8
FFF8
E038
E038
E070
70F0
7FE0
3FE0
0F80
ENDCHAR
STARTCHAR 04DA
ENCODING 1242
SWIDTH 608 0
DWIDTH 19 0
BBX 14 27 3 0
BITMAP
3C70
3C70
3C70
3C70
0000
0FC0
3FF0
FFF8
F078
E03C
401C
001C
001C
001C
001C
FFFC
FFFC
FFFC
E01C
E01C
E01C
E01C
E03C
F878
7FF8
3FF0
0FC0
ENDCHAR
STARTCHAR 04DB
ENCODING 1243
SWIDTH 544 0
DWIDTH 17 0
BBX 13 22 2 0
BITMAP
38E0
38E0
38E0
0000
0000
0000
1F80
7FC0
FFE0
70F0
0070
0078
FFF8
FFF8
FFF8
E038
E038
E070
70F0
7FE0
3FE0
0F80
ENDCHAR
STARTCHAR 04DC
ENCODING 1244
SWIDTH 960 0
DWIDTH 30 0
BBX 28 27 1 0
BITMAP
0071E000
0071E000
0071E000
00000000
00000000
700E01E0
780E01C0
3C0E03C0
1C0E0780
1E0E0780
0E0E0F00
070E0E00
078E1E00
038E3C00
01CE3800
01FFF800
01FFF800
03FFFC00
078E3C00
078E1E00
0F0E0F00
1E0E0F00
1E0E0780
3C0E03C0
780E03E0
F80E01E0
F00E00F0
ENDCHAR
STARTCHAR 04DD
ENCODING 1245
SWIDTH 704 0
DWIDTH 22 0
BBX 22 22 0 0
BITMAP
038700
038700
038700
000000
000000
000000
783878
383870
1C38F0
1E38E0
0E39C0
073BC0
07FF80
03FF00
07FF80
0F3BC0
0E39C0
1E38E0
3C38F0
383870
783878
F0383C
ENDCHAR
STARTCHAR 04DE
ENCODING 1246
SWIDTH 576 0
DWIDTH 18 0
BBX 14 27 2 0
BITMAP
1C70
1C70
1C70
1C70
0000
0FC0
1FF0
3FF8
783C
F03C
E01C
001C
003C
0038
07F8
07E0
07F8
003C
001C
001C
001C
E01C
E01C
F83C
7FF8
3FF0
0FC0
ENDCHAR
STARTCHAR 04DF
ENCODING 1247
SWIDTH 480 0
DWIDTH 15 0
BBX 12 22 1 0
BITMAP
38E0
38E0
38E0
0000
0000
0000
0F80
3FE0
7FE0
70F0
F070
00E0
07E0
07C0
07E0
0070
0070
7070
70F0
7FF0
3FE0
0F80
ENDCHAR
STARTCHAR 04E0
ENCODING 1248
SWIDTH 576 0
DWIDTH 18 0
BBX 14 22 2 0
BITMAP
7FFC
7FFC
7FFC
0038
0070
00F0
01E0
03C0
0780
07E0
0FF0
0FF8
003C
001C
001C
001C
E01C
E01C
F83C
7FF8
3FF0
0FE0
ENDCHAR
STARTCHAR 04E1
ENCODING 1249
SWIDTH 448 0
DWIDTH 14 0
BBX 12 21 0 -5
BITMAP
7FE0
7FE0
7FE0
01E0
01C0
03C0
0780
0700
0F00
0FC0
0FE0
00F0
0070
0070
0070
E070
F070
70F0
7FE0
3FE0
0F80
ENDCHAR
STARTCHAR 04E2
ENCODING 1250
SWIDTH 704 0
DWIDTH 22 0
BBX 16 27 3 0
BITMAP
3FF8
3FF8
3FF8
0000
0000
E007
E007
E00F
E01F
E01F
E03F
E077
E077
E0E7
E1C7
E1C7
E387
E707
E707
EE07
FE07
FC07
F807
F807
F007
E007
E007
ENDCHAR
STARTCHAR 04E3
ENCODING 1251
SWIDTH 576 0
DWIDTH 18 0
BBX 13 22 2 0
BITMAP
7FF0
7FF0
7FF0
0000
0000
0000
E038
E038
E078
E0F8
E0F8
E1F8
E3F8
E3B8
E738
EF38
EE38
FC38
FC38
F838
F038
E038
ENDCHAR
STARTCHAR 04E4
ENCODING 1252
SWIDTH 704 0
DWIDTH 22 0
BBX 16 27 3 0
BITMAP
1C70
1C70
1C70
0000
0000
E007
E007
E00F
E01F
E01F
E03F
E077
E077
E0E7
E1C7
E1C7
E387
E707
E707
EE07
FE07
FC07
F807
F807
F007
E007
E007
ENDCHAR
STARTCHAR 04E5
ENCODING 1253
SWIDTH 576 0
DWIDTH 18 0
BBX 13 22 2 0
BITMAP
3870
3870
3870
0000
0000
0000
E038
E038
E078
E0F8
E0F8
E1F8
E3F8
E3B8
E738
EF38
EE38
FC38
FC38
F838
F038
E038
ENDCHAR
STARTCHAR 04E6
ENCODING 1254
SWIDTH 640 0
DWIDTH 20 0
BBX 16 27 2 0
BITMAP
1C38
1C38
1C38
1C38
0000
07E0
1FF8
3FFC
7C3E
781E
700E
F00F
E007
E007
E007
E007
E007
E007
E007
E007
F00F
700E
781E
7C3E
3FFC
1FF8
07E0
ENDCHAR
STARTCHAR 04E7
ENCODING 1255
SWIDTH 544 0
DWIDTH 17 0
BBX 13 22 2 0
BITMAP
38E0
38E0
38E0
0000
0000
0000
0F80
3FE0
7FF0
78F0
F078
E038
E038
E038
E038
E038
E038
F078
78F0
7FF0
3FE0
0F80
ENDCHAR
STARTCHAR 04E8
ENCODING 1256
SWIDTH 640 0
DWIDTH 20 0
BBX 16 22 2 0
BITMAP
07E0
1FF8
3FFC
7C3E
781E
700E
F00F
E007
E007
E007
FFFF
FFFF
FFFF
E007
E007
F00F
700E
781E
7C3E
3FFC
1FF8
07E0
ENDCHAR
STARTCHAR 04E9
ENCODING 1257
SWIDTH 544 0
DWIDTH 17 0
BBX 13 16 2 0
BITMAP
0F80
3FE0
7FF0
78F0
F078
E038
E038
FFF8
FFF8
E038
E038
F078
78F0
7FF0
3FE0
0F80
ENDCHAR
STARTCHAR 04EA
ENCODING 1258
SWIDTH 640 0
DWIDTH 20 0
BBX 16 27 2 0
BITMAP
1C38
1C38
1C38
1C38
0000
07E0
1FF8
3FFC
7C3E
781E
700E
F00F
E007
E007
E007
FFFF
FFFF
FFFF
E007
E007
F00F
700E
781E
7C3E
3FFC
1FF8
07E0
ENDCHAR
STARTCHAR 04EB
ENCODING 1259
SWIDTH 544 0
DWIDTH 17 0
BBX 13 22 2 0
BITMAP
38E0
38E0
38E0
0000
0000
0000
0F80
3FE0
7FF0
78F0
F078
E038
E038
FFF8
FFF8
E038
E038
F078
78F0
7FF0
3FE0
0F80
ENDCHAR
STARTCHAR 04EC
ENCODING 1260
SWIDTH 608 0
DWIDTH 19 0
BBX 15 27 2 0
BITMAP
1C70
1C70
1C70
1C70
0000
07C0
1FF0
3FF8
787C
F01C
E01E
E00E
000E
000E
000E
1FFE
1FFE
1FFE
000E
000E
E00E
E01E
F01C
787C
3FF8
1FF0
07C0
ENDCHAR
STARTCHAR 04ED
ENCODING 1261
SWIDTH 480 0
DWIDTH 15 0
BBX 12 22 1 0
BITMAP
38E0
38E0
38E0
0000
0000
0000
1F80
7FC0
FFE0
70F0
2070
0070
1FF0
1FF0
1FF0
0070
0070
0070
20F0
FFE0
7FC0
1F80
ENDCHAR
STARTCHAR 04EE
ENCODING 1262
SWIDTH 608 0
DWIDTH 19 0
BBX 17 27 1 0
BITMAP
1FFC00
1FFC00
1FFC00
000000
000000
F00380
700380
700780
780700
380700
3C0E00
1C0E00
1E1E00
0E1C00
0E1C00
073C00
073800
07B800
03F000
03F000
01F000
01E000
00E000
01E000
1FC000
1F8000
1F0000
ENDCHAR
STARTCHAR 04EF
ENCODING 1263
SWIDTH 480 0
DWIDTH 15 0
BBX 14 28 1 -6
BITMAP
7FF0
7FF0
7FF0
0000
0000
0000
E03C
E038
7038
7070
7070
3870
38E0
1CE0
1CE0
1DC0
0FC0
0FC0
0F80
0780
0780
0700
0700
0700
0E00
3E00
3E00
3C00
ENDCHAR
STARTCHAR 04F0
ENCODING 1264
SWIDTH 608 0
DWIDTH 19 0
BBX 17 27 1 0
BITMAP
0E3800
0E3800
0E3800
000000
000000
F00380
700380
700780
780700
380700
3C0E00
1C0E00
1E1E00
0E1C00
0E1C00
073C00
073800
07B800
03F000
03F000
01F000
01E000
00E000
01E000
1FC000
1F8000
1F0000
ENDCHAR
STARTCHAR 04F1
ENCODING 1265
SWIDTH 480 0
DWIDTH 15 0
BBX 14 28 1 -6
BITMAP
3870
3870
3870
0000
0000
0000
E03C
E038
7038
7070
7070
3870
38E0
1CE0
1CE0
1DC0
0FC0
0FC0
0F80
0780
0780
0700
0700
0700
0E00
3E00
3E00
3C00
ENDCHAR
STARTCHAR 04F2
ENCODING 1266
SWIDTH 608 0
DWIDTH 19 0
BBX 17 29 1 0
BITMAP
010400
038E00
079E00
0F3C00
0E1800
040000
000000
F00380
700380
700780
780700
380700
3C0E00
1C0E00
1E1E00
0E1C00
0E1C00
073C00
073800
07B800
03F000
03F000
01F000
01E000
00E000
01E000
1FC000
1F8000
1F0000
ENDCHAR
STARTCHAR 04F3
ENCODING 1267
SWIDTH 480 0
DWIDTH 15 0
BBX 14 32 1 -6
BITMAP
0410
0E38
0E38
1C70
1C70
38E0
1860
0000
0000
0000
E03C
E038
7038
7070
7070
3870
38E0
1CE0
1CE0
1DC0
0FC0
0FC0
0F80
0780
0780
0700
0700
0700
0E00
3E00
3E00
3C00
ENDCHAR
STARTCHAR 04F4
ENCODING 1268
SWIDTH 608 0
DWIDTH 19 0
BBX 15 27 2 0
BITMAP
1C70
1C70
1C70
0000
0000
E00E
E00E
E00E
E00E
E00E
E00E
E00E
E00E
E00E
E01E
F01E
783E
7FEE
3FEE
0F8E
000E
000E
000E
000E
000E
000E
000E
ENDCHAR
STARTCHAR 04F5
ENCODING 1269
SWIDTH 544 0
DWIDTH 17 0
BBX 13 22 2 0
BITMAP
38E0
38E0
38E0
0000
0000
0000
E038
E038
E038
E038
E038
E038
F078
70F8
7FF8
3FB8
1F38
0038
0038
0038
0038
0038
ENDCHAR
STARTCHAR 04F6
ENCODING 1270
SWIDTH 480 0
DWIDTH 15 0
BBX 12 27 3 -5
BITMAP
FFF0
FFF0
FFF0
E000
E000
E000
E000
E000
E000
E000
E000
E000
E000
E000
E000
E000
E000
E000
E000
FC00
FC00
FC00
1C00
1C00
1C00
1C00
1C00
ENDCHAR
STARTCHAR 04F7
ENCODING 1271
SWIDTH 416 0
DWIDTH 13 0
BBX 10 20 2 -4
BITMAP
FFC0
FFC0
FFC0
F000
F000
F000
F000
F000
F000
F000
F000
F000
F000
FC00
FC00
FC00
1C00
1C00
1C00
1C00
ENDCHAR
STARTCHAR 04F8
ENCODING 1272
SWIDTH 832 0
DWIDTH 26 0
BBX 20 27 3 0
BITMAP
070E00
070E00
070E00
000000
000000
E00070
E00070
E00070
E00070
E00070
E00070
E00070
E00070
E00070
FFC070
FFF070
FFF870
E03C70
E01C70
E01C70
E01C70
E01C70
E01C70
E03C70
FFF870
FFF070
FFE070
ENDCHAR
STARTCHAR 04F9
ENCODING 1273
SWIDTH 704 0
DWIDTH 22 0
BBX 17 22 2 0
BITMAP
0E1C00
0E1C00
0E1C00
000000
000000
000000
F00380
F00380
F00380
F00380
F00380
F00380
FF8380
FFE380
FFE380
F0F380
F07380
F07380
F0F380
FFE380
FFE380
FF8380
ENDCHAR
STARTCHAR 04FA
ENCODING 1274
SWIDTH 576 0
DWIDTH 18 0
BBX 16 26 2 -4
BITMAP
0FFF
0FFF
0FFF
0E00
0E00
0E00
0E00
0E00
0E00
0E00
FFF0
FFF0
FFF0
0E00
0E00
0E00
0E00
0E00
0E00
0E00
0F80
0F80
0380
0F80
0F80
0F00
ENDCHAR
STARTCHAR 04FB
ENCODING 1275
SWIDTH 480 0
DWIDTH 15 0
BBX 13 20 1 -4
BITMAP
1FF8
1FF8
1FF8
1C00
1C00
1C00
1C00
FFC0
FFC0
FFC0
1C00
1C00
1C00
1C00
1F80
1F80
0780
1F00
1F00
1E00
ENDCHAR
STARTCHAR 04FC
ENCODING 1276
SWIDTH 544 0
DWIDTH 17 0
BBX 16 28 1 -6
BITMAP
E00F
F00E
701C
383C
3C38
1C78
1E70
0EE0
07E0
07C0
03C0
03C0
07E0
0FE0
0EF0
1E70
1C38
383C
781C
701E
F00E
E00F
0007
0007
0007
001F
001E
001C
ENDCHAR
STARTCHAR 04FD
ENCODING 1277
SWIDTH 512 0
DWIDTH 16 0
BBX 14 22 1 -6
BITMAP
F038
7878
3870
3CF0
1CE0
0FC0
0FC0
0780
0780
0FC0
0FC0
1CE0
3CF0
3870
7038
F038
001C
001C
001C
007C
0078
0070
ENDCHAR
STARTCHAR 04FE
ENCODING 1278
SWIDTH 576 0
DWIDTH 18 0
BBX 16 22 1 0
BITMAP
E00F
F00E
701C
383C
3C38
1C78
0E70
0EE0
07E0
7FFE
7FFE
7FFE
07C0
0FE0
0EF0
1E70
1C38
383C
781C
701E
F00E
E007
ENDCHAR
STARTCHAR 04FF
ENCODING 1279
SWIDTH 512 0
DWIDTH 16 0
BBX 14 16 1 0
BITMAP
F038
7878
3870
3CF0
1CE0
0FC0
0FC0
7FF8
7FF8
0FC0
0FC0
1CE0
3CF0
3870
7038
F03C
ENDCHAR
STARTCHAR 0524
ENCODING 1316
SWIDTH 704 0
DWIDTH 22 0
BBX 18 27 3 -5
BITMAP
FFFE00
FFFE00
FFFE00
E00E00
E00E00
E00E00
E00E00
E00E00
E00E00
E00E00
E00E00
E00E00
E00E00
E00E00
E00E00
E00E00
E00E00
E00E00
E00E00
E00FC0
E00FC0
E00FC0
0001C0
0001C0
0001C0
0001C0
0001C0
ENDCHAR
STARTCHAR 0525
ENCODING 1317
SWIDTH 576 0
DWIDTH 18 0
BBX 16 20 2 -4
BITMAP
FFF8
FFF8
FFF8
F038
F038
F038
F038
F038
F038
F038
F038
F038
F038
F03F
F03F
F03F
0007
0007
0007
0007
ENDCHAR
STARTCHAR 1E62
ENCODING 7778
SWIDTH 608 0
DWIDTH 19 0
BBX 15 27 2 -5
BITMAP
07E0
1FFC
3FFE
781C
7004
F000
E000
F000
7800
7F00
3FF0
0FFC
00FE
001E
000E
000E
000E
400E
F03E
FFFC
7FF8
0FE0
0000
0000
0380
0380
0380
ENDCHAR
STARTCHAR 1E63
ENCODING 7779
SWIDTH 512 0
DWIDTH 16 0
BBX 14 21 1 -5
BITMAP
0FE0
3FF8
7FF8
7010
7000
7000
7F00
3FF0
1FF8
0078
001C
201C
7038
FFF8
7FF0
0FC0
0000
0000
0780
0780
0780
ENDCHAR
STARTCHAR 1EA0
ENCODING 7840
SWIDTH 640 0
DWIDTH 20 0
BBX 18 28 1 -6
BITMAP
00E000
01E000
01E000
03F000
03F000
03F000
073800
073800
073800
0E1C00
0E1C00
1E0E00
1C0E00
1C0E00
3FFF00
3FFF00
3FFF00
780380
700380
7003C0
E001C0
E001C0
000000
000000
000000
01E000
01E000
01E000
ENDCHAR
STARTCHAR 1EA1
ENCODING 7841
SWIDTH 544 0
DWIDTH 17 0
BBX 12 21 2 -5
BITMAP
1F80
7FE0
7FE0
20F0
0070
0070
07F0
7FF0
FFF0
E070
E070
E070
E070
FFF0
7FF0
3F70
0000
0000
0700
0700
0700
ENDCHAR
STARTCHAR 1EB8
ENCODING 7864
SWIDTH 608 0
DWIDTH 19 0
BBX 14 28 3 -6
BITMAP
FFFC
FFFC
FFFC
E000
E000
E000
E000
E000
E000
E000
FFF0
FFF0
FFF0
E000
E000
E000
E000
E000
E000
FFFC
FFFC
FFFC
0000
0000
0000
0380
0380
0380
ENDCHAR
STARTCHAR 1EB9
ENCODING 7865
SWIDTH 544 0
DWIDTH 17 0
BBX 13 21 2 -5
BITMAP
0F80
3FE0
7FE0
7070
E070
E038
E038
FFF8
FFF8
E000
E000
F000
7860
7FF0
3FF0
0FC0
0000
0000
0700
0700
0700
ENDCHAR
STARTCHAR 1ECA
ENCODING 7882
SWIDTH 288 0
DWIDTH 9 0
BBX 3 28 3 -6
BITMAP
E0
E0
E0
E0
E0
E0
E0
E0
E0
E0
E0
E0
E0
E0
E0
E0
E0
E0
E0
E0
E0
E0
00
00
00
E0
E0
E0
ENDCHAR
STARTCHAR 1ECB
ENCODING 7883
SWIDTH 256 0
DWIDTH 8 0
BBX 4 28 2 -6
BITMAP
F0
F0
F0
00
00
00
F0
F0
F0
F0
F0
F0
F0
F0
F0
F0
F0
F0
F0
F0
F0
F0
00
00
00
F0
F0
F0
ENDCHAR
STARTCHAR 1ECC
ENCODING 7884
SWIDTH 640 0
DWIDTH 20 0
BBX 16 27 2 -5
BITMAP
07E0
1FF8
3FFC
7C3E
781E
700E
F00F
E007
E007
E007
E007
E007
E007
E007
E007
F00F
700E
781E
7C3E
3FFC
1FF8
07E0
0000
0000
03C0
03C0
03C0
ENDCHAR
STARTCHAR 1ECD
ENCODING 7885
SWIDTH 544 0
DWIDTH 17 0
BBX 13 21 2 -5
BITMAP
0F80
3FE0
7FF0
78F0
F078
E038
E038
E038
E038
E038
E038
F078
78F0
7FF0
3FE0
0F80
0000
0000
0700
0700
0700
ENDCHAR
STARTCHAR 1EE4
ENCODING 7908
SWIDTH 640 0
DWIDTH 20 0
BBX 16 27 2 -5
BITMAP
F007
F007
F007
F007
F007
F007
F007
F007
F007
F007
F007
F007
F007
F007
F007
7007
700F
780E
7C3E
3FFC
1FF8
07E0
0000
0000
01C0
01C0
01C0
ENDCHAR
STARTCHAR 1EE5
ENCODING 7909
SWIDTH 544 0
DWIDTH 17 0
BBX 13 21 2 -5
BITMAP
F038
F038
F038
F038
F038
F038
F038
F038
F038
F038
F038
7038
7878
7FF8
3FB8
1F38
0000
0000
0700
0700
0700
ENDCHAR
STARTCHAR 2013
ENCODING 8211
SWIDTH 544 0
DWIDTH 17 0
BBX 13 3 2 6
BITMAP
FFF8
FFF8
FFF8
ENDCHAR
STARTCHAR 2014
ENCODING 8212
SWIDTH 864 0
DWIDTH 27 0
BBX 22 3 2 6
BITMAP
FFFFFC
FFFFFC
FFFFFC
ENDCHAR
STARTCHAR 2015
ENCODING 8213
SWIDTH 864 0
DWIDTH 27 0
BBX 22 3 2 6
BITMAP
FFFFFC
FFFFFC
FFFFFC
ENDCHAR
STARTCHAR 2018
ENCODING 8216
SWIDTH 192 0
DWIDTH 6 0
BBX 3 5 1 17
BITMAP
20
60
E0
E0
E0
ENDCHAR
STARTCHAR 2019
ENCODING 8217
SWIDTH 192 0
DWIDTH 6 0
BBX 3 6 1 16
BITMAP
E0
E0
E0
E0
C0
80
ENDCHAR
STARTCHAR 201A
ENCODING 8218
SWIDTH 224 0
DWIDTH 7 0
BBX 3 6 2 -3
BITMAP
E0
E0
E0
E0
C0
80
ENDCHAR
STARTCHAR 201C
ENCODING 8220
SWIDTH 320 0
DWIDTH 10 0
BBX 8 6 1 16
BITMAP
11
23
67
EF
EF
EF
ENDCHAR
STARTCHAR 201D
ENCODING 8221
SWIDTH 320 0
DWIDTH 10 0
BBX 8 6 1 16
BITMAP
E7
E7
E7
E6
C4
88
ENDCHAR
STARTCHAR 201E
ENCODING 8222
SWIDTH 352 0
DWIDTH 11 0
BBX 7 6 2 -3
BITMAP
EE
EE
EE
EE
CC
88
ENDCHAR
STARTCHAR 2020
ENCODING 8224
SWIDTH 352 0
DWIDTH 11 0
BBX 8 14 2 8
BITMAP
38
38
38
38
FF
FF
FF
38
38
38
38
38
38
38
ENDCHAR
STARTCHAR 2021
ENCODING 8225
SWIDTH 352 0
DWIDTH 11 0
BBX 8 14 2 8
BITMAP
38
38
38
FF
FF
FF
38
38
38
FF
FF
FF
38
38
ENDCHAR
STARTCHAR 2022
ENCODING 8226
SWIDTH 288 0
DWIDTH 9 0
BBX 5 5 2 5
BITMAP
F8
F8
F8
F8
F8
ENDCHAR
STARTCHAR 2026
ENCODING 8230
SWIDTH 576 0
DWIDTH 18 0
BBX 14 3 2 0
BITMAP
E39C
E39C
E39C
ENDCHAR
STARTCHAR 2030
ENCODING 8240
SWIDTH 960 0
DWIDTH 30 0
BBX 26 23 2 -1
BITMAP
78070000
FC0E0000
FE0E0000
CE1C0000
CE180000
CE380000
CE300000
FE700000
FC600000
78E00000
01C00000
01C00000
038F0000
039F8F00
071FDF80
0639DFC0
0E39D8C0
0C39D8C0
1C39D8C0
181FD8C0
381F9FC0
700F1F80
00000F00
ENDCHAR
STARTCHAR 2039
ENCODING 8249
SWIDTH 320 0
DWIDTH 10 0
BBX 8 11 1 2
BITMAP
0F
1E
3C
78
F0
E0
F0
78
3C
1E
0F
ENDCHAR
STARTCHAR 203A
ENCODING 8250
SWIDTH 320 0
DWIDTH 10 0
BBX 8 11 1 2
BITMAP
F0
70
38
1C
1E
0F
1E
1C
38
70
F0
ENDCHAR
STARTCHAR 2070
ENCODING 8304
SWIDTH 320 0
DWIDTH 10 0
BBX 7 10 2 12
BITMAP
78
FC
FE
CE
CE
CE
CE
FE
FC
78
ENDCHAR
STARTCHAR 2074
ENCODING 8308
SWIDTH 320 0
DWIDTH 10 0
BBX 7 9 2 13
BITMAP
30
70
70
60
EC
CC
FE
FE
0C
ENDCHAR
STARTCHAR 20A0
ENCODING 8352
SWIDTH 768 0
DWIDTH 24 0
BBX 21 22 2 0
BITMAP
1F8000
3FE000
7FF000
F0E000
E04000
E00000
E07FF8
E07FF8
E07FF8
E07800
E07800
E07800
F07800
7FFFE0
3FFFE0
1FFFE0
007800
007800
007800
007FF8
007FF8
007FF8
ENDCHAR
STARTCHAR 20A1
ENCODING 8353
SWIDTH 608 0
DWIDTH 19 0
BBX 15 26 2 -2
BITMAP
0198
0198
07F8
1FF0
3FF8
7FBC
7B3E
737E
F37E
E360
E760
E660
E660
E6E0
E6C0
E6C0
EEC0
FCCE
7DCE
7DDE
7DBC
3FF8
1FF0
1FE0
1B80
1B00
ENDCHAR
STARTCHAR 20A2
ENCODING 8354
SWIDTH 608 0
DWIDTH 19 0
BBX 15 22 2 0
BITMAP
07E0
1FF0
3FF8
7C3C
781E
700E
F00E
E000
E000
E39E
E3BE
E3FC
E3C4
E3C0
E380
F380
738E
7B9E
7FBE
3FFC
1FF8
07E0
ENDCHAR
STARTCHAR 20A3
ENCODING 8355
SWIDTH 576 0
DWIDTH 18 0
BBX 16 22 1 0
BITMAP
1FFF
1FFF
1FFF
1C00
1C00
1C00
1C00
1C00
1C00
1C00
1FFE
1FFE
1FFE
1C00
1C00
1C00
FFC0
FFC0
FFC0
1C00
1C00
1C00
ENDCHAR
STARTCHAR 20A4
ENCODING 8356
SWIDTH 576 0
DWIDTH 18 0
BBX 16 22 1 0
BITMAP
03F0
07FC
0FFE
1E1F
1C0F
1C07
1C07
1C00
1C00
7FF0
7FF0
1C00
1C00
7FF0
7FF0
1C00
1C00
1C00
3800
FFFF
FFFF
FFFF
ENDCHAR
STARTCHAR 20A5
ENCODING 8357
SWIDTH 864 0
DWIDTH 27 0
BBX 22 24 2 -4
BITMAP
000070
0000E0
0000E0
0001C0
F7C3F0
FFF7F8
FFF7FC
F07F3C
F07F1C
F03E1C
F03E1C
F03E1C
F03C1C
F03C1C
F0381C
F0381C
F0781C
F0781C
F0F81C
F0F81C
01C000
01C000
038000
038000
ENDCHAR
STARTCHAR 20A6
ENCODING 8358
SWIDTH 736 0
DWIDTH 23 0
BBX 21 22 1 0
BITMAP
3C00E0
3C00E0
3E00E0
3E00E0
3F00E0
3F80E0
3F80E0
3DC0E0
3DE0E0
3CE0E0
FFFFF8
FFFFF8
3C38E0
3C3CE0
3C1CE0
3C0EE0
3C0FE0
3C07E0
3C03E0
3C03E0
3C01E0
3C00E0
ENDCHAR
STARTCHAR 20A7
ENCODING 8359
SWIDTH 640 0
DWIDTH 20 0
BBX 17 22 2 0
BITMAP
1FE000
1FF800
1FFC00
1C1E00
1C0E00
FFFF80
FFFF80
FFFF80
1C0E00
1C1E00
1FFC00
1FF800
1FE000
1C0000
1C0000
1C0000
1C0000
1C0000
1C0000
1C0000
1C0000
1C0000
ENDCHAR
STARTCHAR 20A8
ENCODING 8360
SWIDTH 1152 0
DWIDTH 36 0
BBX 31 22 3 0
BITMAP
FFE00000
FFF80000
FFFC0000
E03C0000
E01E0000
E01E0000
E00E03F0
E01E0FFE
E01E1FFE
E03C1C0C
FFFC1C00
FFF81C00
FFE01FC0
E0E01FFC
E0F007FE
E070001E
E078000E
E038100E
E03C1C0E
E01C3FFE
E01E1FFC
E00E07F0
ENDCHAR
STARTCHAR 20A9
ENCODING 8361
SWIDTH 864 0
DWIDTH 27 0
BBX 27 22 0 0
BITMAP
700E01C0
700E01C0
780E0380
381E0380
381F0380
381F0380
381F0780
1C3B0700
1C3B8700
1C3B8700
FFFFFFE0
FFFFFFE0
0E71CE00
0E71CE00
0E60CE00
06E0FC00
07E0FC00
07E0FC00
07C07C00
03C07800
03C07800
03807800
ENDCHAR
STARTCHAR 20AA
ENCODING 8362
SWIDTH 704 0
DWIDTH 22 0
BBX 17 18 2 0
BITMAP
FFC380
FFE380
FFF380
E0F380
E03B80
E03B80
E73B80
E73B80
E73B80
E73B80
E73B80
E73B80
E70380
E70380
E7C380
E3FF80
E1FF80
E0FF80
ENDCHAR
STARTCHAR 20AB
ENCODING 8363
SWIDTH 544 0
DWIDTH 17 0
BBX 15 26 2 -4
BITMAP
0038
0038
07FE
07FE
07FE
0038
1F38
3FB8
7FF8
7878
7038
F038
F038
F038
F038
F038
F038
7038
7878
7FF8
3FB8
1F38
0000
FFFC
FFFC
FFFC
ENDCHAR
STARTCHAR 20AC
ENCODING 8364
SWIDTH 640 0
DWIDTH 20 0
BBX 16 22 2 0
BITMAP
03E0
0FF8
1FFC
1E1E
3C0E
380F
3800
3800
FFC0
FFC0
3800
3800
FFC0
FFC0
3800
3800
380F
3C0F
1E1E
1FFC
0FF8
03E0
ENDCHAR
STARTCHAR 20AD
ENCODING 8365
SWIDTH 672 0
DWIDTH 21 0
BBX 20 22 1 0
BITMAP
1C03C0
1C0380
1C0780
1C0F00
1C1E00
1C3C00
1C3800
1C7000
1CF000
1DF000
FFFFF0
FFBFF0
1F3C00
1E1C00
1E1E00
1C0F00
1C0F00
1C0780
1C0380
1C03C0
1C01E0
1C01E0
ENDCHAR
STARTCHAR 20AE
ENCODING 8366
SWIDTH 480 0
DWIDTH 15 0
BBX 15 22 0 0
BITMAP
FFFE
FFFE
FFFE
0380
0380
0380
0380
03B8
03F8
07F8
1FC0
3F88
3BB8
23F8
07F0
1FC0
3F80
3B80
2380
0380
0380
0380
ENDCHAR
STARTCHAR 20AF
ENCODING 8367
SWIDTH 1152 0
DWIDTH 36 0
BBX 33 28 1 -6
BITMAP
7FFE000000
7FFF000000
7FFFC00000
0E03C00000
0E01E00000
0E00E00000
0E00E07C00
0E00E1FF00
0E00E3FF80
0E00E78780
1E00E70380
1E00E70380
1C01E70380
1C01E70380
1C01E70380
1C01C70380
1C01C70380
1C03CF0380
1C078F0780
FFFF0FFF00
FFFE0EFE00
FFF80E7C00
00000E0000
00000E0000
00000E0000
00000E0000
00000E0000
00000E0000
ENDCHAR
STARTCHAR 20B0
ENCODING 8368
SWIDTH 640 0
DWIDTH 20 0
BBX 19 29 -1 -7
BITMAP
003F00
00FF80
01FFC0
01E3C0
03C1E0
0380E0
0380E0
0380E0
03C0E0
01C1C0
01E1C0
00F380
007B80
003F00
001F00
0C1E00
0E3F00
1F3F80
3FF3C0
3BE1C0
71C0E0
E0C0E0
0000E0
0000E0
0000E0
0001E0
007FE0
007FC0
007F00
ENDCHAR
STARTCHAR 20B1
ENCODING 8369
SWIDTH 640 0
DWIDTH 20 0
BBX 17 22 2 0
BITMAP
1FE000
1FF800
1FFC00
1C1E00
FFFF80
FFFF80
1C0E00
FFFF80
FFFF80
FFFF80
1FFC00
1FF800
1FE000
1C0000
1C0000
1C0000
1C0000
1C0000
1C0000
1C0000
1C0000
1C0000
ENDCHAR
STARTCHAR 20B2
ENCODING 8370
SWIDTH 640 0
DWIDTH 20 0
BBX 16 26 2 -2
BITMAP
0380
0380
07E0
1FF0
3FF8
7FBC
7B9E
738E
F38E
E380
E380
E380
E3FF
E3FF
E3FF
E387
E387
F38F
F38E
739E
7FBE
3FFC
1FF8
07E0
0380
0380
ENDCHAR
STARTCHAR 20B3
ENCODING 8371
SWIDTH 736 0
DWIDTH 23 0
BBX 19 22 2 0
BITMAP
00E000
01E000
01E000
01F000
03F000
03B800
033800
073800
071C00
0E1C00
FFFFE0
FFFFE0
1C0E00
1C0F00
1C0700
FFFFE0
FFFFE0
780380
700380
7003C0
F001C0
E001C0
ENDCHAR
STARTCHAR 20B4
ENCODING 8372
SWIDTH 608 0
DWIDTH 19 0
BBX 16 22 1 0
BITMAP
0FE0
3FF8
7FFC
383E
200E
000E
000E
000E
FFFE
FFFE
FFFE
0000
FFFE
FFFE
7000
E000
F000
7002
780F
3FFF
1FFE
07F0
ENDCHAR
STARTCHAR 20B5
ENCODING 8373
SWIDTH 608 0
DWIDTH 19 0
BBX 15 26 2 -2
BITMAP
0380
0380
07E0
1FF0
3FF8
7FBC
7B9E
738E
F38E
E380
E380
E380
E380
E380
E380
E380
E380
F38E
738E
7B9E
7FBC
3FF8
1FF0
07E0
0380
0380
ENDCHAR
STARTCHAR 20B6
ENCODING 8374
SWIDTH 576 0
DWIDTH 18 0
BBX 14 22 2 0
BITMAP
7870
7870
7870
7870
7870
7870
FFFC
FFFC
FFFC
7870
7870
7870
7870
7870
7870
7870
7870
7870
7870
787C
787C
783C
ENDCHAR
STARTCHAR 20B7
ENCODING 8375
SWIDTH 608 0
DWIDTH 19 0
BBX 16 24 1 -2
BITMAP
07F0
1FFC
3FFF
3C1E
7804
7000
7000
7000
7800
3F80
1FF8
0FFC
007E
000F
0007
0007
FEE7
9327
932F
F33E
7FFC
1FE0
1320
1320
ENDCHAR
STARTCHAR 20B8
ENCODING 8376
SWIDTH 480 0
DWIDTH 15 0
BBX 15 22 0 0
BITMAP
FFFE
FFFE
FFFE
0000
0000
FFFE
FFFE
FFFE
0380
0380
0380
0380
0380
0380
0380
0380
0380
0380
0380
0380
0380
0380
ENDCHAR
STARTCHAR 20B9
ENCODING 8377
SWIDTH 608 0
DWIDTH 19 0
BBX 15 22 2 0
BITMAP
FFFE
FFFE
FFFE
03E0
00E0
FFFE
FFFE
FFFE
0070
00F0
01E0
FFE0
FFC0
FF80
0380
03C0
01C0
00E0
00F0
0070
0078
0038
ENDCHAR
STARTCHAR 20BA
ENCODING 8378
SWIDTH 608 0
DWIDTH 19 0
BBX 16 22 2 0
BITMAP
3800
3800
3800
3800
38E0
3BE0
3FE0
7F00
FC00
F8E0
BBE0
3FE0
7F00
FC07
F807
B807
3807
3807
380F
3FFE
3FFC
3FF0
ENDCHAR
STARTCHAR 20BB
ENCODING 8379
SWIDTH 704 0
DWIDTH 22 0
BBX 22 22 0 0
BITMAP
3E0000
7F0000
7F8000
F38000
E38000
F38000
7FFF80
7FFFF0
3FFFF8
03807C
03801C
03BB9C
03BB9C
1FFFF8
1FFFF8
038000
038000
038000
03C000
03FF80
01FF80
00FF80
ENDCHAR
STARTCHAR 20BC
ENCODING 8380
SWIDTH 736 0
DWIDTH 23 0
BBX 19 22 2 0
BITMAP
00E000
00E000
00E000
00E000
00E000
07FC00
1FFF00
3FFF80
3CE780
78E3C0
70E1C0
F0E1E0
E0E0E0
E0E0E0
E0E0E0
E0E0E0
E0E0E0
E0E0E0
E0E0E0
E0E0E0
E0E0E0
E0E0E0
ENDCHAR
STARTCHAR 20BD
ENCODING 8381
SWIDTH 672 0
DWIDTH 21 0
BBX 18 22 2 0
BITMAP
3FFC00
3FFE00
3FFF00
3C0780
3C0380
3C03C0
3C03C0
3C03C0
3C0380
3C0780
FFFF00
FFFE00
FFFC00
3C0000
3C0000
3C0000
FFC000
FFC000
FFC000
3C0000
3C0000
3C0000
ENDCHAR
STARTCHAR 20BE
ENCODING 8382
SWIDTH 704 0
DWIDTH 22 0
BBX 18 25 2 0
BITMAP
033800
033800
03F800
0FFE00
1FFF00
3F3F80
3B3F80
7B3BC0
7339C0
7339C0
F339C0
F339C0
F00000
F00000
F00000
F00000
F00000
700000
700000
700000
380000
3C0000
FFFFC0
FFFFC0
FFFFC0
ENDCHAR
STARTCHAR 2116
ENCODING 8470
SWIDTH 992 0
DWIDTH 31 0
BBX 26 22 3 0
BITMAP
E0070F80
E0071FC0
F0071FC0
F80718C0
F80718C0
FC0718C0
FE071CC0
EE071FC0
E7070F80
E7070000
E3870000
E3C71FC0
E1C71FC0
E0E71FC0
E0F71FC0
E0770000
E03F0000
E03F0000
E01F0000
E00F0000
E00F0000
E0070000
ENDCHAR
STARTCHAR 2122
ENCODING 8482
SWIDTH 672 0
DWIDTH 21 0
BBX 19 10 0 14
BITMAP
FF70E0
FF70E0
FF79E0
1879E0
187FE0
187F60
187760
187660
187260
187060
ENDCHAR
STARTCHAR 2133
ENCODING 8499
SWIDTH 800 0
DWIDTH 25 0
BBX 21 22 2 0
BITMAP
380038
3C0078
3C0078
3C00F8
3E00F8
3E01F8
3E01F8
7F03B8
7703F0
730770
738770
738E70
71CE70
71DC70
71FC70
70F870
70F870
70F070
7060F0
7000E0
7000E0
F000E0
ENDCHAR
ENDFONT
